<?xml version="1.0" encoding="UTF-8" standalone="no"?>
<svg
   width="996"
   height="580"
   viewBox="18 153 996 580"
   version="1.1"
   id="svg117"
   sodipodi:docname="hero-illustration-order.svg"
   inkscape:version="1.4.3 (0d15f75042, 2025-12-25)"
   xmlns:inkscape="http://www.inkscape.org/namespaces/inkscape"
   xmlns:sodipodi="http://sodipodi.sourceforge.net/DTD/sodipodi-0.dtd"
   xmlns="http://www.w3.org/2000/svg"
   xmlns:svg="http://www.w3.org/2000/svg">
  <sodipodi:namedview
     id="namedview117"
     pagecolor="#ffffff"
     bordercolor="#000000"
     borderopacity="0.25"
     inkscape:showpageshadow="2"
     inkscape:pageopacity="0.0"
     inkscape:pagecheckerboard="0"
     inkscape:deskcolor="#d1d1d1"
     inkscape:zoom="2.2677135"
     inkscape:cx="238.12532"
     inkscape:cy="378.57515"
     inkscape:window-width="1920"
     inkscape:window-height="1030"
     inkscape:window-x="0"
     inkscape:window-y="0"
     inkscape:window-maximized="1"
     inkscape:current-layer="svg117" />
  <path
     fill="#3f4044"
     d="m 426.24936,154.91249 c 8.20675,-0.14415 50.35981,-0.89206 56.02768,0.69475 4.51061,4.61272 11.14481,20.92978 14.23585,27.67518 13.3075,0.29184 92.99258,-1.01614 98.26243,1.59743 1.58291,0.78455 2.9369,2.35127 3.48332,4.06095 1.61397,5.04871 -5.10995,83.77226 -6.43632,91.98514 -0.37387,2.3229 -1.00774,4.08103 -2.24783,6.05657 -4.89828,2.63365 -19.05705,1.497 -25.30357,1.49109 l -40.22388,0.039 c -31.52363,0.0118 -63.04957,-0.0602 -94.57088,-0.23984 -4.26444,-0.0249 -7.7167,-1.11537 -8.53002,-5.98332 -0.88923,-5.32519 -0.61314,-10.86778 -0.68561,-16.27096 l -0.38077,-27.82996 -0.67872,-48.67347 c -0.11735,-8.86627 -0.30255,-17.75026 -0.15645,-26.61417 0.0874,-5.39371 2.38011,-7.13767 7.20477,-7.98838 z"
     id="path2"
     style="stroke-width:1.16584" />
  <path
     fill="#5ca08c"
     d="m 423.24229,186.03539 c 33.73234,-0.86133 68.08934,0.11816 101.92865,-0.0661 20.07399,0.15242 40.17673,-0.26702 60.24495,0.12052 3.69845,0.0709 8.3586,0.72546 8.4909,5.5355 0.25422,9.25028 -0.24734,19.00624 -0.89384,28.26005 -1.44372,20.68283 -2.44569,41.54643 -4.26904,62.18791 -2.59983,5.07471 -5.68397,4.07748 -11.05621,4.11766 -42.09094,0.31193 -84.18534,-0.29774 -126.27971,0.0343 -7.49698,0.059 -18.90981,0.68057 -25.8224,-1.562 -3.40624,-6.24324 -2.40082,-29.50537 -2.46294,-37.96047 -0.3037,-20.22203 -0.26344,-40.44761 0.11964,-60.66728 z"
     id="path3"
     style="stroke-width:1.16584;fill:#059669;fill-opacity:1" />
  <path
     fill="#fefefe"
     d="m 465.73011,218.43083 c 6.95169,-0.13825 14.80643,-0.9866 20.94481,3.07908 7.89385,5.22948 6.04175,14.22337 1.33213,21.20035 -6.70436,5.44452 -13.85623,4.19445 -22.25393,4.07867 0.13459,-9.36015 0.002,-18.97788 -0.023,-28.3581 z"
     id="path4"
     style="stroke-width:1.16584" />
  <path
     fill="#5ca08c"
     d="m 470.77563,221.09874 c 5.42286,-0.18788 9.56303,-0.60614 13.96091,3.25513 6.00264,5.26967 3.74791,12.80197 -0.83517,17.93812 -5.3009,2.8735 -8.47939,2.18585 -14.57175,2.13268 -0.0448,-4.59028 -0.4268,-19.00387 0.27034,-22.72926 z"
     id="path5"
     style="stroke-width:1.16584;fill:#059669;fill-opacity:1" />
  <path
     fill="#fefefe"
     d="m 502.04273,226.84337 c 5.32161,-1.58089 10.89517,1.50293 12.53905,6.93681 1.64273,5.43272 -1.2493,11.21754 -6.5065,13.01229 -3.49369,1.19217 -7.34168,0.35329 -10.0623,-2.1953 -2.71948,-2.54857 -3.88711,-6.40748 -3.0508,-10.09033 0.83633,-3.68287 3.54431,-6.61426 7.08055,-7.66347 z"
     id="path6"
     style="stroke-width:1.16584" />
  <path
     fill="#5ca08c"
     d="m 502.69499,230.06071 c 2.44569,-0.77627 5.1088,-0.11461 6.93904,1.72504 1.82909,1.83848 2.53081,4.55956 1.82679,7.08805 -0.70403,2.52849 -2.69992,4.45676 -5.19968,5.02508 -3.65243,0.82944 -7.29105,-1.44857 -8.24816,-5.16214 -0.95711,-3.71358 1.10896,-7.54175 4.68201,-8.67603 z"
     id="path7"
     style="stroke-width:1.16584;fill:#059669;fill-opacity:1" />
  <path
     fill="#fefefe"
     d="m 543.98182,226.69568 c 3.16582,-0.0461 5.46542,-0.0319 8.071,1.87156 l 0.0713,0.88734 c -3.92507,1.30205 -6.01414,-0.41945 -8.87397,1.27134 -0.50731,3.99359 6.80675,5.0168 9.79541,10.54641 0.18176,3.99241 -2.66196,4.9341 -6.05325,5.83088 -2.25358,-0.12051 -7.32211,-0.0248 -8.42877,-2.37724 2.1443,-0.86726 7.62582,-1.09056 10.22794,-1.29497 0.93986,-1.04566 0.66492,-0.41591 0.74891,-1.92119 -3.3959,-4.76987 -18.02172,-6.81866 -5.5586,-14.81413 z"
     id="path8"
     style="stroke-width:1.16584" />
  <path
     fill="#fefefe"
     d="m 526.35813,226.7902 c 2.74708,-0.10166 7.96863,-0.45488 9.17996,2.89241 -2.72177,1.28905 -10.84455,-0.80226 -12.15828,2.00152 -4.19771,8.95725 0.9088,13.91025 8.99015,12.23366 0.2462,-0.13469 1.38046,-0.45372 1.6968,-0.5506 l 0.61086,0.79635 c -1.50009,3.08501 -6.01185,3.5907 -8.78654,2.67265 -11.46001,-3.79038 -9.04307,-15.54787 0.46705,-20.04599 z"
     id="path9"
     style="stroke-width:1.16584" />
  <path
     fill="#fefefe"
     d="m 423.31361,183.00948 c 0.002,-4.76397 -0.68906,-19.51901 1.43452,-22.55911 2.93689,-1.58563 6.63533,-1.94719 9.91735,-1.8113 14.30257,0.5884 29.82913,-0.6593 44.00976,0.31547 4.29548,5.08416 10.16007,17.92039 13.90338,24.52519 -1.82679,0.0224 -5.46426,-0.0485 -7.13806,0.13115 -3.7525,1.60926 -48.84706,1.66715 -52.3925,-0.12288 -3.35104,-0.51279 -6.35696,-0.4419 -9.73445,-0.47852 z"
     id="path10"
     style="stroke-width:1.16584" />
  <path
     fill="#0d0d0e"
     d="m 433.04806,183.488 c 16.82878,-0.0189 35.78115,-0.45371 52.3925,0.12288 -3.7525,1.60926 -48.84706,1.66715 -52.3925,-0.12288 z"
     id="path11"
     style="stroke-width:1.16584" />
  <path
     fill="#0d0d0e"
     d="m 562.59023,184.47932 c 2.06146,-0.54824 13.97586,-0.24577 16.12935,0.50688 -5.76451,0.005 -8.86936,1.15081 -15.63815,0.38045 z"
     id="path12"
     style="stroke-width:1.16584" />
  <path
     fill="#3F4044"
     d="M852.368 424.012C866.193 424.096 880.018 424.1 893.843 424.024C900.282 424.008 906.748 423.893 913.179 424.109C917.09 424.239 918.694 425.506 918.779 429.433C919.194 448.395 918.954 467.389 919.074 486.357C919.108 491.812 919.266 497.387 918.511 502.79C916.248 505.672 905.447 504.59 901.472 504.603L870.709 504.63L821.179 504.655C812.819 504.661 804.452 504.716 796.105 504.637C791.893 504.648 790.801 503.042 790.787 498.983C790.718 479.802 790.721 460.442 790.597 441.271C790.564 436.108 789.619 409.18 791.921 406.931C796.847 405.211 824.659 405.964 831.024 406.432L834.56 406.334L840.691 406.288C845.18 413.487 846.549 416.968 852.368 424.012Z"
     id="path13" />
  <path
     fill="#FEFEFE"
     d="M809.561 407.96L833.984 408.014L839.733 408.094C842.776 415.498 844.318 417.884 848.775 424.451C830.645 424.821 811.704 424.567 793.549 424.448C793.598 420.256 792.746 412.781 794.52 409.56C797.146 407.154 805.466 407.95 809.561 407.96Z"
     id="path14" />
  <path
     fill="#0D0D0E"
     d="M831.024 406.432L834.56 406.334L833.984 408.014L809.561 407.96L806.194 407.295L805.986 406.911L806.408 407.125L806.093 407.005C808.461 406.271 826.607 406.757 831.024 406.432Z"
     id="path15" />
  <path
     fill="#FEFEFE"
     d="M793.5 426.999L875.751 427.038C883.953 427.046 908.416 426.501 915.273 427.605C916.458 430.603 916.533 495.522 915.703 501.474C912.701 502.553 893.893 502.176 889.329 502.126C857.517 501.778 825.472 502.724 793.685 502.07C793.17 496.349 793.481 483.645 793.459 477.381C793.365 460.587 793.378 443.793 793.5 426.999Z"
     id="path16" />
  <path
     fill="#3F4044"
     d="M632.375 504.669L579.077 504.669C571.857 504.684 564.183 504.821 556.984 504.468C552.83 504.264 554.303 489.495 554.295 486.535L554.157 455.005L554.033 426.329C554.022 423.187 553.162 407.35 556.075 407.029C565.886 405.949 595.237 404.699 603.984 406.591C605.203 406.801 613.955 421.539 615.872 423.98L658.029 423.975C664.387 423.969 671.688 423.731 678.019 424.29C679.832 424.451 680.301 425.234 681.261 426.591C681.811 429.386 682.145 448.479 681.82 451.638C680.635 463.136 683.978 494.177 680.541 503.875C676.652 505.165 639.122 504.674 632.375 504.669Z"
     id="path17" />
  <path
     fill="#FEFEFE"
     d="M572.683 408.002C576.776 408.006 596.538 408.329 599.742 407.836L602.56 408.072C604.336 409.301 610.28 421.416 612.055 424.396C594.297 424.773 575.191 424.583 557.449 424.435C557.521 420.161 556.516 412.197 558.634 409.266C561.514 407.323 568.874 407.964 572.683 408.002Z"
     id="path18" />
  <path
     fill="#0D0D0E"
     d="M572.683 408.002C571.566 407.707 571.92 407.877 570.986 407.071C572.571 406.031 599.397 406.793 603.984 406.591C602.216 407.331 601.643 407.434 599.742 407.836C596.538 408.329 576.776 408.006 572.683 408.002Z"
     id="path19" />
  <path
     fill="#FEFEFE"
     d="M557.276 427.017L629.822 426.975C645.645 426.98 662.875 426.671 678.575 427.141C679.237 433.677 678.84 451.089 678.735 458.249C678.532 471.991 679.177 488.174 678.41 501.668C674.946 502.5 645.495 502.185 640.412 502.112C613.092 501.715 584.648 502.848 557.47 502.042C556.878 479.814 556.498 449.058 557.276 427.017Z"
     id="path20" />
  <path
     fill="#3F4044"
     d="M87.2817 406.056C101.839 405.519 120.333 406.159 135.174 406.257C138.659 412.713 141.676 417.703 145.982 423.625C159.926 423.976 174.198 423.575 188.18 423.755C194.257 423.835 200.376 423.631 206.445 423.957C208.955 424.092 210.844 426.109 210.872 428.638C211.138 452.523 211.246 476.478 210.811 500.361C210.785 501.805 209.993 502.866 209.133 503.94C208.578 503.961 208.023 503.979 207.467 503.993C198.572 504.173 189.438 504.017 180.523 503.997C150.793 503.932 121.048 504.075 91.3217 503.962C88.1171 503.95 85.4944 503.119 85.4644 499.429C85.377 488.681 85.4464 477.935 85.4429 467.189L84.9613 415.611C84.944 411.587 84.5451 408.826 87.2817 406.056Z"
     id="path21" />
  <path
     fill="#FEFEFE"
     d="M88.0834 426.938L207.775 426.95C208.268 442.063 207.748 458.352 207.906 473.557C207.964 479.219 208.192 496.463 207.409 501.219C203.75 501.915 178.053 501.458 172.872 501.454L87.9928 501.382L88.0834 426.938Z"
     id="path22" />
  <path
     fill="#FEFEFE"
     d="M100.912 407.94L101.166 406.94C105.02 405.969 127.068 406.131 130.169 407.994C131.336 407.981 132.061 408.069 133.215 408.183C135.219 409.641 140.665 421.036 142.531 424.347C124.43 424.444 106.328 424.421 88.2268 424.279C88.271 421.492 88.3022 418.372 88.1224 415.598C87.7691 410.149 88.6229 408.086 94.5539 408.028L100.912 407.94Z"
     id="path23" />
  <path
     fill="#0D0D0E"
     d="M100.912 407.94L101.166 406.94C105.02 405.969 127.068 406.131 130.169 407.994L100.912 407.94Z"
     id="path24" />
  <path
     fill="#3F4044"
     d="M384.708 423.709C395.652 424.035 441.536 422.211 447.007 424.94C448.112 425.49 448.418 426.084 448.699 427.251C449.986 432.605 449.263 439.416 449.293 444.963C449.436 456.929 449.429 468.896 449.27 480.862C449.228 485.629 451.549 503.647 445.075 504.09C442.98 504.233 436.428 504.031 433.986 504.027L405.454 503.999L356.545 504.023C351.975 504.024 328.673 504.813 326.119 502.698C325.414 501.081 324.987 499.374 325.003 497.594C325.265 468.927 324.779 440.248 324.985 411.585C325.158 410.422 325.07 407.979 326.222 407.295C329.615 405.279 335.735 406.17 339.584 406.377C347.752 406.468 355.921 406.502 364.09 406.478L374 406.428C377.664 412.915 380.536 417.591 384.708 423.709Z"
     id="path25" />
  <path
     fill="#FEFEFE"
     d="M339.584 406.377C347.752 406.468 355.921 406.502 364.09 406.478C361.183 408.612 358.165 407.711 354.348 408.083C359.312 408.554 367.721 408.412 372.974 408.462C375.854 415.108 377.725 418.306 381.61 424.333C364.218 424.639 345.294 424.476 327.918 424.222C328.243 411.16 323.594 408.919 337.742 408.044C338.495 407.105 338.593 407.091 339.584 406.377Z"
     id="path26" />
  <path
     fill="#0D0D0E"
     d="M339.584 406.377C347.752 406.468 355.921 406.502 364.09 406.478C361.183 408.612 358.165 407.711 354.348 408.083C349.691 408.323 342.595 408.074 337.742 408.044C338.495 407.105 338.593 407.091 339.584 406.377Z"
     id="path27" />
  <path
     fill="#FEFEFE"
     d="M327.784 426.87L395.591 426.869C412.08 426.849 429.622 426.507 446.037 426.937C446.461 442.318 445.878 458.806 446.084 474.292C446.158 479.862 446.366 496.815 445.72 501.278C420.972 502.397 395.145 500.814 370.281 501.442C356.389 501.793 341.677 501.639 327.759 501.386C327.509 497.56 327.599 492.941 327.654 489.082C327.949 468.435 327.136 447.486 327.784 426.87Z"
     id="path28" />
  <path
     fill="#5ca08c"
     d="m 504.50837,289.78791 6.28324,-0.12322 c 0.34517,0.56259 0.11224,2.94118 0.23288,6.22607 0.44978,12.24643 0.1258,38.51144 0.72288,43.30415 L 760.01,339.048 l 59.549,-0.034 c 7.07,-0.002 25.743,-0.475 31.54,0.846 1.336,2.09 1.504,40.685 0.399,42.8 l -1.103,-0.141 c -1.374,-2.238 -0.86,-35.473 -0.874,-40.733 -23.507,-0.398 -48.845,0.099 -72.501,0.111 l -152.504,0.05 c -0.292,6.627 -0.867,38.222 -3.146,41.564 -0.209,-0.21 -0.459,-0.386 -0.625,-0.631 -2.294,-3.388 0.409,-35.011 0.816,-40.974 -12.524,-0.459 -28.13,0.034 -40.975,0.041 l -82.836,0.032 H 395.517 c -0.141,9.085 0.771,35.297 -1.831,42.675 l -1.398,-0.405 c -0.969,-9.736 0.183,-31.345 0.232,-42.354 l -233.009,0.101 -0.191,30.002 c -0.02,2.696 0.707,12.343 -1.329,13.32 l -0.599,-0.399 c -0.764,-3.505 -0.474,-41.633 0.381,-44.804 5.495,-2.206 90.852,-1.009 103.569,-1.015 l 243.64759,0.21591 c -0.435,-11.103 -0.193,-49.59073 -0.48121,-49.528 z"
     id="path29"
     sodipodi:nodetypes="ccsccccccccccccccccccccccccccc"
     style="fill:#059669;fill-opacity:1" />
  <path
     fill="#5CA08C"
     d="M476.914 615.909C488.294 613.086 499.814 620 502.676 631.37C505.539 642.74 498.665 654.284 487.305 657.186C475.889 660.102 464.276 653.187 461.399 641.761C458.523 630.335 465.478 618.746 476.914 615.909Z"
     id="path30"
     style="fill:#059669;fill-opacity:1" />
  <path
     fill="#FEFEFE"
     d="M495.428 624.28C497.391 625.41 496.736 624.649 497.728 626.393C497.134 628.918 482.202 642.615 479.471 645.281L475.282 642.209C473.263 641.11 472.2 641.007 472.073 638.641C474.598 636.005 477.214 638.605 479.271 640.345C484.772 635.222 490.14 629.648 495.428 624.28Z"
     id="path31" />
  <path
     fill="#5CA08C"
     d="M853.955 615.794C865.617 613.94 876.555 621.945 878.314 633.622C880.073 645.299 871.979 656.171 860.288 657.835C848.731 659.48 838.01 651.499 836.271 639.955C834.532 628.412 842.426 617.626 853.955 615.794Z"
     id="path32"
     style="fill:#059669;fill-opacity:1" />
  <path
     fill="#FEFEFE"
     d="M870.878 624.292C872.476 624.797 872.723 625.244 873.351 626.349C872.583 628.973 857.66 642.71 854.671 645.66L850.424 642.593C848.174 641.203 847.707 641.174 847.055 638.828C849.116 635.875 852.57 639.082 854.513 640.562C860.001 635.487 865.588 629.64 870.878 624.292Z"
     id="path33" />
  <path
     fill="#5CA08C"
     d="M602.258 615.833C613.678 613.208 625.064 620.332 627.697 631.75C630.33 643.168 623.213 654.56 611.797 657.2C600.37 659.843 588.965 652.718 586.33 641.289C583.694 629.86 590.827 618.46 602.258 615.833Z"
     id="path34"
     style="fill:#059669;fill-opacity:1" />
  <path
     fill="#FEFEFE"
     d="M620.32 624.317C621.995 624.449 622.376 624.943 622.686 626.417C621.273 630.068 608.01 641.887 604.504 645.233L600.38 642.099C598.087 640.909 597.854 640.924 597.097 638.895L597.635 637.925C600.825 636.89 601.97 638.431 604.403 640.295C609.819 635.08 615.126 629.753 620.32 624.317Z"
     id="path35" />
  <path
     fill="#5CA08C"
     d="M360.564 615.833C371.997 613.3 383.321 620.508 385.865 631.938C388.41 643.369 381.214 654.7 369.786 657.256C358.341 659.816 346.99 652.607 344.442 641.16C341.894 629.713 349.114 618.37 360.564 615.833Z"
     id="path36"
     style="fill:#059669;fill-opacity:1" />
  <path
     fill="#FEFEFE"
     d="M378.872 623.806C380.087 624.702 380.67 624.942 381.18 626.358C380.303 628.979 366.158 641.725 362.801 645.252C361.234 644.098 359.532 643.009 357.908 641.926C355.949 640.903 355.547 640.659 355.01 638.647L355.626 637.81C358.853 636.939 359.994 638.46 362.441 640.33C367.935 634.978 373.455 629.265 378.872 623.806Z"
     id="path37" />
  <path
     fill="#5CA08C"
     d="M727.819 615.722C739.393 614.443 749.83 622.741 751.194 634.304C752.558 645.868 744.338 656.366 732.785 657.816C721.11 659.281 710.477 650.955 709.099 639.27C707.721 627.585 716.124 617.014 727.819 615.722Z"
     id="path38"
     style="fill:#059669;fill-opacity:1" />
  <path
     fill="#FEFEFE"
     d="M743.704 624.312C745.37 624.873 745.494 625.138 745.724 626.667C744.06 630.53 731.294 641.969 727.589 645.56C726.033 644.414 724.356 643.299 722.758 642.199C720.87 641.094 720.286 641.049 719.85 638.859L720.468 637.994C723.97 637.212 724.676 638.528 727.211 640.679C732.652 635.804 738.324 629.563 743.704 624.312Z"
     id="path39" />
  <path
     fill="#5CA08C"
     d="M104.033 615.883C115.474 613.233 126.882 620.41 129.446 631.87C132.01 643.33 124.747 654.685 113.268 657.162C101.91 659.613 90.7019 652.444 88.1654 641.105C85.6289 629.766 92.7139 618.505 104.033 615.883Z"
     id="path40"
     style="fill:#059669;fill-opacity:1" />
  <path
     fill="#FEFEFE"
     d="M122 624.247C123.851 624.56 124.068 625.015 124.237 626.644C122.766 630.119 110.195 641.522 106.439 645.354C105.142 644.348 103.627 643.301 102.283 642.325C100.169 641.087 99.6408 640.909 98.7155 638.891L99.0408 638.032C102.304 637.016 103.421 638.523 105.995 640.377C111.317 635.68 117.093 629.407 122 624.247Z"
     id="path41" />
  <path
     fill="#5CA08C"
     d="M236.384 616.008C247.768 613.149 259.298 620.127 262.045 631.539C264.792 642.951 257.7 654.412 246.261 657.045C234.981 659.643 223.714 652.67 221.006 641.417C218.297 630.163 225.158 618.828 236.384 616.008Z"
     id="path42"
     style="fill:#059669;fill-opacity:1" />
  <path
     fill="#FEFEFE"
     d="M254.405 624.295C255.957 624.738 256.277 625.064 256.945 626.336C256.504 628.488 241.609 642.484 238.794 645.358L234.373 641.88C232.251 640.673 231.841 640.64 231.194 638.671L231.703 637.822C235.064 636.952 235.961 638.284 238.496 640.242C244.149 635.198 249.205 629.789 254.405 624.295Z"
     id="path43" />
  <path
     fill="#5CA08C"
     d="M984.664 615.919C995.97 613.934 1006.78 621.373 1008.97 632.642C1011.16 643.911 1003.92 654.855 992.687 657.245C985.243 658.829 977.523 656.272 972.496 650.557C967.47 644.841 965.92 636.858 968.442 629.677C970.965 622.495 977.167 617.235 984.664 615.919Z"
     id="path44"
     style="fill:#059669;fill-opacity:1" />
  <path
     fill="#FEFEFE"
     d="M1001.4 624.288C1003.17 624.648 1003.3 624.888 1003.61 626.419C1002.04 630.259 989.855 641.072 985.876 645.355L980.768 641.852C978.698 640.553 978.693 640.66 978.137 638.861L978.738 637.997C982.004 637.198 982.896 638.553 985.271 640.466C990.124 636.177 996.704 629.068 1001.4 624.288Z"
     id="path45" />
  <path
     fill="#5CA08C"
     d="M853.861 516.176C854.552 516.452 854.974 516.737 855.621 517.109C857.228 520.293 857.444 553.422 857.486 559.224C889.257 560.878 922.147 559.614 953.778 560.683C954.175 566.441 956.023 605.894 954.471 608.307C952.579 608.417 953.373 608.669 951.933 607.854C951.327 605.566 951.19 603.187 951.108 600.828C950.689 588.746 950.832 576.641 950.152 564.569L918.299 564.368C887.371 563.627 856.439 563.097 825.505 562.781C825.431 569.07 827.476 606.778 825.985 609.28C824.215 609.445 824.972 609.689 823.562 608.95C822.455 604.699 821.054 562.717 822.483 559.838C825.911 558.224 848.113 558.999 853.699 559.035C853.563 550.2 853.288 541.367 852.874 532.541C852.709 528.269 851.618 519.428 853.861 516.176Z"
     id="path46"
     style="fill:#059669;fill-opacity:1" />
  <path
     fill="#5CA08C"
     d="M146.817 517.176C147.592 517.345 148.176 517.559 148.93 517.804C150.524 520.341 148.51 553.813 148.326 559.424C169.162 559.574 190.414 559.045 211.199 559.491C212.691 570.574 212.663 593.612 212.659 605.859C212.659 606.973 211.654 607.602 210.81 608.048L209.862 607.566C208.295 604.774 208.082 569.132 207.652 562.516C186.976 562.149 165.142 562.5 144.375 562.564L83.5059 562.771C82.8839 573.845 83.1712 584.913 82.8348 595.972C82.7449 598.927 82.6259 605.306 81.9676 608.004C80.7778 608.953 81.4236 608.777 80.0047 608.671C79.3072 607.609 78.9496 606.553 79.002 605.256C79.6167 590.058 79.2255 574.681 79.844 559.506L144.533 559.39C144.803 552.829 145.245 520.638 146.817 517.176Z"
     id="path47"
     style="fill:#059669;fill-opacity:1" />
  <path
     fill="#5CA08C"
     d="M383.72 517.681C385.261 517.857 385.193 517.819 386.585 518.485C387.947 521.822 385.801 555.045 385.509 560.819L424.92 560.941C430.708 560.971 445.522 560.617 450.424 562.166C452.295 564.587 451.893 601.088 452.387 606.816C452.482 607.913 451.357 608.83 450.542 609.421L449.58 609.116C448.176 606.783 448.086 569.817 447.988 564.473C435.975 563.82 418.395 564.36 406.058 564.359C383.938 564.271 359.962 563.906 338.007 564.256C337.989 570.802 338.78 605.381 336.248 608.474L335.379 608.238C335.109 607.8 334.839 607.361 334.569 606.922C334.251 593.654 334.129 573.712 334.514 561.016C346.959 559.941 368.276 560.911 382.003 560.666C382 549.161 382.595 528.962 383.72 517.681Z"
     id="path48"
     style="fill:#059669;fill-opacity:1" />
  <path
     fill="#5CA08C"
     d="M617.496 517.284C618.812 517.785 618.343 517.521 619.374 518.554C620.707 522.467 619.831 552.626 619.744 558.981L664.943 559.052C672.5 559.077 682.691 558.84 690.042 559.374C691.929 572.734 690.404 587.739 691.461 601.261C691.638 603.522 691.854 606.151 690.018 607.636L688.705 607.342C687.53 604.919 687.43 568.259 687.189 562.38C676.972 561.719 659.506 562.338 648.75 562.386L579.102 562.5C578.839 572.177 578.64 581.856 578.504 591.536C578.442 594.936 578.916 605.875 576.889 608.119L576.026 608.114C573.835 605.986 574.949 582.419 574.836 577.205C574.372 555.847 573.917 559.031 594.015 558.985C601.764 558.967 609.254 559.006 616.026 558.989C616.019 552.796 615.477 520.331 617.496 517.284Z"
     id="path49"
     style="fill:#059669;fill-opacity:1" />
  <defs
     id="defs50">
    <linearGradient
       id="gradient_0"
       gradientUnits="userSpaceOnUse"
       x1="34.672817"
       y1="614.1344"
       x2="86.563881"
       y2="740.9953">
      <stop
         offset="0"
         stop-color="#262729"
         id="stop49" />
      <stop
         offset="1"
         stop-color="#48494D"
         id="stop50" />
    </linearGradient>
  </defs>
  <path
     fill="url(#gradient_0)"
     d="M111.857 729.221C112.78 707.131 111.251 683.172 112.099 661.226C112.848 660.056 112.323 660.373 113.566 660.053C114.456 661.014 114.642 662.387 114.642 663.669C114.639 683.22 114.602 702.777 114.938 722.326C114.985 725.035 115.16 729.892 112.785 731.528C105.639 732.35 26.9125 732.749 23.7369 731.686C22.6228 731.314 21.8665 730.554 21.4734 729.453C20.7506 727.429 20.5762 632.271 20.9466 624.641C21.0575 622.357 21.322 620.681 22.4972 618.711C25.7803 616.816 55.0018 618.488 61.1916 617.952C63.9302 617.715 65.8655 617.974 67.3461 620.365L67.7175 622.644C66.9083 623.246 67.2238 623.168 66.3166 623.372C65.936 622.586 65.4387 621.721 65.0179 620.943C61.5375 619.381 29.2855 620.013 23.9752 620.494C23.4621 626.962 23.6279 635.565 23.5895 642.167L23.534 681.813L23.5275 709.908C23.5303 714.618 23.2296 724.54 24.2717 728.71C28.1888 729.835 58.5278 729.587 64.606 729.464C79.2365 729.168 97.4752 729.975 111.857 729.221Z"
     id="path50" />
  <path
     fill="#0D0D0E"
     d="M902.555 620.528C902.357 623.586 901.865 636.205 902.043 638.574C902.729 647.694 900.661 726.075 902.951 728.893C907.808 729.996 987.478 730.326 990.25 729.069C991.644 724.647 990.767 718.592 991.073 714.665C991.833 704.908 989.654 667.897 992.093 659.995L992.558 659.954C992.939 661.605 993.132 664.131 993.144 665.867C993.239 682.303 993.02 698.748 993.133 715.184C993.154 718.335 993.851 729.021 992.055 730.957C988.123 732.868 978.711 731.952 974.043 731.939L944.291 731.975L918.219 732.013C913.432 732.017 906.667 732.232 902.032 731.684C901.42 731.267 900.74 730.989 900.411 730.291C899.452 728.253 899.36 635.956 899.86 625.145C899.959 623.009 900.13 620.832 900.887 618.819C904.72 617.044 933.392 617.967 939.393 618.004L940.186 618.264C942.337 618.949 942.948 618.319 944.964 619.745C945.552 621.061 945.606 621.072 945.808 622.479L945.246 622.713C944.531 621.864 944.513 621.786 944.012 620.785L943.433 620.416C937.141 619.642 908.733 619.857 902.555 620.528Z"
     id="path51" />
  <path
     fill="#3F4044"
     d="M536.116 731.022C533.58 731.137 524.975 731.875 524.195 730.22C522.303 726.207 523.019 710.556 523.019 706.428L523.052 666.831C523.116 657.931 523.109 649.031 523.031 640.131C522.989 634.964 521.94 622.593 525.085 618.875C528.654 617.462 560.536 618.288 566.426 618.542C568.099 621.348 570.936 628.83 572.62 632.49C575.555 632.433 579.992 631.979 582.292 633.629C580.203 635.452 573.678 634.775 570.9 634.657C568.615 630.505 566.778 625.503 564.473 621.076C558.925 620.898 531.177 620.576 526.953 621.439C525.266 625.161 525.744 717.84 525.968 728.656C529.534 728.983 534.56 728.956 538.239 729.042C537.418 730.173 537.369 730.573 536.116 731.022Z"
     id="path52" />
  <path
     fill="#3F4044"
     d="M659.144 731.929C656.138 732.088 647.496 732.909 645.792 731.174C643.618 728.959 644.405 714 644.41 711.017L644.473 677.683L644.445 645.274C644.406 639.88 643.286 623.741 646.271 619.881C650.208 618.529 682.739 618.865 688.036 619.388C689.968 622.871 692.15 628.746 694.247 632.93C697.49 632.904 702.551 632.61 705.444 633.928C703.502 635.569 695.588 635.228 692.676 635.224C690.151 631.302 688.203 626.233 686.352 621.885C682.325 621.539 650.067 621.062 647.753 622.425C646.725 627.726 646.974 637.504 646.963 643.308L646.863 672.786L646.797 708.277C646.8 714.083 646.534 722.674 647.118 728.175C649.27 730.534 654.105 729.866 657.799 730.037L662.335 730.907L662.221 731.158C661.306 731.325 659.807 731.46 659.144 731.929Z"
     id="path53" />
  <defs
     id="defs54">
    <linearGradient
       id="gradient_1"
       gradientUnits="userSpaceOnUse"
       x1="426.81766"
       y1="674.43365"
       x2="400.71866"
       y2="675.06543">
      <stop
         offset="0"
         stop-color="#131514"
         id="stop53" />
      <stop
         offset="1"
         stop-color="#494A4F"
         id="stop54" />
    </linearGradient>
  </defs>
  <path
     fill="url(#gradient_1)"
     d="M429.166 731.033C424.726 731.237 405.481 732.098 402.134 730.317C400.659 724.247 401.275 700.254 401.306 692.552L401.223 635.954C401.221 631.728 401.057 624.732 401.966 620.743C402.631 617.828 418.889 618.999 421.297 619.073L424.159 619.81L424.242 620.082L424.624 620.129C423.356 620.401 422.895 620.403 421.957 621.319C416.729 621.384 409.442 621.265 404.384 621.604C403.495 630.892 403.307 724.004 404.848 728.22C408.937 729.739 424.231 728.903 429.691 729.116L429.277 729.224C427.227 729.739 425.978 729.837 423.872 730.032C425.43 730.32 427.689 730.662 429.166 731.033Z"
     id="path54" />
  <path
     fill="#CDCDCD"
     d="M787.912 653.615C803.608 652.972 820.208 653.73 835.94 653.715C839.717 653.712 846.722 656.183 840.694 660.355C833.899 660.665 789.329 661.313 786.343 659.447C785.023 657.157 786.055 655.096 787.912 653.615Z"
     id="path55" />
  <path
     fill="#CDCDCD"
     d="M170.507 653.622C187.338 652.736 206.239 653.708 223.176 653.871C225.182 653.891 227.586 658.416 223.879 660.177C218.721 660.586 173.005 661.076 170.533 659.768C169.31 659.12 169.215 658.446 168.844 657.236C169.17 655.22 169.24 655.305 170.507 653.622Z"
     id="path56" />
  <path
     fill="#CDCDCD"
     d="M667.825 653.765C674.772 653.62 710.217 652.928 714.662 654.722C719.839 661.365 709.358 660.56 706.179 660.491C692.262 660.539 678.164 660.684 664.239 660.472C661.675 660.433 659.365 660.175 658.116 657.835C659.124 653.657 664.598 653.75 667.825 653.765Z"
     id="path57" />
  <path
     fill="#CDCDCD"
     d="M661.586 683.527C676.115 683.457 690.651 683.421 705.179 683.454C708.473 683.462 716.196 683.548 716.041 687.91C714.894 689.211 714.912 689.246 713.38 690.251C707.932 690.699 664.115 691.054 660.4 689.43C658.387 687.028 659.577 685.325 661.586 683.527Z"
     id="path58" />
  <path
     fill="#CDCDCD"
     d="M788.14 668.548C803.587 667.999 819.859 668.651 835.374 668.525C838.42 668.501 842.824 669.23 843.241 672.768C842.017 674.117 842.063 674.137 840.408 675.12C835.815 675.592 790.415 675.721 787.501 674.662C785.909 673.104 786.358 674.002 785.938 671.963C786.453 670.052 786.757 669.906 788.14 668.548Z"
     id="path59" />
  <path
     fill="#CDCDCD"
     d="M787.576 683.538C795.639 683.346 836.537 682.646 840.999 684.374C842.623 686.6 842.491 688.199 840.46 690.05C831.715 690.67 820.28 690.225 811.325 690.387C806.101 690.482 791.793 690.676 787.597 689.841C786.372 688.857 786.386 688.97 785.958 687.476C786.098 685.551 786.538 685.143 787.576 683.538Z"
     id="path60" />
  <path
     fill="#CDCDCD"
     d="M37.3593 653.555C44.2367 653.529 87.0074 652.905 90.9338 654.123C92.9421 655.895 93.1813 658.003 91.4247 659.975C81.5156 660.689 69.538 660.102 59.4045 660.322C55.0937 660.416 41.4427 660.574 37.5738 659.94C36.3447 659.071 36.4107 659.156 35.9041 657.738C35.9392 655.73 36.322 655.38 37.3593 653.555Z"
     id="path61" />
  <path
     fill="#CDCDCD"
     d="M662.524 668.664C677.721 668.124 693.515 668.786 708.766 668.545C711.05 668.509 713.088 668.563 714.863 670.037C715.695 671.845 715.632 671.758 715.428 673.772C714.356 675.174 714.522 674.759 712.435 675.39L679.675 675.512C675.74 675.53 662.607 676.355 659.913 674.093C659.3 672.42 659.327 672.546 659.644 670.787C660.771 669.222 660.797 669.326 662.524 668.664Z"
     id="path62" />
  <path
     fill="#CDCDCD"
     d="M916.606 668.564C922.841 668.395 967.162 667.681 969.903 669.298C971.762 671.719 971.686 673.354 969.213 674.981C957.188 675.323 929.765 675.941 916.559 674.585C915.722 674.5 915.056 672.977 914.794 671.988C915.162 670.157 915.445 669.973 916.606 668.564Z"
     id="path63" />
  <path
     fill="#CDCDCD"
     d="M916.041 653.606C922.915 653.399 966.834 652.455 969.333 654.483C970.683 655.579 970.862 657.175 970.906 658.763C969.957 660.219 970.614 659.659 968.625 660.179L936.285 660.3C931.558 660.324 919.754 660.746 915.691 659.717C913.076 657.552 914.088 655.855 916.041 653.606Z"
     id="path64" />
  <path
     fill="#CDCDCD"
     d="M916.363 683.511C933.443 682.866 952.031 683.348 969.084 684.008C971.432 684.099 971.378 688.027 969.873 690.104C963.593 690.416 919.291 690.884 916.772 689.82C915.585 689.318 915.307 688.605 914.856 687.483C915.047 685.402 915.181 685.316 916.363 683.511Z"
     id="path65" />
  <path
     fill="#CDCDCD"
     d="M41.5646 683.236C48.8111 683.266 88.2949 682.175 91.5216 684.77C92.3414 686.489 92.3131 686.355 92.1065 688.25C90.9261 689.782 91.249 689.31 89.0524 690.032L54.7223 690.002C50.8215 690.002 41.6498 690.34 38.2542 689.711C33.9011 686.833 36.4318 683.425 41.5646 683.236Z"
     id="path66" />
  <path
     fill="#CDCDCD"
     d="M171.088 683.536C184.744 683.242 208.821 683.059 223.153 683.885C224.191 683.945 224.891 685.467 225.265 686.341C225.155 688.373 225.165 688.262 224.017 689.966C217.601 690.216 173.412 691.297 170.864 689.541C169.941 688.904 169.328 688.133 169.302 686.977C169.271 685.601 170.263 684.518 171.088 683.536Z"
     id="path67" />
  <path
     fill="#CDCDCD"
     d="M171.106 668.539C178.265 668.299 221 667.395 224.514 669.51C226.198 671.947 226.168 673.198 223.805 675.022C216.294 675.524 204.527 675.02 196.752 675.14C191.119 675.227 174.928 675.59 170.564 674.638C169.145 673.26 169.561 674.055 169.135 672.244C169.571 670.311 169.834 670.152 171.106 668.539Z"
     id="path68" />
  <path
     fill="#CDCDCD"
     d="M37.7606 698.595C54.6999 697.964 72.9837 698.438 89.8953 698.998C92.4826 699.083 91.9208 703.075 90.5801 704.986C80.8292 705.641 68.9386 705.092 59.0827 705.303C54.7363 705.396 41.918 705.538 38.0877 704.902C36.489 703.574 37.0317 704.367 36.3235 702.485C36.535 700.337 36.5652 700.445 37.7606 698.595Z"
     id="path69" />
  <path
     fill="#CDCDCD"
     d="M37.8514 668.568C46.2643 667.877 58.526 668.506 67.1431 668.292C71.5467 668.182 86.8201 668.099 90.5618 668.889C92.9849 670.73 92.9311 672.169 91.3112 674.628C86.5507 675.309 42.186 675.248 37.7592 674.528C35.3407 672.508 36.3415 670.769 37.8514 668.568Z"
     id="path70" />
  <path
     fill="#CDCDCD"
     d="M922.167 698.74C934.935 698.756 955.276 698.328 968.559 699.326C970.216 699.451 971.534 702.367 969.824 704.793C968.013 705.718 966.742 705.492 964.625 705.501C956.399 705.513 920.144 707.009 915.529 703.865C914.535 703.188 914.518 702.981 914.275 701.872C916.1 698.435 918.832 698.836 922.167 698.74Z"
     id="path71" />
  <path
     fill="#CDCDCD"
     d="M181.784 698.745C188.891 698.737 219.895 697.464 224.001 700.287C225.168 701.089 225.284 701.299 225.488 702.6C223.923 706.456 218.124 705.538 214.625 705.501L187.63 705.585C183.305 705.607 172.227 706.807 169.716 703.403C168.542 697.217 177.369 698.811 181.784 698.745Z"
     id="path72" />
  <path
     fill="#CDCDCD"
     d="M787.574 699.056C802.66 698.632 817.875 698.94 832.975 698.854C836.575 698.833 840.588 698.25 841.922 702.029C841.733 703.993 841.655 703.923 840.535 705.446C827.114 705.969 802.123 705.675 787.906 705.12C787.011 705.085 786.569 703.816 786.221 703.056C786.289 701.025 786.499 700.874 787.574 699.056Z"
     id="path73" />
  <defs
     id="defs74">
    <linearGradient
       id="gradient_2"
       gradientUnits="userSpaceOnUse"
       x1="170.58241"
       y1="674.57129"
       x2="153.51987"
       y2="675.0528">
      <stop
         offset="0"
         stop-color="#121211"
         id="stop73" />
      <stop
         offset="1"
         stop-color="#494950"
         id="stop74" />
    </linearGradient>
  </defs>
  <path
     fill="url(#gradient_2)"
     d="M171.42 731.988C168.221 732.069 154.965 734.04 154.832 729.553C153.853 696.576 154.679 663.488 154.414 630.485C154.397 628.262 154.399 620.885 155.311 619.101C156.388 616.994 175.895 618.018 178.162 618.067C174.827 618.797 171.777 618.118 169.704 618.731C169.617 619.076 169.449 619.613 169.445 619.937C166.577 619.948 160.162 619.326 157.963 621.033C156.449 622.208 156.807 718.848 157.087 728.477C157.097 728.798 157.117 729.119 157.132 729.44C162.287 729.719 166.932 729.919 172.114 729.948L171.42 731.988Z"
     id="path74" />
  <path
     fill="#CDCDCD"
     d="M662.025 699.132C677.339 698.655 693.988 698.862 709.373 699.198C711.942 699.254 715.52 700.087 715.489 703.178C714.297 704.459 714.295 704.556 712.729 705.483C701.346 705.619 689.963 705.68 678.58 705.668C674.82 705.67 662.483 706.396 660.164 704.382C658.735 701.556 659.296 700.44 662.025 699.132Z"
     id="path75" />
  <path
     fill="#CDCDCD"
     d="M300.601 652.233C316.048 651.875 332.225 652.12 347.629 652.689C349.956 652.775 350.873 655.887 350.256 657.996C348.488 659.305 349.146 658.912 346.625 659.061L316.891 658.955C311.276 658.96 305.239 659.108 299.659 658.732C297.598 658.593 297.425 658.213 296.449 656.994C296.074 655.192 296.052 655.322 296.741 653.62C298.321 652.146 297.998 652.609 300.601 652.233Z"
     id="path76" />
  <path
     fill="#CDCDCD"
     d="M539.046 652.55C546.063 652.227 586.822 651.427 590.199 652.999C591.217 653.473 592.004 654.372 592.214 655.495C592.521 657.129 591.878 657.745 590.998 658.982C580.202 659.261 568.732 658.819 557.859 658.986C554.12 659.043 542.069 659.241 539.074 658.711C536.488 656.44 537.222 655.178 539.046 652.55Z"
     id="path77" />
  <path
     fill="#CDCDCD"
     d="M540.423 667.111C554.958 666.409 570.27 667.42 584.872 666.905C587.006 666.83 589.392 666.811 591.08 668.221C592.064 669.786 592.041 669.656 591.992 671.5C590.825 673.287 591.571 672.578 589.572 673.598C582.936 673.63 541.916 674.603 538.801 672.721C537.168 670.162 538.011 668.71 540.423 667.111Z"
     id="path78" />
  <path
     fill="#CDCDCD"
     d="M298.456 667.163C305.471 666.79 346.076 665.825 349.619 668.531C350.726 669.376 350.769 669.86 350.814 671.114C349.848 672.577 349.866 672.494 348.454 673.567C342.722 673.841 300.079 674.654 297.66 673.023C296.758 672.414 296.327 671.578 296.41 670.484C296.516 669.079 297.549 668.108 298.456 667.163Z"
     id="path79" />
  <path
     fill="#CDCDCD"
     d="M540.934 682.199C552.102 681.675 563.686 682.235 574.897 681.968C578.53 681.881 588.316 681.342 590.878 683.483C591.502 685.08 591.631 685.084 591.304 686.82C589.797 688.523 590.689 688.013 588.626 688.56C582.863 688.675 577.1 688.754 571.337 688.796C566.436 688.822 541.17 689.724 538.72 687.299C537.87 685.288 537.982 686.293 538.308 684.18C539.712 682.425 538.868 683.056 540.934 682.199Z"
     id="path80" />
  <path
     fill="#CDCDCD"
     d="M540.054 697.575C546.602 697.31 586.566 696.809 590.217 698.295C592.165 700.673 591.774 702.025 589.575 703.97C583.322 704.209 542.058 705.168 539.434 703.441C538.311 702.701 538.221 702.172 537.969 700.965C538.413 699.043 538.676 698.926 540.054 697.575Z"
     id="path81" />
  <path
     fill="#CDCDCD"
     d="M298.106 682.076C304.978 681.75 344.787 681.543 348.667 682.686C350.742 684.697 350.232 686.23 348.384 688.234C338.51 689.229 309.478 688.601 298.386 688.194C297.331 688.155 296.805 686.866 296.403 685.978C296.475 684.257 297.164 683.53 298.106 682.076Z"
     id="path82" />
  <path
     fill="#CDCDCD"
     d="M297.906 697.515C310.609 696.963 334.057 697.258 347.383 697.829C348.569 697.88 349.038 699.099 349.49 700.02C349.299 702.546 349.7 701.443 348.33 703.489C339.664 704.801 308.439 703.991 298.257 703.551C297.42 703.515 296.855 702.228 296.5 701.479C296.48 699.542 296.902 699.156 297.906 697.515Z"
     id="path83" />
  <defs
     id="defs84">
    <linearGradient
       id="gradient_3"
       gradientUnits="userSpaceOnUse"
       x1="788.97443"
       y1="675.3606"
       x2="771.46838"
       y2="675.21136">
      <stop
         offset="0"
         stop-color="#1A1B1D"
         id="stop83" />
      <stop
         offset="1"
         stop-color="#333538"
         id="stop84" />
    </linearGradient>
  </defs>
  <path
     fill="url(#gradient_3)"
     d="M805.809 731.916C801.198 732.27 775.352 732.555 772.393 731.037C769.98 727.098 771.129 699.512 771.118 693.278L771.077 648.748C771.073 643.568 770.262 623.016 772.362 619.906C775.843 617.811 781.392 618.776 785.62 619.056C783.662 619.692 781.685 620.014 779.618 619.919C781.046 619.9 784.489 620.421 785.775 620.993C782.696 621.211 777.196 621.264 774.591 622.056C772.734 624.613 773.153 719.45 773.569 729.403L787.906 729.97C791.268 734.29 803.009 729.566 805.809 731.916Z"
     id="path84" />
  <path
     fill="#CDCDCD"
     d="M419.288 664.004C434.641 663.547 450.45 663.983 465.837 663.884C468.466 663.867 470.642 663.929 471.672 666.533C471.446 668.427 471.275 668.429 470.157 669.921C458.16 670.831 433.093 669.883 419.951 669.851C418.865 669.849 418.253 668.534 417.872 667.696C417.987 665.626 418.037 665.731 419.288 664.004Z"
     id="path85" />
  <defs
     id="defs86">
    <linearGradient
       id="gradient_4"
       gradientUnits="userSpaceOnUse"
       x1="437.68436"
       y1="694.08612"
       x2="490.45105"
       y2="696.56091">
      <stop
         offset="0"
         stop-color="#0D0B09"
         id="stop85" />
      <stop
         offset="1"
         stop-color="#43454C"
         id="stop86" />
    </linearGradient>
  </defs>
  <path
     fill="url(#gradient_4)"
     d="M487.216 728.647C488.348 706.654 486.718 683.941 487.561 661.893C487.598 660.923 487.933 660.082 488.629 659.415C486.265 658.851 489.734 659.204 489.759 659.958C490.462 681.125 489.914 702.81 490.046 724.074C490.062 726.652 489.499 729.024 488.974 730.495C487.112 731.649 448.188 731.67 443.742 731.053C440.031 731.351 432.847 731.259 429.166 731.033C427.689 730.662 425.43 730.32 423.872 730.032C425.978 729.837 427.227 729.739 429.277 729.224L429.691 729.116C434.321 729.024 438.953 729.023 443.583 729.114C452.781 729.003 461.98 728.973 471.179 729.023C475.686 729.024 482.898 729.2 487.216 728.647Z"
     id="path86" />
  <path
     fill="#0D0D0E"
     d="M429.691 729.116C434.321 729.024 438.953 729.023 443.583 729.114C441.632 729.695 440.053 729.902 438.029 730.163L438.21 729.644L436.959 730.125L437.448 730.412L438.726 729.939L438.532 729.996C440.34 730.205 442.118 730.266 443.742 731.053C440.031 731.351 432.847 731.259 429.166 731.033C427.689 730.662 425.43 730.32 423.872 730.032C425.978 729.837 427.227 729.739 429.277 729.224L429.691 729.116Z"
     id="path87" />
  <path
     fill="#CDCDCD"
     d="M466.75 678.236C469.51 678.264 473.488 678.978 471.282 682.748C467.891 684.563 429.335 683.981 423.375 683.993C421.056 683.999 420.139 684.03 418.457 682.526C418.045 680.728 418.016 681.626 418.776 679.757C421.235 677.504 432.184 678.335 435.988 678.345C446.242 678.44 456.497 678.403 466.75 678.236Z"
     id="path88" />
  <path
     fill="#CDCDCD"
     d="M419.223 694.547C435.176 693.84 452.04 694.698 468.059 694.581C470.455 694.564 472.274 694.662 473.475 696.811C473.218 698.848 473.626 697.987 472.189 699.477L437.916 699.897C433.91 699.946 420.453 701.099 418.352 698.271C418.229 696.275 418.365 696.285 419.223 694.547Z"
     id="path89" />
  <defs
     id="defs90">
    <linearGradient
       id="gradient_5"
       gradientUnits="userSpaceOnUse"
       x1="726.42566"
       y1="695.68793"
       x2="736.90576"
       y2="695.8161">
      <stop
         offset="0"
         stop-color="#252427"
         id="stop89" />
      <stop
         offset="1"
         stop-color="#515157"
         id="stop90" />
    </linearGradient>
  </defs>
  <path
     fill="url(#gradient_5)"
     d="M734.969 729.448C735.472 720.005 734.137 662.973 736.308 659.769L737.227 659.586C737.437 659.8 737.647 660.014 737.857 660.228C738.241 681.256 737.907 702.273 737.966 723.326C737.993 732.916 736.56 732.423 727.379 732.276C724.579 732.231 721.644 732.073 718.836 731.957C720.456 731.226 724.102 730.74 725.903 731.167L725.395 730.913L725.574 731.35L725.907 731.143L725.035 730.706L724.852 731.249C723.144 731.005 721.265 730.778 719.621 730.317L718.705 730.05C723.195 729.997 730.783 730.069 734.969 729.448Z"
     id="path90" />
  <defs
     id="defs92">
    <linearGradient
       id="gradient_6"
       gradientUnits="userSpaceOnUse"
       x1="232.25865"
       y1="695.94769"
       x2="247.24658"
       y2="696.05988">
      <stop
         offset="0"
         stop-color="#161417"
         id="stop91" />
      <stop
         offset="1"
         stop-color="#43454D"
         id="stop92" />
    </linearGradient>
  </defs>
  <path
     fill="url(#gradient_6)"
     d="M245.374 729.443C245.811 709.441 245.26 689.305 245.375 669.29C245.392 666.233 245.109 663.873 245.635 660.808C246.772 659.853 246.143 660.001 247.488 660.093C249.111 662.821 247.775 721.286 247.694 729.802C247.655 733.837 233.559 732.061 230.591 732.063C231.511 731.463 231.161 731.856 231.649 730.893L229.393 729.956C234.608 729.906 240.219 729.985 245.374 729.443Z"
     id="path92" />
  <defs
     id="defs94">
    <linearGradient
       id="gradient_7"
       gradientUnits="userSpaceOnUse"
       x1="849.92548"
       y1="695.67792"
       x2="865.26794"
       y2="696.52631">
      <stop
         offset="0"
         stop-color="#151315"
         id="stop93" />
      <stop
         offset="1"
         stop-color="#4B4E55"
         id="stop94" />
    </linearGradient>
  </defs>
  <path
     fill="url(#gradient_7)"
     d="M861.84 729.378C862.104 720.926 861.382 662.919 862.577 660.487L863.48 659.942C864.22 660.598 864.592 661.376 864.498 662.348C863.692 670.756 866.112 727.073 863.482 731.014C859.606 733.014 847.773 732.04 842.68 731.909C843.815 731.561 845.32 731.276 846.494 731.13L847.435 731.017L844.185 729.999C848.909 729.918 857.37 729.919 861.84 729.378Z"
     id="path94" />
  <defs
     id="defs96">
    <linearGradient
       id="gradient_8"
       gradientUnits="userSpaceOnUse"
       x1="284.04822"
       y1="640.5744"
       x2="331.72382"
       y2="616.56555">
      <stop
         offset="0"
         stop-color="#292C2E"
         id="stop95" />
      <stop
         offset="1"
         stop-color="#4A4B4F"
         id="stop96" />
    </linearGradient>
  </defs>
  <path
     fill="url(#gradient_8)"
     d="M281.979 638.821C281.915 634.546 280.828 622.58 283.082 619.746C287.606 618.003 318.731 617.999 323.677 618.87C326.198 620.382 329.168 628.844 331.146 632.495L333.034 632.456C335.153 632.423 338.912 632.124 340.468 633.628C338.461 635.523 332.188 634.918 329.428 634.846C327.287 631.181 324.814 625.381 322.764 621.347C317.011 620.837 290.312 620.472 285.607 621.792C283.583 623.721 284.604 632.897 284.204 636.854L284.143 637.41L281.979 638.821Z"
     id="path96" />
  <path
     fill="#0D0D0E"
     d="M281.979 638.821L284.143 637.41C284.085 657.65 284.685 682.74 283.901 702.691C282.102 705.249 285.077 709.277 281.954 710.447C281.254 688.037 281.95 661.516 281.979 638.821Z"
     id="path97" />
  <path
     fill="#0D0D0E"
     d="M657.799 730.037L697.383 729.941C703.415 729.94 712.898 729.649 718.705 730.05L719.621 730.317C721.265 730.778 723.144 731.005 724.852 731.249L725.035 730.706L725.907 731.143L725.574 731.35L725.395 730.913L725.903 731.167C724.102 730.74 720.456 731.226 718.836 731.957C713.879 732.369 703.674 732.058 698.397 732.055C685.313 732.091 672.228 732.049 659.144 731.929C659.807 731.46 661.306 731.325 662.221 731.158L662.335 730.907L657.799 730.037Z"
     id="path98" />
  <path
     fill="#0D0D0E"
     d="M172.114 729.948L229.393 729.956L231.649 730.893C231.161 731.856 231.511 731.463 230.591 732.063L171.42 731.988L172.114 729.948Z"
     id="path99" />
  <path
     fill="#0D0D0E"
     d="M538.239 729.042C555.445 729.021 573.145 728.791 590.313 729.105C592.371 729.678 595.955 729.439 596.989 730.256L596.675 731.005L536.116 731.022C537.369 730.573 537.418 730.173 538.239 729.042Z"
     id="path100" />
  <defs
     id="defs101">
    <linearGradient
       id="gradient_9"
       gradientUnits="userSpaceOnUse"
       x1="434.95786"
       y1="631.50867"
       x2="447.28519"
       y2="621.79987">
      <stop
         offset="0"
         stop-color="#222729"
         id="stop100" />
      <stop
         offset="1"
         stop-color="#5A595F"
         id="stop101" />
    </linearGradient>
  </defs>
  <path
     fill="url(#gradient_9)"
     d="M421.297 619.073C428.509 618.928 435.722 618.869 442.936 618.898C444.73 623.245 446.727 628.525 449.02 632.543C451.968 632.525 454.605 632.24 457.301 633.298L457.421 633.985C453.989 635.448 450.941 635.012 447.16 634.941C444.515 630.417 443.095 626.15 440.907 621.566L421.957 621.319C422.895 620.403 423.356 620.401 424.624 620.129L424.242 620.082L424.159 619.81L421.297 619.073Z"
     id="path101" />
  <path
     fill="#0D0D0E"
     d="M787.906 729.97L825.87 729.887C830.029 729.881 840.446 729.62 844.185 729.999L847.435 731.017L846.494 731.13C845.32 731.276 843.815 731.561 842.68 731.909C831.538 732.395 817.095 732.039 805.809 731.916C803.009 729.566 791.268 734.29 787.906 729.97Z"
     id="path102" />
  <path
     fill="#0D0D0E"
     d="M612.068 706.72C611.874 700.022 611 663.102 613.408 659.072C614.58 663.53 614.074 705.702 613.954 712.63L613.202 712.559C612.345 711.328 612.387 708.678 612.068 706.72Z"
     id="path103" />
  <path
     fill="#0D0D0E"
     d="M370 707.832C369.991 699.643 369.124 665.733 371.103 659.867L371.468 659.667C373.162 666.631 372.209 702.581 371.975 711.56L371.311 711.4C370.193 710.351 370.402 709.672 370 707.832Z"
     id="path104" />
  <path
     fill="#0D0D0E"
     d="M305.693 729.105C315.174 728.952 335.518 728.529 344.813 729.103C348.371 730.214 351.765 729.149 353.448 730.111C352.737 730.452 352.068 730.777 351.345 731.092C334.715 731.583 315.2 731.042 298.351 730.998L298.168 730.142C299.708 729.194 302.518 730.07 305.693 729.105Z"
     id="path105" />
  <path
     fill="#3F4044"
     d="M805.918 618.909C808.989 618.876 812.286 618.752 815.327 619.002C817.942 623.603 819.53 628.736 822.056 632.892C825.367 632.877 829.038 632.621 832.161 633.563L832.656 634.128C829.355 635.616 823.973 635.135 820.302 635.034C817.289 630.253 815.985 625.677 813.476 621.524C809.082 621.451 802.58 621.534 798.367 621.079C801.347 620.635 804.832 621.537 806.649 619.896L805.918 618.909Z"
     id="path106" />
  <defs
     id="defs107">
    <linearGradient
       id="gradient_10"
       gradientUnits="userSpaceOnUse"
       x1="361.57364"
       y1="720.01062"
       x2="371.65308"
       y2="728.05524">
      <stop
         offset="0"
         stop-color="#1D1A1B"
         id="stop106" />
      <stop
         offset="1"
         stop-color="#454950"
         id="stop107" />
    </linearGradient>
  </defs>
  <path
     fill="url(#gradient_10)"
     d="M370 707.832C370.402 709.672 370.193 710.351 371.311 711.4L371.975 711.56C372.674 735.724 374.354 731.283 351.345 731.092C352.068 730.777 352.737 730.452 353.448 730.111C351.765 729.149 348.371 730.214 344.813 729.103C353.002 728.762 361.209 729.312 369.559 728.679C370.142 722.468 369.977 714.252 370 707.832Z"
     id="path107" />
  <defs
     id="defs109">
    <linearGradient
       id="gradient_11"
       gradientUnits="userSpaceOnUse"
       x1="290.60687"
       y1="719.72076"
       x2="281.14282"
       y2="727.12671">
      <stop
         offset="0"
         stop-color="#171617"
         id="stop108" />
      <stop
         offset="1"
         stop-color="#434447"
         id="stop109" />
    </linearGradient>
  </defs>
  <path
     fill="url(#gradient_11)"
     d="M281.954 710.447C285.077 709.277 282.102 705.249 283.901 702.691C284.102 710.404 284.014 718.03 283.909 725.727C283.899 726.455 284.756 727.363 285.24 727.878C289.4 729.88 300.4 728.873 305.693 729.105C302.518 730.07 299.708 729.194 298.168 730.142L298.351 730.998C276.908 731.247 281.133 731.479 281.954 710.447Z"
     id="path109" />
  <defs
     id="defs111">
    <linearGradient
       id="gradient_12"
       gradientUnits="userSpaceOnUse"
       x1="604.17963"
       y1="720.58899"
       x2="613.33411"
       y2="727.96478">
      <stop
         offset="0"
         stop-color="#161415"
         id="stop110" />
      <stop
         offset="1"
         stop-color="#393E46"
         id="stop111" />
    </linearGradient>
  </defs>
  <path
     fill="url(#gradient_12)"
     d="M612.068 706.72C612.387 708.678 612.345 711.328 613.202 712.559L613.954 712.63C614.57 733.581 616.986 731.195 596.675 731.005L596.989 730.256C595.955 729.439 592.371 729.678 590.313 729.105C597.388 728.887 604.277 729.228 611.413 728.638C612.229 722.799 612.035 712.921 612.068 706.72Z"
     id="path111" />
  <path
     fill="#3F4044"
     d="M192.262 618.061C194.562 618.025 197.103 617.926 199.377 618.056C201.65 622.855 203.355 628.359 205.891 632.663C209.934 632.761 213.376 632.583 217.237 633.776L217.091 634.252C212.497 635.19 209.296 634.967 204.655 634.922L204.254 634.308C201.238 629.603 199.792 622.506 196.488 620.283C195.421 620.149 194.407 620.013 193.334 619.928C194.426 619.544 195.735 619.277 196.876 619.001C195.466 618.84 194.619 618.741 193.238 618.346L192.262 618.061Z"
     id="path112" />
  <defs
     id="defs113">
    <linearGradient
       id="gradient_13"
       gradientUnits="userSpaceOnUse"
       x1="961.22339"
       y1="626.48413"
       x2="947.03864"
       y2="630.07611">
      <stop
         offset="0"
         stop-color="#3A3739"
         id="stop112" />
      <stop
         offset="1"
         stop-color="#4C4F51"
         id="stop113" />
    </linearGradient>
  </defs>
  <path
     fill="url(#gradient_13)"
     d="M939.393 618.004C940.872 617.889 943.43 617.511 944.434 618.506C948.559 622.596 947.854 627.076 951.48 632.939C954.134 632.939 961.801 632.608 963.459 634.131C960.064 635.427 953.622 635.073 949.856 635.002C946.428 629.448 945.506 626.697 943.433 620.416L944.012 620.785C944.513 621.786 944.531 621.864 945.246 622.713L945.808 622.479C945.606 621.072 945.552 621.061 944.964 619.745C942.948 618.319 942.337 618.949 940.186 618.264L939.393 618.004Z"
     id="path113" />
  <defs
     id="defs115">
    <linearGradient
       id="gradient_14"
       gradientUnits="userSpaceOnUse"
       x1="84.5354"
       y1="631.46906"
       x2="66.13752"
       y2="627.57715">
      <stop
         offset="0"
         stop-color="#393635"
         id="stop114" />
      <stop
         offset="1"
         stop-color="#535557"
         id="stop115" />
    </linearGradient>
  </defs>
  <path
     fill="url(#gradient_14)"
     d="M67.3461 620.365C69.623 624.481 70.8913 628.767 73.1819 632.661C76.4828 632.721 80.5999 632.579 83.6626 633.554L84.0897 634.11C80.9499 635.447 75.3063 635.062 71.8202 634.982C69.4437 631.027 67.6149 627.858 66.3166 623.372C67.2238 623.168 66.9083 623.246 67.7175 622.644L67.3461 620.365Z"
     id="path115" />
  <path
     fill="#0D0D0E"
     d="M785.62 619.056C792.347 618.939 799.275 619.082 805.918 618.909L806.649 619.896C804.832 621.537 801.347 620.635 798.367 621.079C795.392 621.282 788.63 621.168 785.775 620.993C784.489 620.421 781.046 619.9 779.618 619.919C781.685 620.014 783.662 619.692 785.62 619.056Z"
     id="path116" />
  <path
     fill="#0D0D0E"
     d="M178.162 618.067C182.996 617.906 187.442 617.973 192.262 618.061L193.238 618.346C194.619 618.741 195.466 618.84 196.876 619.001C195.735 619.277 194.426 619.544 193.334 619.928C185.372 620.07 177.407 620.073 169.445 619.937C169.449 619.613 169.617 619.076 169.704 618.731C171.777 618.118 174.827 618.797 178.162 618.067Z"
     id="path117" />
  <path
     style="fill:#000000;fill-opacity:0;stroke-width:0.881946"
     d="m 410.35117,132.10363 c -4.28106,-0.65108 -4.4766,-2.77733 -4.8717,-52.97491 l -0.36292,-46.107557 83.32035,0.246385 c 80.51146,0.238079 83.38292,0.303024 85.17648,1.926481 1.64799,1.491695 1.85613,2.656084 1.85613,10.383665 0,8.611431 -3.90294,72.227646 -4.92828,80.328846 -0.93299,7.3715 5.46418,6.84306 -81.03717,6.69413 -42.21443,-0.0727 -77.83323,-0.29635 -79.15289,-0.49704 z M 466.7958,92.098321 c 4.63124,-1.991209 7.2014,-6.88157 7.2306,-13.757981 0.0155,-3.652525 -0.44136,-5.110085 -2.29055,-7.307728 -3.61285,-4.29363 -6.94809,-5.550264 -15.98564,-6.022986 l -8.16281,-0.426967 v 14.619035 14.619035 l 3.30729,0.345219 c 5.24038,0.546996 11.80534,-0.306649 15.90111,-2.067627 z m 24.87914,1.392951 c 3.66079,-1.893068 5.30141,-4.698262 5.30141,-9.064529 0,-5.092017 -2.09704,-8.881099 -5.76289,-10.41279 -3.84245,-1.605477 -5.19518,-1.576889 -8.91526,0.188404 -3.68751,1.749838 -5.6066,5.18563 -5.6066,10.037632 0,4.555903 1.12298,6.676333 4.6865,8.84917 3.3678,2.05349 6.84112,2.189131 10.29684,0.402113 z m 24.34194,-0.511322 c 2.21687,-1.839833 1.33899,-2.487468 -3.73717,-2.756999 -4.17135,-0.221488 -5.25845,-0.636767 -6.68522,-2.553803 -1.47907,-1.987318 -1.5755,-2.765878 -0.731,-5.902132 1.03728,-3.852152 1.27428,-3.955594 11.02129,-4.810395 2.47284,-0.216865 2.5208,-0.298554 1.03944,-1.770758 -2.18306,-2.16957 -8.81159,-2.057241 -11.98596,0.203118 -5.4227,3.861299 -6.64569,11.743365 -2.4358,15.698363 3.89663,3.660692 10.30298,4.55786 13.51442,1.892606 z m 15.73967,0.586797 c 5.61122,-2.344517 4.91833,-6.087247 -2.0632,-11.144636 -2.05052,-1.485393 -3.57201,-3.175506 -3.38108,-3.755806 0.19092,-0.5803 2.20127,-1.176055 4.46744,-1.3239 4.36382,-0.284697 5.22737,-1.281511 2.41439,-2.786971 -2.9688,-1.588856 -8.13656,-1.08791 -10.364,1.004651 -3.45924,3.249792 -2.68281,5.518465 3.27281,9.562848 2.92272,1.984779 5.08211,3.983945 4.79865,4.44259 -0.28345,0.458647 -2.17868,0.861796 -4.2116,0.89589 -2.03292,0.03409 -4.42922,0.35044 -5.32512,0.702993 -2.75615,1.084596 0.49996,2.909915 6.28745,3.524642 0.62191,0.06606 2.46883,-0.438978 4.10426,-1.122301 z"
     id="path1"
     transform="translate(18,153)" />
  <path
     style="fill:#000000;fill-opacity:0;stroke-width:0.881946"
     d="m 410.35117,132.10363 c -4.28106,-0.65108 -4.4766,-2.77733 -4.8717,-52.97491 l -0.36292,-46.107557 83.32035,0.246385 c 80.51146,0.238079 83.38292,0.303024 85.17648,1.926481 1.64799,1.491695 1.85613,2.656084 1.85613,10.383665 0,8.611431 -3.90294,72.227646 -4.92828,80.328846 -0.93299,7.3715 5.46418,6.84306 -81.03717,6.69413 -42.21443,-0.0727 -77.83323,-0.29635 -79.15289,-0.49704 z M 466.7958,92.098321 c 4.63124,-1.991209 7.2014,-6.88157 7.2306,-13.757981 0.0155,-3.652525 -0.44136,-5.110085 -2.29055,-7.307728 -3.61285,-4.29363 -6.94809,-5.550264 -15.98564,-6.022986 l -8.16281,-0.426967 v 14.619035 14.619035 l 3.30729,0.345219 c 5.24038,0.546996 11.80534,-0.306649 15.90111,-2.067627 z m 24.87914,1.392951 c 3.66079,-1.893068 5.30141,-4.698262 5.30141,-9.064529 0,-5.092017 -2.09704,-8.881099 -5.76289,-10.41279 -3.84245,-1.605477 -5.19518,-1.576889 -8.91526,0.188404 -3.68751,1.749838 -5.6066,5.18563 -5.6066,10.037632 0,4.555903 1.12298,6.676333 4.6865,8.84917 3.3678,2.05349 6.84112,2.189131 10.29684,0.402113 z m 24.34194,-0.511322 c 2.21687,-1.839833 1.33899,-2.487468 -3.73717,-2.756999 -4.17135,-0.221488 -5.25845,-0.636767 -6.68522,-2.553803 -1.47907,-1.987318 -1.5755,-2.765878 -0.731,-5.902132 1.03728,-3.852152 1.27428,-3.955594 11.02129,-4.810395 2.47284,-0.216865 2.5208,-0.298554 1.03944,-1.770758 -2.18306,-2.16957 -8.81159,-2.057241 -11.98596,0.203118 -5.4227,3.861299 -6.64569,11.743365 -2.4358,15.698363 3.89663,3.660692 10.30298,4.55786 13.51442,1.892606 z m 15.73967,0.586797 c 5.61122,-2.344517 4.91833,-6.087247 -2.0632,-11.144636 -2.05052,-1.485393 -3.57201,-3.175506 -3.38108,-3.755806 0.19092,-0.5803 2.20127,-1.176055 4.46744,-1.3239 4.36382,-0.284697 5.22737,-1.281511 2.41439,-2.786971 -2.9688,-1.588856 -8.13656,-1.08791 -10.364,1.004651 -3.45924,3.249792 -2.68281,5.518465 3.27281,9.562848 2.92272,1.984779 5.08211,3.983945 4.79865,4.44259 -0.28345,0.458647 -2.17868,0.861796 -4.2116,0.89589 -2.03292,0.03409 -4.42922,0.35044 -5.32512,0.702993 -2.75615,1.084596 0.49996,2.909915 6.28745,3.524642 0.62191,0.06606 2.46883,-0.438978 4.10426,-1.122301 z"
     id="path91"
     transform="translate(18,153)" />
  <path
     style="fill:#000000;fill-opacity:0;stroke-width:0.881946"
     d="m 410.35117,132.10363 c -4.28106,-0.65108 -4.4766,-2.77733 -4.8717,-52.97491 l -0.36292,-46.107557 83.32035,0.246385 c 80.51146,0.238079 83.38292,0.303024 85.17648,1.926481 1.64799,1.491695 1.85613,2.656084 1.85613,10.383665 0,8.611431 -3.90294,72.227646 -4.92828,80.328846 -0.93299,7.3715 5.46418,6.84306 -81.03717,6.69413 -42.21443,-0.0727 -77.83323,-0.29635 -79.15289,-0.49704 z M 466.7958,92.098321 c 4.63124,-1.991209 7.2014,-6.88157 7.2306,-13.757981 0.0155,-3.652525 -0.44136,-5.110085 -2.29055,-7.307728 -3.61285,-4.29363 -6.94809,-5.550264 -15.98564,-6.022986 l -8.16281,-0.426967 v 14.619035 14.619035 l 3.30729,0.345219 c 5.24038,0.546996 11.80534,-0.306649 15.90111,-2.067627 z m 24.87914,1.392951 c 3.66079,-1.893068 5.30141,-4.698262 5.30141,-9.064529 0,-5.092017 -2.09704,-8.881099 -5.76289,-10.41279 -3.84245,-1.605477 -5.19518,-1.576889 -8.91526,0.188404 -3.68751,1.749838 -5.6066,5.18563 -5.6066,10.037632 0,4.555903 1.12298,6.676333 4.6865,8.84917 3.3678,2.05349 6.84112,2.189131 10.29684,0.402113 z m 24.34194,-0.511322 c 2.21687,-1.839833 1.33899,-2.487468 -3.73717,-2.756999 -4.17135,-0.221488 -5.25845,-0.636767 -6.68522,-2.553803 -1.47907,-1.987318 -1.5755,-2.765878 -0.731,-5.902132 1.03728,-3.852152 1.27428,-3.955594 11.02129,-4.810395 2.47284,-0.216865 2.5208,-0.298554 1.03944,-1.770758 -2.18306,-2.16957 -8.81159,-2.057241 -11.98596,0.203118 -5.4227,3.861299 -6.64569,11.743365 -2.4358,15.698363 3.89663,3.660692 10.30298,4.55786 13.51442,1.892606 z m 15.73967,0.586797 c 5.61122,-2.344517 4.91833,-6.087247 -2.0632,-11.144636 -2.05052,-1.485393 -3.57201,-3.175506 -3.38108,-3.755806 0.19092,-0.5803 2.20127,-1.176055 4.46744,-1.3239 4.36382,-0.284697 5.22737,-1.281511 2.41439,-2.786971 -2.9688,-1.588856 -8.13656,-1.08791 -10.364,1.004651 -3.45924,3.249792 -2.68281,5.518465 3.27281,9.562848 2.92272,1.984779 5.08211,3.983945 4.79865,4.44259 -0.28345,0.458647 -2.17868,0.861796 -4.2116,0.89589 -2.03292,0.03409 -4.42922,0.35044 -5.32512,0.702993 -2.75615,1.084596 0.49996,2.909915 6.28745,3.524642 0.62191,0.06606 2.46883,-0.438978 4.10426,-1.122301 z"
     id="path93"
     transform="translate(18,153)" />
  <path
     style="fill:#000000;fill-opacity:0;stroke-width:0.881946"
     d="m 410.35117,132.10363 c -4.28106,-0.65108 -4.4766,-2.77733 -4.8717,-52.97491 l -0.36292,-46.107557 83.32035,0.246385 c 80.51146,0.238079 83.38292,0.303024 85.17648,1.926481 1.64799,1.491695 1.85613,2.656084 1.85613,10.383665 0,8.611431 -3.90294,72.227646 -4.92828,80.328846 -0.93299,7.3715 5.46418,6.84306 -81.03717,6.69413 -42.21443,-0.0727 -77.83323,-0.29635 -79.15289,-0.49704 z M 466.7958,92.098321 c 4.63124,-1.991209 7.2014,-6.88157 7.2306,-13.757981 0.0155,-3.652525 -0.44136,-5.110085 -2.29055,-7.307728 -3.61285,-4.29363 -6.94809,-5.550264 -15.98564,-6.022986 l -8.16281,-0.426967 v 14.619035 14.619035 l 3.30729,0.345219 c 5.24038,0.546996 11.80534,-0.306649 15.90111,-2.067627 z m 24.87914,1.392951 c 3.66079,-1.893068 5.30141,-4.698262 5.30141,-9.064529 0,-5.092017 -2.09704,-8.881099 -5.76289,-10.41279 -3.84245,-1.605477 -5.19518,-1.576889 -8.91526,0.188404 -3.68751,1.749838 -5.6066,5.18563 -5.6066,10.037632 0,4.555903 1.12298,6.676333 4.6865,8.84917 3.3678,2.05349 6.84112,2.189131 10.29684,0.402113 z m 24.34194,-0.511322 c 2.21687,-1.839833 1.33899,-2.487468 -3.73717,-2.756999 -4.17135,-0.221488 -5.25845,-0.636767 -6.68522,-2.553803 -1.47907,-1.987318 -1.5755,-2.765878 -0.731,-5.902132 1.03728,-3.852152 1.27428,-3.955594 11.02129,-4.810395 2.47284,-0.216865 2.5208,-0.298554 1.03944,-1.770758 -2.18306,-2.16957 -8.81159,-2.057241 -11.98596,0.203118 -5.4227,3.861299 -6.64569,11.743365 -2.4358,15.698363 3.89663,3.660692 10.30298,4.55786 13.51442,1.892606 z m 15.73967,0.586797 c 5.61122,-2.344517 4.91833,-6.087247 -2.0632,-11.144636 -2.05052,-1.485393 -3.57201,-3.175506 -3.38108,-3.755806 0.19092,-0.5803 2.20127,-1.176055 4.46744,-1.3239 4.36382,-0.284697 5.22737,-1.281511 2.41439,-2.786971 -2.9688,-1.588856 -8.13656,-1.08791 -10.364,1.004651 -3.45924,3.249792 -2.68281,5.518465 3.27281,9.562848 2.92272,1.984779 5.08211,3.983945 4.79865,4.44259 -0.28345,0.458647 -2.17868,0.861796 -4.2116,0.89589 -2.03292,0.03409 -4.42922,0.35044 -5.32512,0.702993 -2.75615,1.084596 0.49996,2.909915 6.28745,3.524642 0.62191,0.06606 2.46883,-0.438978 4.10426,-1.122301 z"
     id="path95"
     transform="translate(18,153)" />
  <path
     style="fill:#000000;fill-opacity:0;stroke-width:0.881946"
     d="m 410.35117,132.10363 c -4.28106,-0.65108 -4.4766,-2.77733 -4.8717,-52.97491 l -0.36292,-46.107557 83.32035,0.246385 c 80.51146,0.238079 83.38292,0.303024 85.17648,1.926481 1.64799,1.491695 1.85613,2.656084 1.85613,10.383665 0,8.611431 -3.90294,72.227646 -4.92828,80.328846 -0.93299,7.3715 5.46418,6.84306 -81.03717,6.69413 -42.21443,-0.0727 -77.83323,-0.29635 -79.15289,-0.49704 z M 466.7958,92.098321 c 4.63124,-1.991209 7.2014,-6.88157 7.2306,-13.757981 0.0155,-3.652525 -0.44136,-5.110085 -2.29055,-7.307728 -3.61285,-4.29363 -6.94809,-5.550264 -15.98564,-6.022986 l -8.16281,-0.426967 v 14.619035 14.619035 l 3.30729,0.345219 c 5.24038,0.546996 11.80534,-0.306649 15.90111,-2.067627 z m 24.87914,1.392951 c 3.66079,-1.893068 5.30141,-4.698262 5.30141,-9.064529 0,-5.092017 -2.09704,-8.881099 -5.76289,-10.41279 -3.84245,-1.605477 -5.19518,-1.576889 -8.91526,0.188404 -3.68751,1.749838 -5.6066,5.18563 -5.6066,10.037632 0,4.555903 1.12298,6.676333 4.6865,8.84917 3.3678,2.05349 6.84112,2.189131 10.29684,0.402113 z m 24.34194,-0.511322 c 2.21687,-1.839833 1.33899,-2.487468 -3.73717,-2.756999 -4.17135,-0.221488 -5.25845,-0.636767 -6.68522,-2.553803 -1.47907,-1.987318 -1.5755,-2.765878 -0.731,-5.902132 1.03728,-3.852152 1.27428,-3.955594 11.02129,-4.810395 2.47284,-0.216865 2.5208,-0.298554 1.03944,-1.770758 -2.18306,-2.16957 -8.81159,-2.057241 -11.98596,0.203118 -5.4227,3.861299 -6.64569,11.743365 -2.4358,15.698363 3.89663,3.660692 10.30298,4.55786 13.51442,1.892606 z m 15.73967,0.586797 c 5.61122,-2.344517 4.91833,-6.087247 -2.0632,-11.144636 -2.05052,-1.485393 -3.57201,-3.175506 -3.38108,-3.755806 0.19092,-0.5803 2.20127,-1.176055 4.46744,-1.3239 4.36382,-0.284697 5.22737,-1.281511 2.41439,-2.786971 -2.9688,-1.588856 -8.13656,-1.08791 -10.364,1.004651 -3.45924,3.249792 -2.68281,5.518465 3.27281,9.562848 2.92272,1.984779 5.08211,3.983945 4.79865,4.44259 -0.28345,0.458647 -2.17868,0.861796 -4.2116,0.89589 -2.03292,0.03409 -4.42922,0.35044 -5.32512,0.702993 -2.75615,1.084596 0.49996,2.909915 6.28745,3.524642 0.62191,0.06606 2.46883,-0.438978 4.10426,-1.122301 z"
     id="path108"
     transform="translate(18,153)" />
  <path
     style="fill:#000000;fill-opacity:0;stroke-width:0.881946"
     d="m 410.35117,132.10363 c -4.28106,-0.65108 -4.4766,-2.77733 -4.8717,-52.97491 l -0.36292,-46.107557 83.32035,0.246385 c 80.51146,0.238079 83.38292,0.303024 85.17648,1.926481 1.64799,1.491695 1.85613,2.656084 1.85613,10.383665 0,8.611431 -3.90294,72.227646 -4.92828,80.328846 -0.93299,7.3715 5.46418,6.84306 -81.03717,6.69413 -42.21443,-0.0727 -77.83323,-0.29635 -79.15289,-0.49704 z M 466.7958,92.098321 c 4.63124,-1.991209 7.2014,-6.88157 7.2306,-13.757981 0.0155,-3.652525 -0.44136,-5.110085 -2.29055,-7.307728 -3.61285,-4.29363 -6.94809,-5.550264 -15.98564,-6.022986 l -8.16281,-0.426967 v 14.619035 14.619035 l 3.30729,0.345219 c 5.24038,0.546996 11.80534,-0.306649 15.90111,-2.067627 z m 24.87914,1.392951 c 3.66079,-1.893068 5.30141,-4.698262 5.30141,-9.064529 0,-5.092017 -2.09704,-8.881099 -5.76289,-10.41279 -3.84245,-1.605477 -5.19518,-1.576889 -8.91526,0.188404 -3.68751,1.749838 -5.6066,5.18563 -5.6066,10.037632 0,4.555903 1.12298,6.676333 4.6865,8.84917 3.3678,2.05349 6.84112,2.189131 10.29684,0.402113 z m 24.34194,-0.511322 c 2.21687,-1.839833 1.33899,-2.487468 -3.73717,-2.756999 -4.17135,-0.221488 -5.25845,-0.636767 -6.68522,-2.553803 -1.47907,-1.987318 -1.5755,-2.765878 -0.731,-5.902132 1.03728,-3.852152 1.27428,-3.955594 11.02129,-4.810395 2.47284,-0.216865 2.5208,-0.298554 1.03944,-1.770758 -2.18306,-2.16957 -8.81159,-2.057241 -11.98596,0.203118 -5.4227,3.861299 -6.64569,11.743365 -2.4358,15.698363 3.89663,3.660692 10.30298,4.55786 13.51442,1.892606 z m 15.73967,0.586797 c 5.61122,-2.344517 4.91833,-6.087247 -2.0632,-11.144636 -2.05052,-1.485393 -3.57201,-3.175506 -3.38108,-3.755806 0.19092,-0.5803 2.20127,-1.176055 4.46744,-1.3239 4.36382,-0.284697 5.22737,-1.281511 2.41439,-2.786971 -2.9688,-1.588856 -8.13656,-1.08791 -10.364,1.004651 -3.45924,3.249792 -2.68281,5.518465 3.27281,9.562848 2.92272,1.984779 5.08211,3.983945 4.79865,4.44259 -0.28345,0.458647 -2.17868,0.861796 -4.2116,0.89589 -2.03292,0.03409 -4.42922,0.35044 -5.32512,0.702993 -2.75615,1.084596 0.49996,2.909915 6.28745,3.524642 0.62191,0.06606 2.46883,-0.438978 4.10426,-1.122301 z"
     id="path110"
     transform="translate(18,153)" />
  <path
     style="fill:#000000;fill-opacity:0;stroke-width:0.881946"
     d="m 410.35117,132.10363 c -4.28106,-0.65108 -4.4766,-2.77733 -4.8717,-52.97491 l -0.36292,-46.107557 83.32035,0.246385 c 80.51146,0.238079 83.38292,0.303024 85.17648,1.926481 1.64799,1.491695 1.85613,2.656084 1.85613,10.383665 0,8.611431 -3.90294,72.227646 -4.92828,80.328846 -0.93299,7.3715 5.46418,6.84306 -81.03717,6.69413 -42.21443,-0.0727 -77.83323,-0.29635 -79.15289,-0.49704 z M 466.7958,92.098321 c 4.63124,-1.991209 7.2014,-6.88157 7.2306,-13.757981 0.0155,-3.652525 -0.44136,-5.110085 -2.29055,-7.307728 -3.61285,-4.29363 -6.94809,-5.550264 -15.98564,-6.022986 l -8.16281,-0.426967 v 14.619035 14.619035 l 3.30729,0.345219 c 5.24038,0.546996 11.80534,-0.306649 15.90111,-2.067627 z m 24.87914,1.392951 c 3.66079,-1.893068 5.30141,-4.698262 5.30141,-9.064529 0,-5.092017 -2.09704,-8.881099 -5.76289,-10.41279 -3.84245,-1.605477 -5.19518,-1.576889 -8.91526,0.188404 -3.68751,1.749838 -5.6066,5.18563 -5.6066,10.037632 0,4.555903 1.12298,6.676333 4.6865,8.84917 3.3678,2.05349 6.84112,2.189131 10.29684,0.402113 z m 24.34194,-0.511322 c 2.21687,-1.839833 1.33899,-2.487468 -3.73717,-2.756999 -4.17135,-0.221488 -5.25845,-0.636767 -6.68522,-2.553803 -1.47907,-1.987318 -1.5755,-2.765878 -0.731,-5.902132 1.03728,-3.852152 1.27428,-3.955594 11.02129,-4.810395 2.47284,-0.216865 2.5208,-0.298554 1.03944,-1.770758 -2.18306,-2.16957 -8.81159,-2.057241 -11.98596,0.203118 -5.4227,3.861299 -6.64569,11.743365 -2.4358,15.698363 3.89663,3.660692 10.30298,4.55786 13.51442,1.892606 z m 15.73967,0.586797 c 5.61122,-2.344517 4.91833,-6.087247 -2.0632,-11.144636 -2.05052,-1.485393 -3.57201,-3.175506 -3.38108,-3.755806 0.19092,-0.5803 2.20127,-1.176055 4.46744,-1.3239 4.36382,-0.284697 5.22737,-1.281511 2.41439,-2.786971 -2.9688,-1.588856 -8.13656,-1.08791 -10.364,1.004651 -3.45924,3.249792 -2.68281,5.518465 3.27281,9.562848 2.92272,1.984779 5.08211,3.983945 4.79865,4.44259 -0.28345,0.458647 -2.17868,0.861796 -4.2116,0.89589 -2.03292,0.03409 -4.42922,0.35044 -5.32512,0.702993 -2.75615,1.084596 0.49996,2.909915 6.28745,3.524642 0.62191,0.06606 2.46883,-0.438978 4.10426,-1.122301 z"
     id="path114"
     transform="translate(18,153)" />
</svg>
