<?xml version="1.0" encoding="utf-8" ?><svg xmlns="http://www.w3.org/2000/svg" xmlns:xlink="http://www.w3.org/1999/xlink" width="1024" height="617" viewBox="20.54 151.95 991.76 597.23"><path fill="#1a6f9c" d="M428.772 294.22C424.891 276.103 426.756 247.176 426.379 228.502C426.19 219.08 424.49 174.061 427.526 168.259C435.054 161.899 465.219 164.52 475.673 164.3C493.304 163.93 497.423 178.386 502.522 192.443C520.408 192.236 538.296 192.197 556.182 192.328C564.081 192.367 593.019 191.697 598.812 195.242C603.602 201.438 598.873 235.953 598.44 245.611C597.976 255.953 597.009 268.35 595.958 278.838C594.053 294.973 593.042 296.76 576.467 295.965C574.339 296.084 570.922 295.989 568.704 295.99C563.661 296.541 554.389 296.014 549.003 295.955C537.828 295.88 526.652 295.885 515.477 295.97C513.6 295.972 511.724 296.022 509.85 296.119C495.778 295.622 480.864 296.254 466.608 295.92C460.44 296.077 454.269 296.094 448.1 295.972C440.131 296.154 436.517 295.723 428.772 294.22Z"/><path fill="#3A3939" d="M428.772 294.22C424.891 276.103 426.756 247.176 426.379 228.502C426.19 219.08 424.49 174.061 427.526 168.259C435.054 161.899 465.219 164.52 475.673 164.3C493.304 163.93 497.423 178.386 502.522 192.443C520.408 192.236 538.296 192.197 556.182 192.328C564.081 192.367 593.019 191.697 598.812 195.242C603.602 201.438 598.873 235.953 598.44 245.611C597.976 255.953 597.009 268.35 595.958 278.838C594.053 294.973 593.042 296.76 576.467 295.965C578.886 294.267 587.997 294.81 589.345 292.472C593.813 284.722 593.58 262.794 594.183 254.842C595.445 238.219 596.491 223.881 596.682 207.491C596.758 200.98 595.617 195.253 588.18 195.015C561.699 193.842 535.179 195.011 508.666 195.123L453.863 194.935C446.742 194.969 436.89 194.776 429.919 195.28C429.803 224.89 427.772 259.307 432.065 289.004C432.9 294.782 444.387 293.577 448.1 295.972C440.131 296.154 436.517 295.723 428.772 294.22Z"/><path fill="#1a6f9c" d="M442.73 168.706C450.826 168.245 476.666 168.125 484.163 168.894C489.397 174.426 494.756 185.89 498.187 192.942L485.75 192.916C466.96 192.983 448.664 192.467 429.951 192.391C429.956 189.241 429.964 185.746 429.856 182.629C429.464 171.379 432.234 169.397 442.73 168.706Z"/><path fill="#010101" d="M466.608 295.92C468.323 294.912 473.301 294.684 475.366 294.675C505.672 294.542 536.15 293.859 566.424 294.86C567.097 294.883 568.17 295.62 568.704 295.99C563.661 296.541 554.389 296.014 549.003 295.955C537.828 295.88 526.652 295.885 515.477 295.97C513.6 295.972 511.724 296.022 509.85 296.119C495.778 295.622 480.864 296.254 466.608 295.92Z"/><path fill="#F0EEE9" d="M471.805 227.576C474.3 227.492 476.798 227.475 479.294 227.524C487.87 227.779 491.339 230.31 496.85 236.104C497.165 243.624 497.426 247.294 491.672 252.74C485.003 256.527 478.536 256.066 471.127 256.125C471.028 249.332 470.406 236.044 470.89 228.714C471.195 228.335 471.5 227.955 471.805 227.576Z"/><path fill="#1a6f9c" d="M474.541 231.057C487.55 230.86 499.855 235.955 489.312 250.107C484.53 253.494 480.612 253.227 474.913 253.478C474.905 247.12 475.253 236.955 474.541 231.057Z"/><path fill="#F0EEE9" d="M508.853 235.686C514.423 235.232 519.323 239.343 519.844 244.907C520.365 250.472 516.314 255.421 510.757 256.009C507.101 256.396 503.52 254.788 501.381 251.798C499.242 248.808 498.876 244.9 500.422 241.565C501.969 238.23 505.189 235.984 508.853 235.686Z"/><path fill="#1a6f9c" d="M507.106 239.767C509.353 239.004 511.838 239.523 513.592 241.122C515.346 242.721 516.091 245.147 515.538 247.455C514.985 249.764 513.221 251.588 510.932 252.219C507.535 253.155 504.009 251.22 502.973 247.851C501.938 244.482 503.769 240.901 507.106 239.767Z"/><path fill="#F0EEE9" d="M547.98 235.333C550.76 235.373 554.207 236.585 556.904 237.408L546.976 240.781C551.527 243.977 560.668 249.906 553.809 255.226C550.958 255.633 548.385 256.443 546.027 254.886L545.914 253.909C547.902 251.58 550.112 251.652 553.047 251.322C551.431 250.041 549.844 248.722 548.29 247.367C543.097 242.784 542.985 240.034 547.98 235.333Z"/><path fill="#F0EEE9" d="M532.091 234.985C535.288 235.85 538.625 236.896 541.816 237.841C538.128 238.592 533.333 238.946 529.971 240.507C526.783 241.987 523.808 245.789 526.9 249.104C530.38 252.833 532.625 252.954 537.351 253.158C537.877 253.54 537.624 253.259 537.869 254.169C533.894 258.001 529.753 256.047 525.621 253.999C523.383 250.61 523.024 249.758 521.498 246.049C524.782 239.677 526.039 238.708 532.091 234.985Z"/><path fill="#F0EEE9" d="M98.1634 632.578C108.315 601.392 146.763 614.124 138.33 643.041C136.395 649.675 129.951 652.824 124.092 655.411L123.818 659.068C124.257 669.653 126.11 729.342 122.459 735.103C115.258 738.536 46.6817 736.892 34.2527 735.868C32.2015 712.637 32.7755 685.166 32.5534 661.706C32.4712 653.02 32.7134 625.423 34.8386 618.146C44.4237 614.924 65.0996 616.001 75.5455 617.366C78.6797 617.776 82.7042 628.612 83.9244 631.526C88.2681 631.688 91.3265 631.946 95.6388 632.5L98.1634 632.578Z"/><path fill="#1a6f9c" d="M98.1634 632.578C108.315 601.392 146.763 614.124 138.33 643.041C136.395 649.675 129.951 652.824 124.092 655.411C111.598 657.88 100.932 650.854 99.0303 638.233C98.7592 636.433 99.0289 634.103 98.1634 632.578Z"/><path fill="#F0EEE9" d="M132.351 623.319C133.202 623.623 132.808 623.358 133.432 624.248C133.226 629.405 121.295 640.407 117.402 644.231L112.267 640.928C110.969 639.925 110.892 640.02 110.213 638.568L110.575 637.735C113.483 636.863 114.19 637.611 116.621 639.131C121.729 633.939 127.094 628.302 132.351 623.319Z"/><path fill="#010101" d="M34.8386 618.146L35.4058 618.758L35.0585 692.261C34.9811 703.72 34.2868 724.393 35.5897 734.932C62.2787 736.174 95.0927 735.534 122.159 734.73C122.741 723.828 120.884 664.853 123.818 659.068C124.257 669.653 126.11 729.342 122.459 735.103C115.258 738.536 46.6817 736.892 34.2527 735.868C32.2015 712.637 32.7755 685.166 32.5534 661.706C32.4712 653.02 32.7134 625.423 34.8386 618.146Z"/><path fill="#3A3939" d="M34.8386 618.146C44.4237 614.924 65.0996 616.001 75.5455 617.366C78.6797 617.776 82.7042 628.612 83.9244 631.526C88.2681 631.688 91.3265 631.946 95.6388 632.5C92.4163 633.777 86.3008 633.743 82.6235 633.929C80.7583 629.552 78.9534 623.438 75.3387 620.232C71.2558 616.611 42.0217 618.337 35.4058 618.758L34.8386 618.146Z"/><path fill="#3A3939" d="M61.168 681.239C68.29 681.154 99.708 679.838 102.833 685.864C100.917 689.63 93.5246 688.977 89.8751 689.028C83.6701 689.457 49.2723 691.353 48.7615 684.408C51.3187 680.601 56.9836 681.332 61.168 681.239Z"/><path fill="#3A3939" d="M57.1047 652.203C64.4746 651.8 100.69 650.379 103.013 656.289C101.691 659.815 97.4507 659.364 94.1818 659.561C86.2073 659.496 51.7763 661.832 47.7638 655.618L48.083 654.587C51.0271 651.999 52.9462 652.485 57.1047 652.203Z"/><path fill="#3A3939" d="M63.1678 666.222C69.5472 665.933 100.633 665.25 102.692 671.253C100.327 674.504 92.0076 674.046 88.215 674.04C79.4858 674.631 55.0222 675.555 48.6914 670.348L48.6634 669.315C51.982 665.926 58.5757 666.34 63.1678 666.222Z"/><path fill="#3A3939" d="M54.9231 696.598C56.4401 696.48 57.9604 696.408 59.4819 696.383C66.904 696.282 97.8078 695.24 102.52 699.898C102.679 702.414 99.1447 703.271 97.1237 703.475C88.5541 704.063 55.1661 705.141 48.7062 700.848C47.7458 697.68 52.5786 697.155 54.9231 696.598Z"/><path fill="#F0EEE9" d="M959.392 639.036C959.025 632.559 959.376 626.103 964.142 621.025C976.825 607.511 999.988 615.092 1000.3 634.515C1000.48 645.997 993.946 652.669 983.243 655.493C983.574 657.089 984.112 658.964 983.876 660.518C984.525 671.33 984.159 682.96 984.184 693.842C984.216 707.934 984.265 721.005 983.01 735.068C953.935 737.845 924.109 736.689 894.985 734.916C892.887 723.053 893.351 699.195 893.503 686.233C893.767 663.761 893.356 639.307 894.352 616.926C904.236 617.034 915.871 616.461 925.837 616.175C928.932 616.216 934.545 616.133 937.365 616.64C939.792 621.584 942.301 626.715 944.18 631.89C946.725 631.978 950.24 631.927 952.608 632.572C954.884 634.711 957.145 636.866 959.392 639.036Z"/><path fill="#1a6f9c" d="M959.392 639.036C959.025 632.559 959.376 626.103 964.142 621.025C976.825 607.511 999.988 615.092 1000.3 634.515C1000.48 645.997 993.946 652.669 983.243 655.493C971.91 658.03 961.973 649.894 959.392 639.036Z"/><path fill="#F0EEE9" d="M992.828 622.899C996.744 627.766 980.761 640.701 977.482 643.442C975.846 642.534 974.203 641.637 972.554 640.751C971.208 639.569 970.89 639.521 970.406 637.799C971.783 635.195 975.565 637.365 977.394 638.326C982.678 633.382 987.596 627.969 992.828 622.899Z"/><path fill="#010101" d="M894.352 616.926C904.236 617.034 915.871 616.461 925.837 616.175C927.473 616.995 927.715 617.006 929.554 617.026L930.141 617.676C927.665 618.436 921.546 617.246 918.021 618.083C911.074 618.367 902.705 618.399 895.953 618.966C894.804 636.836 895.432 657.44 895.51 675.426C895.594 694.843 895.389 714.641 896.004 734.006C911.186 734.617 924.576 734.259 939.613 734.226L982.309 734.375C982.43 728.565 982.598 719.922 982.548 714.326C982.474 706.093 980.145 665.002 983.876 660.518C984.525 671.33 984.159 682.96 984.184 693.842C984.216 707.934 984.265 721.005 983.01 735.068C953.935 737.845 924.109 736.689 894.985 734.916C892.887 723.053 893.351 699.195 893.503 686.233C893.767 663.761 893.356 639.307 894.352 616.926Z"/><defs><linearGradient id="gradient_0" gradientUnits="userSpaceOnUse" x1="936.58832" y1="625.55798" x2="940.32697" y2="622.15302"><stop offset="0" stop-color="#302F35"/><stop offset="1" stop-color="#474745"/></linearGradient></defs><path fill="url(#gradient_0)" d="M925.837 616.175C928.932 616.216 934.545 616.133 937.365 616.64C939.792 621.584 942.301 626.715 944.18 631.89C946.725 631.978 950.24 631.927 952.608 632.572C949.509 633.405 945.418 633.325 942.119 633.413C934.764 612.844 935.006 620.459 918.851 618.207L918.021 618.083C921.546 617.246 927.665 618.436 930.141 617.676L929.554 617.026C927.715 617.006 927.473 616.995 925.837 616.175Z"/><path fill="#3A3939" d="M936.114 651.228C942.015 651.114 959.98 650.843 963.255 655.853L962.963 657.037C959.788 660.186 941.62 659.329 936.125 659.429C930.867 659.458 909.519 660.167 907.671 655.027C910.227 650.065 930.328 651.35 936.114 651.228Z"/><path fill="#3A3939" d="M928.519 680.232C934.521 680.038 961.611 679.534 963.029 685.57L962.267 686.513C957.541 688.528 949.708 687.842 943.933 688.397C937.541 688.598 911.638 690.006 908.416 684.614C909.188 678.872 923.569 680.321 928.519 680.232Z"/><path fill="#3A3939" d="M929.857 665.733C939.178 665.53 948.907 665.341 958.114 667.035C960.736 667.517 962.283 668.096 963.087 670.733L962.387 671.798C958.077 674.144 948.392 673.524 943.125 673.496C937.016 673.635 910.447 674.714 907.995 669.385C910.794 664.82 924.571 665.854 929.857 665.733Z"/><path fill="#3A3939" d="M911.752 696.119C920.804 695.5 953.997 694.855 961.375 697.728C962.788 699.251 962.441 698.404 962.773 700.198C961.597 702.301 962.425 701.503 960.052 702.516C953.195 702.977 911.415 705.557 908.882 698.878C909.789 697.024 909.775 697.462 911.752 696.119Z"/><path fill="#F0EEE9" d="M228.945 629.349C234.116 617.642 245.627 610.793 258.013 616.442C262.884 618.701 266.672 622.782 268.561 627.807C272.954 639.65 267.519 650.979 255.345 654.817C255.393 656.567 255.514 658.702 255.469 660.417L255.063 660.497C252.552 680.25 253.992 700.082 253.872 719.936C253.855 722.726 254.332 733.115 253.243 734.886L253.193 735.506C235.349 736.655 217.469 737.166 199.588 737.036C189.745 737.059 174.158 737.463 164.863 735.129C163.198 723.76 164.046 695.042 164.043 682.233L164.002 645.666C163.997 641.37 163.336 619.671 165.866 618.565C175.013 614.567 198.55 616.839 208.374 616.931C210.184 621.733 212.467 626.801 214.402 631.657C217.756 631.895 221.382 631.71 224.396 632.835C225.663 633.421 225.633 633.369 227.039 633.513C228.499 632.305 228.276 631.583 228.945 629.349Z"/><path fill="#1a6f9c" d="M228.945 629.349C234.116 617.642 245.627 610.793 258.013 616.442C262.884 618.701 266.672 622.782 268.561 627.807C272.954 639.65 267.519 650.979 255.345 654.817C255.393 656.567 255.514 658.702 255.469 660.417L255.063 660.497C255.1 658.631 255.3 657.237 254.629 655.507C235.864 657.25 228.272 647.54 228.945 629.349Z"/><path fill="#F0EEE9" d="M262.428 623.379C267.377 627.689 250.288 641.502 247.186 643.919L243.316 641.016C241.97 639.821 241.323 639.325 241.291 637.57L242.282 636.973C244.525 636.756 245.029 637.228 247.166 638.254C252.415 633.561 257.444 628.376 262.428 623.379Z"/><path fill="#010101" d="M164.863 735.129C163.198 723.76 164.046 695.042 164.043 682.233L164.002 645.666C163.997 641.37 163.336 619.671 165.866 618.565C175.013 614.567 198.55 616.839 208.374 616.931C210.184 621.733 212.467 626.801 214.402 631.657C217.756 631.895 221.382 631.71 224.396 632.835C220.482 633.492 216.97 633.479 213.014 633.154C211.445 629.58 208.163 620.301 203.986 619.398C198.914 618.301 168.43 615.752 167.558 621.782C164.122 645.537 165.718 670.498 165.412 694.495C165.396 706.106 165.125 724.095 166.046 734.403C173.515 735.381 183.944 735.307 191.622 735.361C204.907 735.45 218.194 735.435 231.479 735.315C238.208 735.216 246.688 734.737 253.243 734.886L253.193 735.506C235.349 736.655 217.469 737.166 199.588 737.036C189.745 737.059 174.158 737.463 164.863 735.129Z"/><path fill="#3A3939" d="M186.519 652.198C194.475 651.963 231.154 650.379 234.259 656.06L233.975 656.995C231.624 659.425 231.029 659.403 227.625 659.505C219.837 659.468 181.857 661.601 178.681 655.775C178.545 651.96 183.656 652.374 186.519 652.198Z"/><path fill="#3A3939" d="M185.02 681.569C193.155 681.032 228.538 680.092 232.958 685.273C233.1 688.192 229.482 688.296 227.123 688.501C220.662 688.996 179.169 692.066 178.689 684.635C180.5 682.387 182.179 682.307 185.02 681.569Z"/><path fill="#3A3939" d="M192.863 696.22C199.091 695.802 230.714 694.699 233.023 700.628C231.383 704.434 223.93 703.734 220.198 703.826C212.373 703.409 183.405 705.239 179.151 700.876C178.919 696.017 189.459 696.381 192.863 696.22Z"/><path fill="#3A3939" d="M200.196 666.217C205.287 665.852 232.835 665.765 233.493 671.691C229.732 674.686 219.184 673.99 214.125 673.984C208.172 674.05 182.967 675.225 179.833 670.333L180.104 669.203C184.599 665.256 193.579 666.507 200.196 666.217Z"/><path fill="#F0EEE9" d="M708.27 632.008C709.099 627.018 712.334 621.803 716.393 618.786C721.148 615.305 727.097 613.871 732.916 614.802C744.753 616.769 751.492 628.65 749.272 640.018C747.673 648.208 742.12 650.094 736.605 655.109C736.512 655.194 736.256 657.442 736.227 657.828L736.037 659.75C736.184 675.704 736.209 691.66 736.112 707.615C736.083 716.23 736.348 727.516 735.694 735.882C711.335 737.124 687.116 736.633 662.731 736.56C656.929 736.543 651.301 736.048 645.483 736.029C644.332 705.514 645.495 674.155 644.991 643.572C644.9 638.023 644.98 624.396 647.75 619.957C652.712 617.013 680.925 617.832 687.317 618.553C690.059 622.733 692.169 627.059 694.179 631.619L702.599 632.253C704.779 632.452 706.26 632.813 708.27 632.008Z"/><path fill="#1a6f9c" d="M708.27 632.008C709.099 627.018 712.334 621.803 716.393 618.786C721.148 615.305 727.097 613.871 732.916 614.802C744.753 616.769 751.492 628.65 749.272 640.018C747.673 648.208 742.12 650.094 736.605 655.109C736.512 655.194 736.256 657.442 736.227 657.828C735.981 655.36 736.334 654.99 733.997 655.33C718.321 657.608 708.361 648.31 708.394 632.655C708.352 632.44 708.311 632.224 708.27 632.008Z"/><path fill="#F0EEE9" d="M742.38 622.964C746.084 627.738 730.711 641.24 726.837 643.714C725.265 643.527 724.852 642.672 723.387 641.383C722.22 640.288 721.555 639.892 721.156 638.349L721.75 637.706C723.714 637.353 724.639 637.953 726.595 638.693C731.974 633.594 736.807 627.792 742.38 622.964Z"/><path fill="#010101" d="M645.483 736.029C644.332 705.514 645.495 674.155 644.991 643.572C644.9 638.023 644.98 624.396 647.75 619.957C652.712 617.013 680.925 617.832 687.317 618.553C690.059 622.733 692.169 627.059 694.179 631.619L702.599 632.253C699.265 633.799 695.937 633.519 692.288 633.474C690.548 629.874 687.675 621.421 684.431 620.74C674.526 618.663 658.335 620.403 648.072 620.565C647.376 631.726 647.463 642.663 647.26 653.827C646.652 680.679 646.712 707.542 647.44 734.39C674.88 736.029 706.355 736.243 733.652 733.893C734.347 725.591 734.416 719.009 734.441 711.214C734.475 700.774 732.896 667.937 736.037 659.75C736.184 675.704 736.209 691.66 736.112 707.615C736.083 716.23 736.348 727.516 735.694 735.882C711.335 737.124 687.116 736.633 662.731 736.56C656.929 736.543 651.301 736.048 645.483 736.029Z"/><path fill="#3A3939" d="M690.657 651.76C695.434 651.589 711.28 650.948 713.981 655.346C713.243 662.225 689.859 659.512 683.797 659.436C679.079 659.495 661.484 660.629 660.185 655.244C662.903 649.995 684.374 651.801 690.657 651.76Z"/><path fill="#3A3939" d="M664.661 666.224C673.093 665.999 681.529 665.929 689.963 666.014C695.983 666.121 710.248 665.956 714.166 670.008C714.642 671.639 714.717 670.868 713.888 672.39C712.392 673.414 711.904 673.339 710.125 673.533C699.898 673.877 668.944 675.144 660.719 670.785C660.115 669.248 660.176 670.069 660.96 668.229C662.529 666.86 662.632 666.856 664.661 666.224Z"/><path fill="#3A3939" d="M664.426 681.137C672.18 680.517 708.633 679.616 713.337 684.296C713.606 686.104 713.693 685.245 713.047 686.971C711.616 687.795 710.634 687.802 709.009 688.033C699.765 688.86 690.478 689.125 681.202 688.829C676.543 688.641 663.182 688.107 660.084 684.748L660.156 683.692C661.587 682.137 662.41 681.985 664.426 681.137Z"/><path fill="#3A3939" d="M669.865 695.69C676.708 695.179 710.54 693.943 713.338 700.425L712.687 701.391C710.723 702.606 708.943 702.629 706.625 702.957C699.664 703.263 664.145 704.441 660.879 699.621L661.182 698.537C664.045 695.919 665.974 696.163 669.865 695.69Z"/><path fill="#F0EEE9" d="M831.82 632.64C832.602 627.312 835.269 621.631 839.837 618.59C863.893 602.573 887.411 635.713 863.561 652.246C861.789 653.474 859.007 653.862 858.793 655.979C859.787 664.799 859.885 728.708 857.627 734.385C851.832 738.231 781.047 735.842 770.138 735.466C768.584 729.359 768.908 705.967 768.973 698.37C769.164 675.978 768.872 652.623 769.619 630.268C769.787 625.716 770.05 621.784 769.506 617.235C774.664 617.111 779.824 617.126 784.981 617.282C786.818 617.26 790.728 617.078 792.342 617.402C797.688 616.985 805.966 617.231 811.332 617.661C813.644 622.799 815.395 626.593 818.164 631.539C821.272 631.505 825.101 631.259 828.046 632.011C829.378 632.196 830.497 632.343 831.82 632.64Z"/><path fill="#1a6f9c" d="M831.82 632.64C832.602 627.312 835.269 621.631 839.837 618.59C863.893 602.573 887.411 635.713 863.561 652.246C861.789 653.474 859.007 653.862 858.793 655.979L858.209 655.947L857.55 660.236C857.538 659.532 857.515 658.829 857.481 658.126C857.09 653.195 854.241 655.973 849.386 655.301C836.523 653.521 832.325 644.375 831.82 632.64Z"/><path fill="#F0EEE9" d="M865.959 623.454C866.387 623.897 866.287 624.001 866.477 624.721C864.875 630.699 855.222 639.519 850.602 643.55L844.674 640.236C843.15 638.596 843.415 639.479 843.263 637.7L843.852 637.129C846.862 636.773 847.481 637.514 849.912 639.298C855.435 633.517 859.937 628.708 865.959 623.454Z"/><path fill="#010101" d="M769.619 630.268C769.835 628.725 769.907 627.045 770.656 625.731C771.04 628.565 770.933 632.424 771.425 634.767C771.24 656.856 770.402 679.012 770.515 701.093C770.567 711.145 770.143 724.516 771.342 734.399C799.882 734.759 828.294 734.251 857.004 734.651C858.155 709.858 856.42 685.686 857.55 660.236L858.209 655.947L858.793 655.979C859.787 664.799 859.885 728.708 857.627 734.385C851.832 738.231 781.047 735.842 770.138 735.466C768.584 729.359 768.908 705.967 768.973 698.37C769.164 675.978 768.872 652.623 769.619 630.268Z"/><defs><linearGradient id="gradient_1" gradientUnits="userSpaceOnUse" x1="808.0274" y1="628.38391" x2="813.59052" y2="621.33289"><stop offset="0" stop-color="#1B1718"/><stop offset="1" stop-color="#4B4A4C"/></linearGradient></defs><path fill="url(#gradient_1)" d="M792.342 617.402C797.688 616.985 805.966 617.231 811.332 617.661C813.644 622.799 815.395 626.593 818.164 631.539C821.272 631.505 825.101 631.259 828.046 632.011L827.483 632.837C823.831 633.475 819.616 633.419 815.865 633.486C813.855 628.687 811.792 625.073 809.855 619.878C804.505 619.439 799.079 619.462 793.707 619.403C794.698 618.998 795.336 618.51 796.471 618.14L797.329 617.866C795.803 617.607 793.921 617.519 792.342 617.402Z"/><path fill="#504F50" d="M769.506 617.235C774.664 617.111 779.824 617.126 784.981 617.282L783.65 617.934L783.367 619.07C768.518 619.251 772.118 622.945 771.425 634.767C770.933 632.424 771.04 628.565 770.656 625.731C769.907 627.045 769.835 628.725 769.619 630.268C769.787 625.716 770.05 621.784 769.506 617.235Z"/><path fill="#010101" d="M784.981 617.282C786.818 617.26 790.728 617.078 792.342 617.402C793.921 617.519 795.803 617.607 797.329 617.866L796.471 618.14C795.336 618.51 794.698 618.998 793.707 619.403L783.367 619.07L783.65 617.934L784.981 617.282Z"/><path fill="#3A3939" d="M793.355 680.718C801.398 680.494 830.741 679.001 836.19 683.353C837.077 685.045 837.003 684.214 836.695 685.888C834.391 688.346 831.565 687.883 827.878 688.128C819.857 688.827 790.806 690.052 784.889 685.403C784.065 683.714 784.173 684.575 784.557 682.732C786.549 680.753 790.514 680.894 793.355 680.718Z"/><path fill="#3A3939" d="M805.484 665.75C811.855 665.551 835.262 664.081 837.552 670.308L837.013 671.396C832.909 673.904 822.103 673.341 816.848 673.367C812.342 673.415 782.02 675.378 784.351 668.216C788.306 665.166 800.189 665.802 805.484 665.75Z"/><path fill="#3A3939" d="M797.084 651.229C807.641 650.83 819.644 651.177 830.196 652.023C834.052 652.332 835.538 652.944 837.793 655.86C838.12 659.856 828.887 658.881 825.911 658.844C817.576 658.301 788.344 660.516 783.858 655.496C783.751 653.725 783.581 654.577 784.633 652.917C787.582 650.954 793.348 651.307 797.084 651.229Z"/><path fill="#3A3939" d="M797.755 695.75C803.579 695.626 835.725 693.773 836.877 699.918C834.598 703.764 826.462 702.613 822.286 702.572C816.98 702.695 784.507 704.605 783.697 698.77C786.664 694.913 793.187 695.795 797.755 695.75Z"/><path fill="#F0EEE9" d="M351.377 632.359C353.621 620.476 365.147 612.182 377.111 614.951C382.209 616.167 386.603 619.383 389.302 623.875C392.411 628.943 393.398 635.623 391.788 641.347C389.677 648.857 384.484 652.328 377.888 655.391L378.052 658.427C379.799 665.694 379.874 729.084 377.059 734.79C374.926 735.813 368.311 736.633 366.122 736.462C354.333 735.541 297.968 738.804 290.927 734.137C288.561 729.991 289.414 700.919 289.432 693.561L289.664 633.654C289.559 619.487 289.159 617.986 304.636 617.155C313.782 616.664 322.478 617.448 331.578 618.044C333.12 621.299 334.576 624.594 335.944 627.925C338.976 633.294 339.556 629.822 344.228 632.642C346.439 633.591 349.033 632.862 351.377 632.359Z"/><path fill="#1a6f9c" d="M351.377 632.359C353.621 620.476 365.147 612.182 377.111 614.951C382.209 616.167 386.603 619.383 389.302 623.875C392.411 628.943 393.398 635.623 391.788 641.347C389.677 648.857 384.484 652.328 377.888 655.391C376.607 655.582 375.318 655.719 374.025 655.801C358.584 656.65 351.989 646.344 351.377 632.359Z"/><path fill="#F0EEE9" d="M385.462 623.378C386.027 623.743 386.053 623.93 386.49 624.511C386.677 629.484 373.606 640.734 369.529 643.493L365.244 640.874C363.963 639.92 363.052 639.157 362.968 637.536L363.825 636.999C366.286 636.711 367.39 637.38 369.7 638.266C374.852 633.733 380.443 628.159 385.462 623.378Z"/><path fill="#010101" d="M289.664 633.654C290.008 632.004 289.77 630.369 290.661 629.006L291.141 629.87C291.387 651.998 291.469 674.127 291.387 696.256C291.377 706.534 290.823 723.52 291.714 733.241C302.513 734.815 367.384 737.163 374.511 733.032C379.946 724.129 374.542 672.151 378.052 658.427C379.799 665.694 379.874 729.084 377.059 734.79C374.926 735.813 368.311 736.633 366.122 736.462C354.333 735.541 297.968 738.804 290.927 734.137C288.561 729.991 289.414 700.919 289.432 693.561L289.664 633.654Z"/><defs><linearGradient id="gradient_2" gradientUnits="userSpaceOnUse" x1="310.53168" y1="632.80164" x2="316.33371" y2="614.35809"><stop offset="0" stop-color="#343435"/><stop offset="1" stop-color="#5D585C"/></linearGradient></defs><path fill="url(#gradient_2)" d="M289.664 633.654C289.559 619.487 289.159 617.986 304.636 617.155C313.782 616.664 322.478 617.448 331.578 618.044C333.12 621.299 334.576 624.594 335.944 627.925L335.339 631.964C334.442 628.951 331.458 623.594 329.91 620.598C322.427 619.328 300.292 618.079 293.54 622.393C292.017 623.367 291.747 624.921 291.553 626.57L291.141 629.87L290.661 629.006C289.77 630.369 290.008 632.004 289.664 633.654Z"/><path fill="#3A3939" d="M335.944 627.925C338.976 633.294 339.556 629.822 344.228 632.642C341.041 633.537 337.725 634.719 335.339 631.964L335.944 627.925Z"/><path fill="#3A3939" d="M324.254 665.723C329.311 665.528 357.017 663.906 356.48 670.95C353.401 674.031 342.378 673.449 337.749 673.523C333.113 673.711 303.179 675.375 305.057 668.356C308.497 665.318 319.434 665.807 324.254 665.723Z"/><path fill="#3A3939" d="M307.704 681.099C320.964 680.287 336.515 680.802 349.922 681.303C352.503 681.4 356.488 682.947 355.988 686.221C354.885 687.531 354.251 687.491 352.568 687.866C346.003 688.717 305.91 691.024 304.898 683.704C305.687 682.127 306.197 681.995 307.704 681.099Z"/><path fill="#3A3939" d="M315.504 651.197C317.324 651.119 319.144 651.066 320.966 651.039C326.853 650.965 357.861 648.55 357.284 656.825C355.428 658.597 351.095 658.371 348.367 658.485C337.837 658.334 327.241 659.046 316.733 658.558C313.543 658.41 304.727 657.849 305.191 653.58C307.314 651.594 312.616 651.415 315.504 651.197Z"/><path fill="#3A3939" d="M315.281 696.255C320.974 696.135 356.954 693.852 356.369 701.05C354.165 703.499 349.749 703.178 346.2 703.424C338.818 703.675 308.786 705.209 304.525 699.643L304.753 698.646C308.471 695.551 310.046 696.303 315.281 696.255Z"/><path fill="#F0EEE9" d="M588.479 632.004C590.013 621.609 599.083 614.008 609.586 614.313C620.089 614.619 628.701 622.736 629.628 633.202C630.556 643.668 623.505 653.172 613.219 655.32L614.718 659.532C616.523 674.923 616.017 689.154 615.879 704.651C615.801 713.325 616.073 727.057 614.882 735.414C605.209 736.565 534.398 737.073 529.191 734.183C526.023 728.064 527.143 678.034 527.169 668.274C526.902 656.774 526.782 640.359 527.255 629.084C527.693 616.623 530.088 616.648 541.866 617.233C544.605 617.369 547.702 617.401 550.482 617.487C556.847 617.203 562.711 617.219 569.082 617.258L576.008 631.259C579.246 631.332 583.518 631.375 586.719 631.818L588.479 632.004Z"/><path fill="#1a6f9c" d="M588.479 632.004C590.013 621.609 599.083 614.008 609.586 614.313C620.089 614.619 628.701 622.736 629.628 633.202C630.556 643.668 623.505 653.172 613.219 655.32C606.588 656.705 599.698 654.761 594.768 650.115C589.838 645.468 587.489 638.706 588.479 632.004Z"/><path fill="#F0EEE9" d="M622.761 622.809C627.427 627.068 609.939 641.047 606.483 643.121L601.776 640.062C600.659 639.287 600.746 639.313 600.066 638.118C601.404 635.542 605.305 637.559 607.068 638.529C611.387 633.495 617.772 627.148 622.761 622.809Z"/><path fill="#010101" d="M527.169 668.274C528.156 663.677 526.826 652.126 528.51 648.639C529.461 649.959 529.393 651.454 529.608 653.199C529.522 665.205 527.612 725.687 531.444 732.802C537.013 736.524 588.501 734.22 597.412 734.383C599.76 734.426 609.366 733.155 612.098 732.577C617.358 712.823 613.549 681.334 614.718 659.532C616.523 674.923 616.017 689.154 615.879 704.651C615.801 713.325 616.073 727.057 614.882 735.414C605.209 736.565 534.398 737.073 529.191 734.183C526.023 728.064 527.143 678.034 527.169 668.274Z"/><path fill="#504F50" d="M550.482 617.487C556.847 617.203 562.711 617.219 569.082 617.258L576.008 631.259C579.246 631.332 583.518 631.375 586.719 631.818C583.365 633.103 577.799 633.128 574.051 633.32C571.724 629.689 568.815 623.65 566.757 619.674C561.373 619.319 556.034 619.537 550.46 619.117C552.06 619.089 553.206 619.242 554.598 618.492C553.464 617.562 552.02 617.643 550.482 617.487Z"/><path fill="#3A3939" d="M527.255 629.084L528.976 628.716C529.445 627.653 529.677 626.936 530.036 625.827C530.006 633.377 530.277 646.029 529.608 653.199C529.393 651.454 529.461 649.959 528.51 648.639C526.826 652.126 528.156 663.677 527.169 668.274C526.902 656.774 526.782 640.359 527.255 629.084Z"/><path fill="#3A3939" d="M527.255 629.084C527.693 616.623 530.088 616.648 541.866 617.233C544.605 617.369 547.702 617.401 550.482 617.487C552.02 617.643 553.464 617.562 554.598 618.492C553.206 619.242 552.06 619.089 550.46 619.117C546.221 619.048 534.767 618.364 531.397 619.901C529.867 622.096 530.695 624.148 530.036 625.827C529.677 626.936 529.445 627.653 528.976 628.716L527.255 629.084Z"/><path fill="#3A3939" d="M547.85 665.122C559.261 664.508 570.963 664.926 582.402 665.127C585.937 665.189 591.781 665.227 594.083 668.235C594.217 671.422 592.395 672.038 589.625 672.494C581.51 672.837 547.557 675.008 542.448 669.283C542.21 667.582 542.091 668.405 543.034 666.773C544.915 665.592 545.613 665.591 547.85 665.122Z"/><path fill="#3A3939" d="M554.567 679.743C561.987 679.582 589.727 678.511 594.31 683.266C594.687 684.839 594.733 684.064 593.998 685.65C591.212 687.993 586.743 687.537 582.876 687.677C575.985 688.2 544.846 689.322 542.43 682.765L543.083 681.517C545.686 679.514 551.075 679.841 554.567 679.743Z"/><path fill="#3A3939" d="M549.218 650.668C561.629 650.212 575.401 650.162 587.808 651.268C590.131 651.475 592.687 652.302 594.035 654.331C594.028 656.423 594.382 655.595 593.341 657.039C591.493 658.127 589.558 658.096 587.373 658.325C579.271 657.934 545.506 659.608 541.385 654.019L541.639 653.154C544.157 650.946 545.925 651.075 549.218 650.668Z"/><path fill="#3A3939" d="M556.184 695.213C566.12 694.801 576.874 695.24 586.863 695.384C589.318 695.42 592.019 696.152 593.709 698.075C594.068 699.856 594.128 698.981 593.337 700.77C590.315 702.72 585.141 702.411 581.348 702.531C575.956 702.732 543.691 704.009 542.638 698.628C545.388 694.988 551.991 695.39 556.184 695.213Z"/><path fill="#010101" d="M110.634 410.922C116.312 410.915 122.491 410.787 128.124 411.055C131.384 410.748 138.557 411.009 142.112 411.033C144.504 413.844 151.292 424.698 153.629 428.254C164.403 427.928 208.226 426.616 215.331 430.338C216.453 431.907 217.057 434.853 217.166 436.58C217.739 445.697 219.799 499.148 215.154 505.088C208.756 506.686 179.357 505.685 170.893 505.676C152.797 505.656 133.838 506.266 115.737 505.529C110.5 505.316 101.222 505.075 96.2539 503.987C95.1794 501.533 94.9427 491.319 95.0284 487.375C95.5572 463.02 93.7279 437.716 95.9592 413.504C96.2524 410.323 107.676 410.905 110.634 410.922Z"/><path fill="#9fc5dd" d="M110.634 410.922C116.312 410.915 122.491 410.787 128.124 411.055C129.709 411.909 133.245 411.648 135.521 412.055L141.355 412.264C144.191 416.668 148.05 424.054 150.203 428.863L97.0173 428.981C95.8177 418.95 96.0068 412.668 107.709 411.955L110.634 410.922Z"/><path fill="#3A3939" d="M110.634 410.922C116.312 410.915 122.491 410.787 128.124 411.055C129.709 411.909 133.245 411.648 135.521 412.055C129.348 412.566 114.847 411.953 107.709 411.955L110.634 410.922Z"/><path fill="#9fc5dd" d="M192.794 430.261C200.158 430.087 207.527 430.144 214.888 430.433C215.577 444.31 215.509 459.123 215.524 473.009C215.534 482.476 215.692 494.337 214.607 503.58C206.673 504.444 189.936 504.002 181.543 504.017L117.375 503.946C110.614 503.886 103.852 503.91 97.0918 504.019C95.4353 481.457 96.0577 453.361 96.9737 430.679C109.66 430.067 122.777 430.794 135.5 430.755C154.597 430.696 173.698 430.494 192.794 430.261Z"/><path fill="#010101" d="M571.784 410.519C578.234 410.305 601.734 408.517 606.435 412.918C609.492 415.78 613.98 424.302 616.437 428.326C630.356 428.088 666.061 427.095 678.054 429.981C681.808 457.102 679.111 477.982 679.015 504.86C657.54 506.275 633.453 505.453 611.696 505.59C597.427 505.68 571.888 506.787 558.675 504.93C556.285 490.988 557.452 468.172 557.331 453.281C557.271 445.973 556.648 427.603 557.154 421.488C556.915 408.217 560.054 410.675 571.784 410.519Z"/><path fill="#9fc5dd" d="M557.154 421.488C556.915 408.217 560.054 410.675 571.784 410.519L568.88 411.332L568.857 411.914L569.355 412.136C580.834 412.035 592.313 411.995 603.792 412.015C608.014 417.443 610.585 422.364 613.357 428.681C603.604 428.499 593.849 428.519 584.097 428.742C579.047 428.832 563.904 429.44 560.078 428.515C558.944 426.967 559.381 427.832 559.119 425.628C558.614 422.526 558.933 420.862 558.683 417.89C558.436 418.205 558.134 420.346 558.033 420.909L557.154 421.488Z"/><path fill="#3A3939" d="M557.154 421.488C556.915 408.217 560.054 410.675 571.784 410.519L568.88 411.332L568.857 411.914L569.355 412.136C567.671 412.404 566.273 412.577 564.575 412.733C559.49 417.185 559.745 418.911 559.119 425.628C558.614 422.526 558.933 420.862 558.683 417.89C558.436 418.205 558.134 420.346 558.033 420.909L557.154 421.488Z"/><path fill="#9fc5dd" d="M610.12 430.238C632.141 430.724 655.144 430.168 677.463 430.528C677.926 452.347 678.163 482.815 676.942 503.664C661.045 503.82 645.147 503.879 629.25 503.843L589.759 503.925C580.152 503.95 570.342 504.297 560.816 503.085C558.636 493.964 559.376 476.004 559.44 466.009L559.41 430.935C576.315 430.867 593.219 430.635 610.12 430.238Z"/><path fill="#F0EEE9" d="M466.977 629.012C467.421 625.65 472.039 620.663 474.714 618.693C479.565 615.12 485.199 614.03 491.092 615.091C496.444 616.055 501.194 619.101 504.303 623.563C507.356 628.104 508.486 633.67 507.446 639.043C506.049 646.43 503.485 648.074 497.62 652.147C496.385 653.005 495.257 653.481 494.438 654.654C494.568 672.894 494.517 691.134 494.287 709.372C494.215 716.02 494.405 730.261 493.535 736.056C490.317 736.083 476.272 736.323 473.649 735.71C465.27 735.475 412.987 737.239 409.237 734.394C408.567 732.504 408.059 730.24 408.03 728.233C407.811 712.965 407.529 697.553 407.565 682.291C407.601 667.011 407.03 651.756 407.333 636.515C407.443 631.033 407.963 623.842 409.253 618.612C421.407 618.318 435.966 618.167 448.058 618.576C450.412 622.713 451.77 627.802 455.207 631.214C456.398 632.396 458.265 632.148 460.001 632.135C463.853 631.857 464.671 632.299 466.977 629.012Z"/><path fill="#1a6f9c" d="M466.977 629.012C467.421 625.65 472.039 620.663 474.714 618.693C479.565 615.12 485.199 614.03 491.092 615.091C496.444 616.055 501.194 619.101 504.303 623.563C507.356 628.104 508.486 633.67 507.446 639.043C506.049 646.43 503.485 648.074 497.62 652.147C496.385 653.005 495.257 653.481 494.438 654.654L493.583 654.943C473.97 657.097 464.832 649.245 466.977 629.012Z"/><path fill="#F0EEE9" d="M499.965 622.841C500.728 623.282 500.456 623.128 500.976 623.992C500.955 629.653 489.62 639.813 485.524 643.936L480.786 641.469C479.298 640.276 478.593 639.748 478.636 637.89L479.714 637.353C481.758 637.168 482.609 637.916 484.517 638.941L499.965 622.841Z"/><path fill="#3A3939" d="M409.253 618.612C421.407 618.318 435.966 618.167 448.058 618.576C450.412 622.713 451.77 627.802 455.207 631.214C456.398 632.396 458.265 632.148 460.001 632.135C457.487 633.398 455.362 633.665 452.612 634.228C450.51 629.58 448.779 625.271 446.921 620.543C436.593 619.879 420.677 620.47 409.927 620.498C408.652 639.641 409.423 663.612 409.291 683.131C409.21 695.09 408.505 723.999 410.442 734.105C431.523 733.933 454.234 733.582 475.183 734.521L474.588 735.692L473.649 735.71C465.27 735.475 412.987 737.239 409.237 734.394C408.567 732.504 408.059 730.24 408.03 728.233C407.811 712.965 407.529 697.553 407.565 682.291C407.601 667.011 407.03 651.756 407.333 636.515C407.443 631.033 407.963 623.842 409.253 618.612Z"/><path fill="#010101" d="M493.583 654.943L494.438 654.654C494.568 672.894 494.517 691.134 494.287 709.372C494.215 716.02 494.405 730.261 493.535 736.056C490.317 736.083 476.272 736.323 473.649 735.71L474.588 735.692L475.183 734.521C480.601 734.301 486.013 733.962 491.416 733.502C493.164 723.148 492.815 710.606 492.693 700.1C492.516 684.841 491.998 670.166 493.583 654.943Z"/><path fill="#3A3939" d="M432.077 662.681C439.248 661.958 471.909 661.535 476.65 664.779L476.529 666.137L476.927 665.411C475.295 668.077 471.441 668.454 468.605 668.878C461.801 669.591 426.299 671.012 423.33 666.306L423.636 665.466C426.713 662.952 428.162 663.153 432.077 662.681Z"/><path fill="#3A3939" d="M427.963 677.188C434.721 676.944 474.675 675.255 476.915 679.93C475.844 682.13 474.679 682.14 472.462 682.608C465.775 683.193 426.863 684.899 423.636 680.046L423.884 679.025C425.438 677.629 425.837 677.682 427.963 677.188Z"/><path fill="#3A3939" d="M447.657 692.758C453.241 692.607 474.296 692.039 477.317 695.996L476.98 696.867C472.573 699.28 459.163 698.887 453.667 699.011C448.813 699.042 426.15 699.678 424.507 695.113C427.054 692.139 442.963 692.796 447.657 692.758Z"/><path fill="#9fc5dd" d="M790.568 504.375C788.83 491.955 785.959 420.992 790.692 412.169C794.092 409.368 830.773 410.52 836.583 411.074C840.252 415.834 844.971 423.326 848.387 428.425C870.226 428.427 888.754 427.498 910.876 428.845C911.494 432.138 911.759 434.526 912.081 437.865C911.946 439.347 912 439.878 911.539 441.294C911.53 440.338 911.638 437.759 911.264 437.096C911.255 442.954 911.625 457.529 910.922 462.613C910.194 474.549 911.374 492.068 910.049 503.186L911.452 503.341C910.95 504.159 910.997 503.997 910.255 504.661C905.521 505.495 895.009 505.462 890.065 505.479L862.747 505.532L821.84 505.579C812.929 505.576 799.081 505.735 790.568 504.375Z"/><path fill="#010101" d="M790.568 504.375C788.83 491.955 785.959 420.992 790.692 412.169C794.092 409.368 830.773 410.52 836.583 411.074C840.252 415.834 844.971 423.326 848.387 428.425C870.226 428.427 888.754 427.498 910.876 428.845C911.494 432.138 911.759 434.526 912.081 437.865C911.946 439.347 912 439.878 911.539 441.294C911.53 440.338 911.638 437.759 911.264 437.096C911.255 442.954 911.625 457.529 910.922 462.613C910.215 452.184 911.132 440.968 909.736 430.727C870.909 429.041 830.167 431.401 790.967 430.765C789.794 451.614 790.761 472.872 791.068 493.751C791.115 496.985 791.197 500.342 791.051 503.565C802.578 504.594 819.523 503.81 831.73 503.856L883.943 503.955C887.864 503.95 907.078 504.045 910.049 503.186L911.452 503.341C910.95 504.159 910.997 503.997 910.255 504.661C905.521 505.495 895.009 505.462 890.065 505.479L862.747 505.532L821.84 505.579C812.929 505.576 799.081 505.735 790.568 504.375Z"/><path fill="#9fc5dd" d="M798.09 412.092C810.019 411.673 823.373 412.222 835.525 412.141C838.853 417.185 841.733 423.042 844.235 428.544L836.91 428.827C821.603 428.965 806.186 429.263 790.906 428.555C789.971 420.749 789.31 414.557 798.09 412.092Z"/><path fill="#9fc5dd" d="M336.858 503.944C331.884 503.814 333.578 496.659 333.368 492.483C332.848 482.128 333.526 471.62 333.404 461.252C333.506 455.635 331.894 411.855 335.367 411.251C344.237 409.709 371.792 409.559 381.069 411.16C384.396 416.519 388.151 423.175 391.517 428.277C402.57 428.068 443.888 426.659 451.52 430.249C456.013 435.451 454.008 488.054 453.822 498.123C453.679 505.849 451.537 504.843 444.918 505.421C427.186 505.346 407.28 506.027 389.822 505.644C380.696 505.443 344.328 506.967 337.279 504.034L336.858 503.944Z"/><path fill="#010101" d="M336.858 503.944C331.884 503.814 333.578 496.659 333.368 492.483C332.848 482.128 333.526 471.62 333.404 461.252C333.506 455.635 331.894 411.855 335.367 411.251C344.237 409.709 371.792 409.559 381.069 411.16C384.396 416.519 388.151 423.175 391.517 428.277C402.57 428.068 443.888 426.659 451.52 430.249C456.013 435.451 454.008 488.054 453.822 498.123C453.679 505.849 451.537 504.843 444.918 505.421C427.186 505.346 407.28 506.027 389.822 505.644C380.696 505.443 344.328 506.967 337.279 504.034C341.083 503.862 345.318 503.915 349.15 503.951C383.221 504.268 417.29 503.209 451.34 503.98C453.134 479.118 451.693 455.72 451.529 430.864C439.551 429.879 419.41 430.634 406.539 430.687C382.886 430.561 359.232 430.652 335.58 430.96C334.906 438.516 334.478 501.042 336.858 503.944Z"/><path fill="#9fc5dd" d="M344.797 412.621C356.365 411.983 368.116 412.316 379.703 412.584C382.997 417.288 385.927 423.728 388.378 428.986L378.875 428.844C363.958 428.665 351.005 429.373 335.821 428.444C334.639 418.62 334.092 414.404 344.797 412.621Z"/><path fill="#1a6f9c" d="M509.85 296.119C511.724 296.022 513.6 295.972 515.477 295.97C515.717 312.433 515.77 328.898 515.636 345.362C531.478 344.839 550.421 345.367 566.551 345.404L664.686 345.559L766.472 345.507C779.027 345.449 840.129 343.8 847.255 347.399C850.64 353.209 849.849 384.46 849.966 392.954C851.893 391.221 853.663 389.205 855.943 391.39C856.427 393.546 856.019 394.925 855.101 396.87C850.106 407.449 840.517 404.698 837.11 394.725C836.583 393.183 836.485 392.057 837.247 390.544C838.812 389.937 841.196 390.807 843.154 391.208C843.12 382.125 843.792 359.854 842.47 351.93C835.669 351.255 823.896 351.428 816.605 351.414L764.611 351.79L624.452 351.981C624.5 365.006 624.032 378.947 624.352 391.769C626.394 390.575 627.088 389.784 629.296 390.899C633.518 397.172 621.175 409.477 615.05 400.601C613.458 398.294 609.378 393.086 612.405 390.608C614.753 390.331 616.171 391.63 617.391 391.202C617.782 378.623 617.528 364.67 617.526 351.986C589.052 350.963 558.129 351.692 529.563 351.816L403.164 351.985C403.015 365.838 402.956 379.691 402.985 393.544C404.932 392.122 406.441 390.688 408.608 392.23C409.829 396.422 405.633 402.784 401.722 404.256C396.011 406.407 387.897 397.175 391.66 392.085C393.25 391.402 394.111 391.883 395.848 392.35L396.555 392.545L396.466 351.999C356.361 351.122 314.926 351.641 274.749 351.798L167.309 352.006C167.874 363.474 166.611 381.19 167.711 391.608C169.183 391.534 170.265 391.39 171.708 391.192C173.459 392.218 172.829 391.535 173.766 393.221C173.961 397.045 171.463 399.739 169.358 402.607C163.015 411.247 150.222 396.698 155.943 391.899C157.672 391.563 158.293 392.079 159.907 392.848L160.504 393.139C160.489 385.29 159.315 352.675 162.881 347.339C170.202 344.732 198.694 345.216 207.49 345.213L249.302 345.217L369.26 345.337L461.014 345.256C476.608 345.264 493.502 344.973 508.961 345.505C508.938 338.4 508.391 300.431 509.85 296.119Z"/><path fill="#1a6f9c" d="M849.47 517.721C853.683 519.348 853.855 524.517 853.876 528.488C853.931 538.692 854.357 549.223 853.622 559.391L906.579 559.315C919.006 559.307 935.375 558.696 947.234 560.843C947.651 570.016 947.507 579.168 947.413 588.344C947.388 590.806 947.335 593.07 947.71 595.516L948.213 595.587C950.547 594.395 952.902 593.253 954.443 596.006C954.453 601.211 950.336 607.067 944.994 607.744C939.77 608.406 931.227 598.903 936.665 595.244C938.56 595.051 939.009 595.333 940.908 595.931L941.529 596.132C941.558 586.094 941.498 576.057 941.348 566.02L915.875 566.027C885.605 566.013 854.122 565.925 823.921 566.408C823.836 575.821 823.871 585.234 824.027 594.646C826.97 593.997 829.008 593.098 830.605 596.062C830.634 599.515 827.013 605.676 823.743 607.05C818.004 609.461 812.326 603.473 810.52 598.545C809.969 597.043 810.138 596.617 810.725 595.311C812.634 594.399 814.883 594.564 817.069 594.492C816.916 557.144 810.157 558.815 847.737 559.508C847.178 551.881 845.825 523.222 849.47 517.721Z"/><path fill="#1a6f9c" d="M153.311 519.202C154.406 519.504 155.091 519.829 156.13 520.262C159.246 523.643 158.153 553.794 158.091 560.01L193.209 559.789C199.506 559.726 206.284 559.401 212.544 559.849C219.797 560.366 222.028 562.805 221.902 570.065C221.763 578.044 221.645 586.214 221.628 594.27C224.951 593.909 227.291 592.932 228.637 596.405C228.453 599.258 226.313 602.529 224.75 604.933C214.454 610.987 205.737 600.136 209.181 595.341C210.954 594.21 212.816 594.343 214.985 594.192C215.137 584.961 215.025 575.422 215.036 566.167L153.514 566.337L94.1475 566.313C94.0937 575.861 94.2039 585.409 94.4782 594.953C96.338 594.408 96.6919 594.287 98.5984 594.163C100.32 595.014 99.6198 594.398 100.613 596.24C100.87 600.578 96.9613 604.814 93.2211 606.53C87.4836 609.163 83.2159 603.809 81.0309 599.161C80.2319 597.461 80.3848 596.631 81.054 595.043C82.8607 594.077 83.6402 594.554 85.9859 594.725C90.5038 591.801 84.5118 570.62 88.8566 562.224C94.2631 558.354 142.607 559.908 152.08 560.219C151.751 551.894 150.045 525.625 153.311 519.202Z"/><path fill="#1a6f9c" d="M617.732 517.697C619.581 518.079 619.871 518.064 621.504 519.133C624.027 523.632 622.742 552.94 622.499 559.172C631.901 558.783 683.549 557.49 688.47 562.346C691.272 565.11 690.236 590.919 690.455 596.282C692.233 594.939 692.461 594.661 694.518 593.963C696.33 594.252 695.645 593.825 696.724 595.147C697.27 599.783 692.689 605.951 688.011 606.56C682.75 607.245 673.716 598.961 678.234 593.961C679.909 593.263 681.744 593.915 683.598 594.306C683.642 585.408 683.805 574.899 683.314 566.11C673.333 565.099 656.783 565.651 646.375 565.696L583.452 565.967L583.519 594.57C586.467 593.973 587.415 593.468 589.829 595.384C591.547 599.598 583.967 607.371 580.945 608.097C576.847 609.081 567.414 599.46 571.145 594.394C572.833 593.561 574.6 594.126 576.523 594.446C576.485 593.978 576.45 593.509 576.42 593.039C575.914 585.178 576.231 576.777 576.573 568.902C577.098 556.786 587.824 558.874 596.251 558.978L616.553 559.124C616.143 549.668 614.735 526.07 617.732 517.697Z"/><path fill="#1a6f9c" d="M390.802 517.656C391.437 517.989 393.347 518.986 393.564 519.486C396.911 527.188 395.584 551.785 395.004 559.796C404.704 559.4 415.689 559.981 425.163 559.694C468.783 558.373 457.521 561.085 460.157 594.877C462.187 594.167 463.875 593.473 465.86 594.698C468.002 599.472 459.207 606.627 455.544 609.063C453.093 607.539 449.025 604.005 447.682 601.465C444.503 595.455 448.739 594.163 452.891 592.63C453.401 584.689 453.083 574.358 453.007 566.237C438.677 565.95 423.286 566.282 408.875 566.331C388.197 566.383 368.325 566.216 347.576 566.555L347.547 595.579C349.781 594.321 352.22 592.736 354.613 594.176C355.816 598.172 347.729 606.852 344.402 607.813C341.606 608.621 331.005 597.832 336.15 594.268C338.072 593.93 338.639 594.28 340.606 594.88L341.279 595.09C341.206 589.965 339.931 564.252 343.501 562.108C350.367 557.986 380.891 559.525 389.094 559.591C389.038 549.618 388.121 526.232 390.802 517.656Z"/><path fill="#010101" fill-opacity="0.98823529" d="M255.063 660.497L255.469 660.417C256.062 670.441 256.825 727.817 254.821 734.664C253.876 735.524 254.421 735.248 253.193 735.506L253.243 734.886C254.332 733.115 253.855 722.726 253.872 719.936C253.992 700.082 252.552 680.25 255.063 660.497Z"/><path fill="#010101" fill-opacity="0.98431373" d="M910.922 462.613C911.625 457.529 911.255 442.954 911.264 437.096C911.638 437.759 911.53 440.338 911.539 441.294C912 439.878 911.946 439.347 912.081 437.865C914.487 453.382 912.121 474.182 912.457 490.277C912.542 494.312 911.552 499.195 911.452 503.341L910.049 503.186C911.374 492.068 910.194 474.549 910.922 462.613Z"/></svg>