<?xml version="1.0" encoding="UTF-8" standalone="no"?>
<svg
   width="974"
   height="777"
   viewBox="30 95 974 777"
   version="1.1"
   id="svg119"
   sodipodi:docname="hero-illustration-order.svg"
   inkscape:version="1.4.3 (0d15f75042, 2025-12-25)"
   xmlns:inkscape="http://www.inkscape.org/namespaces/inkscape"
   xmlns:sodipodi="http://sodipodi.sourceforge.net/DTD/sodipodi-0.dtd"
   xmlns="http://www.w3.org/2000/svg"
   xmlns:svg="http://www.w3.org/2000/svg">
  <sodipodi:namedview
     id="namedview119"
     pagecolor="#ffffff"
     bordercolor="#000000"
     borderopacity="0.25"
     inkscape:showpageshadow="2"
     inkscape:pageopacity="0.0"
     inkscape:pagecheckerboard="0"
     inkscape:deskcolor="#d1d1d1"
     inkscape:zoom="1.0566281"
     inkscape:cx="486.92631"
     inkscape:cy="388.5"
     inkscape:window-width="1920"
     inkscape:window-height="1030"
     inkscape:window-x="0"
     inkscape:window-y="0"
     inkscape:window-maximized="1"
     inkscape:current-layer="svg119" />
  <path
     fill="#3f4041"
     d="m 456.57419,293.02141 c -6.7167,0.0925 -30.84245,1.48426 -32.14908,-2.76571 -3.56451,-11.5955 -2.42396,-45.59975 -2.60747,-57.64989 -0.37631,-17.27736 -0.65042,-34.55807 -0.82347,-51.83877 -0.0952,-8.0598 -1.48667,-22.01095 0.76424,-29.24504 0.41347,-1.33048 1.14984,-1.90213 2.41234,-2.51611 8.77828,-4.27003 59.48626,-3.79422 67.94862,-1.01402 5.09531,1.67481 8.54483,10.57925 10.54485,14.94734 2.1998,4.89293 4.35895,9.80146 6.4786,14.72671 24.03168,-0.14152 48.06451,-0.15155 72.09618,-0.0279 11.91537,0.12369 24.22912,0.27078 36.11081,1.24803 6.63888,0.54601 7.57734,4.96201 7.34504,10.44107 -1.29966,30.75493 -4.22885,61.5288 -7.35665,92.15781 -0.32057,3.15238 -1.37168,7.24524 -2.80143,10.05776 -4.10343,2.96406 -34.08523,1.62466 -40.94595,1.58566 -18.81906,-0.10698 -37.92849,0.15377 -56.73477,-0.1248 -18.61,0.56941 -41.5592,0.32092 -60.28186,0.0178 z"
     id="path2"
     style="stroke-width:1.13764" />
  <path
     fill="#059669"
     d="m 425.47622,180.62664 122.18627,-0.32872 c 14.47289,-0.0691 28.94579,-0.0212 43.41636,0.14374 6.86072,0.0557 13.28589,-0.32649 20.16171,0.16603 9.39269,0.67193 8.47165,7.24524 8.2591,14.10604 -0.92568,29.73868 -3.91875,59.32581 -5.73875,89.01769 -0.0987,1.61241 -0.50523,3.08998 -1.3589,4.46949 -6.14758,4.11515 -20.01884,2.60637 -27.64148,2.76349 -16.03272,0.33095 -32.42318,-0.53375 -48.43965,0.009 -10.9444,-0.51926 -26.90628,-0.18609 -37.94939,0.0156 -12.34395,-0.12257 -61.18315,1.24134 -69.15654,-2.05032 -5.34386,-5.44452 -3.89088,-39.0153 -3.86184,-48.08132 z"
     id="path3"
     style="stroke-width:1.13764" />
  <path
     fill="#ffffff"
     d="m 473.29799,216.82496 c 7.86421,-0.039 18.52173,-0.82458 24.87605,4.02266 7.98965,6.09527 6.10228,16.05051 0.30778,22.82662 -7.63657,5.64732 -15.33701,4.48175 -24.82843,4.5397 -0.0267,-10.46337 -0.14634,-20.92673 -0.3554,-31.38898 z"
     id="path4"
     style="stroke-width:1.13764" />
  <path
     fill="#059669"
     d="m 477.77424,220.21469 c 16.01647,-1.00399 28.87145,6.25351 17.17908,21.73237 -5.71552,4.35918 -10.0733,3.59365 -17.25226,3.48333 -0.0894,-8.40523 -0.065,-16.81158 0.0732,-25.2157 z"
     id="path5"
     style="stroke-width:1.13764" />
  <path
     fill="#ffffff"
     d="m 515.27066,226.13725 c 4.11968,-0.92822 8.44262,0.33875 11.31838,3.31841 2.87577,2.97855 3.86184,7.21069 2.58192,11.0818 -1.27993,3.87 -4.6284,6.7828 -8.76783,7.62633 -6.3067,1.2848 -12.517,-2.54062 -13.92352,-8.57795 -1.40653,-6.03621 2.51455,-12.03454 8.79105,-13.44859 z"
     id="path6"
     style="stroke-width:1.13764" />
  <path
     fill="#059669"
     d="m 515.48669,229.94595 c 2.74568,-0.81121 5.73295,-0.1326 7.8073,1.77287 2.07436,1.90658 2.91061,4.74027 2.1847,7.40681 -0.72591,2.66654 -2.89899,4.74696 -5.68068,5.4356 -4.16498,1.03296 -8.42752,-1.31488 -9.59942,-5.28628 -1.17191,-3.9714 1.17655,-8.1144 5.2881,-9.329 z"
     id="path7"
     style="stroke-width:1.13764" />
  <path
     fill="#ffffff"
     d="m 563.21554,225.66812 c 2.11385,-0.0145 7.61334,0.46578 8.43333,2.48937 -2.28343,1.19565 -6.11042,1.09425 -9.20802,1.96452 l -0.42974,0.89479 c 2.34498,5.08794 11.94905,7.30096 10.52046,13.74166 -2.06274,2.41025 -4.31248,2.90501 -7.47861,3.42873 -2.86531,-0.12034 -5.80031,0.0591 -7.98036,-1.74612 1.08248,-2.33559 7.40428,-1.50989 11.21385,-2.99303 l 0.27062,-0.84577 c -3.84558,-5.7476 -19.8121,-9.11504 -5.34153,-16.93415 z"
     id="path8"
     style="stroke-width:1.13764" />
  <path
     fill="#ffffff"
     d="m 542.93188,225.70378 c 3.26137,-0.0791 7.1023,0.18052 9.72719,2.29436 l -0.50523,0.83796 c -3.82468,1.66924 -15.71682,-1.69486 -15.00368,9.21199 0.1324,2.11831 1.18933,4.08506 2.91177,5.41555 3.0012,2.35119 6.65862,1.64249 10.19177,1.19342 l 1.43788,0.45241 -0.21836,0.89925 c -8.2893,6.42956 -16.43227,0.44684 -18.93869,-8.26149 2.23,-6.74937 4.13595,-8.71947 10.39735,-12.04345 z"
     id="path9"
     style="stroke-width:1.13764" />
  <path
     fill="#2e2d2e"
     d="m 498.37149,290.98891 c 11.04311,-0.20169 27.00499,-0.53486 37.94939,-0.0156 5.13131,0.6385 38.48482,0.0346 39.63815,1.26697 -4.37172,0.45798 -11.54139,0.23512 -16.11636,0.22175 l -27.82382,-0.0702 c -4.13595,-0.01 -11.47983,-0.40784 -15.1628,0.61176 -18.61,0.56941 -41.5592,0.32092 -60.28186,0.0178 -4.55639,-1.29259 -15.27198,-0.068 -20.55079,-0.85467 12.38228,-1.44303 32.56837,-0.0134 45.56389,-0.59727 5.23004,-0.23512 11.65056,0.40449 16.7842,-0.58056 z"
     id="path10"
     style="stroke-width:1.13764" />
  <path
     fill="#ffffff"
     d="m 431.09186,151.16431 c 7.13018,-0.40673 15.65642,-0.10252 22.97823,-0.14709 11.60643,-0.0691 23.70763,-0.41341 35.25947,0.10029 3.37635,3.55241 13.23478,21.47942 14.89566,26.18403 -1.59235,0.92488 -2.10456,0.57275 -4.28693,0.59393 -24.34411,-0.35881 -50.4513,0.48472 -74.42258,-0.65856 -0.0499,-6.58668 -0.80721,-17.04559 1.5099,-23.074 0.69803,-1.81744 2.31245,-2.36345 4.06625,-2.9986 z"
     id="path11"
     style="stroke-width:1.13764" />
  <path
     fill="#2E2D2E"
     d="M847.821 427.892L885.573 427.755C890.892 427.738 906.219 427.254 910.682 428.584C912.343 430.415 912.413 435.003 912.488 437.477C912.697 444.367 913.437 502.958 911.572 504.458C910.201 505.56 907.587 505.49 905.883 505.56C883.582 506.478 860.964 505.811 838.622 505.879L809.289 505.947C803.818 505.955 798.162 506.248 792.719 505.777C791.685 505.687 790.278 505.845 789.706 504.861C787.697 501.405 787.693 428.391 788.011 420.025C788.115 417.301 788.341 414.672 788.995 412.019C791.544 409.64 801.833 410.074 805.842 410.025C815.236 409.922 824.631 410.073 834.017 410.477L835.968 410.668C838.206 412.149 845.437 424.332 847.821 427.892Z"
     id="path12" />
  <path
     fill="white"
     d="M805.842 410.025C815.236 409.922 824.631 410.073 834.017 410.477L834.415 411.872C837 412.775 842.692 425.269 844.259 428.326C826.441 428.646 808.618 428.65 790.799 428.338C790.174 409.576 791.752 411.918 809.613 411.941C807.946 411.766 807.102 411.775 805.532 411.118L805.842 410.025Z"
     id="path13" />
  <path
     fill="#060606"
     d="M805.842 410.025C815.236 409.922 824.631 410.073 834.017 410.477L834.415 411.872C828.201 412.535 815.968 412.063 809.613 411.941C807.946 411.766 807.102 411.775 805.532 411.118L805.842 410.025Z"
     id="path14" />
  <path
     fill="white"
     d="M802.196 430.488C806.356 427.901 816.404 429.891 820.927 430.152L821.369 430.482C841.685 431.378 861.889 430.378 882.191 430.499C890.251 430.547 901.389 430.081 909.236 431.008C909.957 437.689 909.914 451.709 909.943 458.759C910.087 473.526 909.962 488.295 909.567 503.057C898.087 504.051 878.864 503.494 866.858 503.515L790.913 503.497C790.208 481.079 790.327 453.302 790.784 430.73C794.59 430.758 798.395 430.677 802.196 430.488Z"
     id="path15" />
  <path
     fill="#060606"
     d="M802.196 430.488C806.356 427.901 816.404 429.891 820.927 430.152L821.369 430.482C816.543 430.847 807.162 430.617 802.196 430.488Z"
     id="path16" />
  <defs
     id="defs17">
    <linearGradient
       id="gradient_0"
       gradientUnits="userSpaceOnUse"
       x1="584.93976"
       y1="518.54016"
       x2="643.13293"
       y2="410.72095">
      <stop
         offset="0"
         stop-color="#1A191B"
         id="stop16" />
      <stop
         offset="1"
         stop-color="#3B3939"
         id="stop17" />
    </linearGradient>
  </defs>
  <path
     fill="url(#gradient_0)"
     d="M575.128 410.035C584.747 409.995 593.956 410.287 603.452 410.331L604.758 410.508C607.167 412.107 614.024 424.264 616.374 427.973C624.672 427.898 675.625 426.6 678.291 429.147C681.132 435.837 680.261 495.872 679.02 505.013C672.894 505.982 665.438 505.698 659.175 505.694L630.132 505.658C607.877 505.681 585.448 506.075 563.184 505.834C561.175 505.812 559.301 505.837 557.807 504.747C557.021 503.08 556.71 500.968 556.686 499.121C556.413 477.732 556.556 456.327 556.341 434.934C556.271 427.959 555.771 419.078 557.083 412.316C559.341 410.058 571.209 410.189 575.128 410.035Z"
     id="path17" />
  <path
     fill="white"
     d="M575.128 410.035C584.747 409.995 593.956 410.287 603.452 410.331L602.996 411.724C605.793 413.434 611.094 424.89 612.847 428.328C594.997 428.651 577.143 428.671 559.292 428.389C559.224 425.71 559.183 423.031 559.168 420.352C559.208 410.559 565.857 411.91 573.324 411.978C572.988 411.555 573.179 411.857 572.974 410.967L575.128 410.035Z"
     id="path18" />
  <path
     fill="#060606"
     d="M575.128 410.035C584.747 409.995 593.956 410.287 603.452 410.331L602.996 411.724C598.422 412.566 578.973 412.048 573.324 411.978C572.988 411.555 573.179 411.857 572.974 410.967L575.128 410.035Z"
     id="path19" />
  <path
     fill="white"
     d="M574.358 430.737C586.234 430.592 598.1 430.967 609.958 430.879C632.225 430.712 654.708 430.234 676.967 430.699C677.234 445.711 677.288 460.726 677.129 475.739C677.097 484.111 677.356 495.215 676.567 503.319C672.38 503.499 667.823 503.463 663.606 503.511C628.975 503.406 594.053 504.027 559.49 503.467C559.246 478.994 558.94 455.465 559.069 430.871C564.165 430.868 569.262 430.823 574.358 430.737Z"
     id="path20" />
  <path
     fill="white"
     d="M203.566 427.914C206.133 427.863 208.783 427.706 211.344 427.862C213.059 427.966 215.756 428.649 216.712 430.255C218.202 432.762 217.933 497.242 216.993 503.037C216.853 503.901 216.753 504.724 215.935 505.177C214.76 505.828 213.62 505.935 212.297 505.972C196.045 506.433 179.52 505.715 163.235 505.683C151.542 505.66 103.267 507.098 95.6718 504.624C93.8334 502.664 94.2717 488.977 94.2436 485.617L94.0537 451.892C94.017 444.74 92.5973 416.044 95.3687 411.243C97.853 409.554 105.601 410.314 108.997 410.434L135.241 410.546L142.602 410.478C145.976 416.368 149.514 422.162 153.211 427.854C158.628 427.865 166.448 427.662 171.663 428.01C181.766 427.647 193.417 427.722 203.566 427.914Z"
     id="path21" />
  <path
     fill="#2E2D2E"
     d="M203.566 427.914C206.133 427.863 208.783 427.706 211.344 427.862C213.059 427.966 215.756 428.649 216.712 430.255C218.202 432.762 217.933 497.242 216.993 503.037C216.853 503.901 216.753 504.724 215.935 505.177C214.76 505.828 213.62 505.935 212.297 505.972C196.045 506.433 179.52 505.715 163.235 505.683C151.542 505.66 103.267 507.098 95.6718 504.624C93.8334 502.664 94.2717 488.977 94.2436 485.617L94.0537 451.892C94.017 444.74 92.5973 416.044 95.3687 411.243C97.853 409.554 105.601 410.314 108.997 410.434L111.5 412.129C95.7052 412.36 96.5933 412.387 96.8873 428.219C108 428.494 119.336 428.272 130.273 428.588C126.978 429.041 124.126 428.934 120.985 429.558L122.092 429.606C120.302 429.769 113.457 429.965 112.631 430.505C107.316 430.712 101.998 430.829 96.6786 430.853L96.6388 478.631C96.6363 486.227 96.3644 495.986 96.7084 503.453C135.92 503.685 175.133 503.682 214.345 503.442C215.396 481.296 214.622 453.108 214.529 430.507L202.055 430.538L202.208 429.982L203.117 429.714L200.757 429.135C201.228 428.426 202.515 428.255 203.566 427.914Z"
     id="path22" />
  <path
     fill="white"
     d="M111.5 412.129C114.61 412.119 119.319 412.261 122.293 412.086C128.773 412.554 135.019 412 141.104 412.374C143.753 416.803 147.635 423.688 149.854 428.337C143.326 428.361 136.799 428.444 130.273 428.588C119.336 428.272 108 428.494 96.8873 428.219C96.5933 412.387 95.7052 412.36 111.5 412.129Z"
     id="path23" />
  <defs
     id="defs24">
    <linearGradient
       id="gradient_1"
       gradientUnits="userSpaceOnUse"
       x1="147.82616"
       y1="431.3425"
       x2="149.2957"
       y2="411.54144">
      <stop
         offset="0"
         stop-color="#252323"
         id="stop23" />
      <stop
         offset="1"
         stop-color="#4A494B"
         id="stop24" />
    </linearGradient>
  </defs>
  <path
     fill="url(#gradient_1)"
     d="M108.997 410.434L135.241 410.546L142.602 410.478C145.976 416.368 149.514 422.162 153.211 427.854C158.628 427.865 166.448 427.662 171.663 428.01C181.766 427.647 193.417 427.722 203.566 427.914C202.515 428.255 201.228 428.426 200.757 429.135L203.117 429.714L202.208 429.982L202.055 430.538C172.743 430.486 141.574 431.405 112.631 430.505C113.457 429.965 120.302 429.769 122.092 429.606L120.985 429.558C124.126 428.934 126.978 429.041 130.273 428.588C136.799 428.444 143.326 428.361 149.854 428.337C147.635 423.688 143.753 416.803 141.104 412.374C135.019 412 128.773 412.554 122.293 412.086C119.319 412.261 114.61 412.119 111.5 412.129L108.997 410.434Z"
     id="path24" />
  <path
     fill="#060606"
     d="M171.663 428.01C181.766 427.647 193.417 427.722 203.566 427.914C202.515 428.255 201.228 428.426 200.757 429.135L203.117 429.714L202.208 429.982C196.327 430.397 178.399 430.569 173.249 429.223L175.784 429.413C173.072 428.127 173.552 429.278 171.663 428.01Z"
     id="path25" />
  <path
     fill="#060606"
     d="M108.997 410.434L135.241 410.546C137.01 410.829 140.193 411.237 141.802 411.693C137.277 411.757 126.367 411.62 122.293 412.086C119.319 412.261 114.61 412.119 111.5 412.129L108.997 410.434Z"
     id="path26" />
  <defs
     id="defs27">
    <linearGradient
       id="gradient_2"
       gradientUnits="userSpaceOnUse"
       x1="338.98953"
       y1="510.20193"
       x2="447.01047"
       y2="423.29807">
      <stop
         offset="0"
         stop-color="#121213"
         id="stop26" />
      <stop
         offset="1"
         stop-color="#3C393A"
         id="stop27" />
    </linearGradient>
  </defs>
  <path
     fill="url(#gradient_2)"
     d="M332.913 457.06C332.324 451.158 331.611 414.563 333.971 411.412C337.44 409.605 343.663 410.362 347.779 410.55C355.089 410.456 362.401 410.455 369.711 410.548L380.628 410.645L391.299 427.879C399.793 427.784 449.054 425.893 452.709 429.825C453.897 431.103 454.134 434.001 454.248 435.655C454.911 445.258 454.096 455.264 454.086 464.912C454.075 474.643 455.646 493.31 453.658 501.727C453.363 502.974 452.862 504.158 452.347 505.327C446.843 506.115 438.968 505.857 433.239 505.84L404.277 505.75C396.113 505.729 337.665 506.602 333.932 504.809C333.9 504.711 333.869 504.612 333.835 504.515C331.753 498.407 332.845 465.406 332.913 457.06Z"
     id="path27" />
  <path
     fill="white"
     d="M335.034 430.82L451.085 430.573C451.192 454.039 451.739 480.117 450.981 503.438L374.589 503.548C365.955 503.592 342.106 504.252 335.013 503.383C335.601 488.742 335.194 466.632 334.915 451.765C335.001 444.783 335.04 437.802 335.034 430.82Z"
     id="path28" />
  <path
     fill="white"
     d="M344.641 412.07C345.674 412.089 347.369 412.187 348.331 412.055C356.976 412.828 370.637 412.489 379.587 412.491C382.306 417.546 385.531 423.264 388.026 428.373C382.096 428.454 337.433 429.422 335.339 427.679C335.106 426.233 335.057 425.735 335.025 424.272C335.315 413.573 333.774 413.881 344.641 412.07Z"
     id="path29" />
  <path
     fill="#060606"
     d="M332.913 457.06C332.324 451.158 331.611 414.563 333.971 411.412C337.44 409.605 343.663 410.362 347.779 410.55L344.856 411.416L344.641 412.07C333.774 413.881 335.315 413.573 335.025 424.272L334.485 424.356C334.375 429.791 333.978 446.831 334.915 451.765C335.194 466.632 335.601 488.742 335.013 503.383L333.932 504.809C333.9 504.711 333.869 504.612 333.835 504.515C331.753 498.407 332.845 465.406 332.913 457.06Z"
     id="path30" />
  <path
     fill="#3F4041"
     d="M332.913 457.06C332.324 451.158 331.611 414.563 333.971 411.412C337.44 409.605 343.663 410.362 347.779 410.55L344.856 411.416L344.641 412.07C333.774 413.881 335.315 413.573 335.025 424.272L334.485 424.356L334.143 423.429C332.763 428.187 333.714 450.843 332.913 457.06Z"
     id="path31" />
  <path
     fill="#060606"
     d="M347.779 410.55C355.089 410.456 362.401 410.455 369.711 410.548L372.25 411.205L372.374 411.622C367.992 412.616 354.025 411.315 348.331 412.055C347.369 412.187 345.674 412.089 344.641 412.07L344.856 411.416L347.779 410.55Z"
     id="path32" />
  <path
     fill="#059669"
     d="M510.087 297.181C511.94 297.137 513.547 297.026 514.913 298.049C515.56 302.055 515.412 310.972 515.432 315.317L515.545 345.118L753.193 345.037L814.114 345.022C822.084 345.024 840.768 344.507 847.635 345.989C850.397 348.945 849.607 361.089 849.598 365.579L849.506 392.445C851.748 390.239 852.346 389.469 855.351 388.889C856.83 389.397 856.277 388.937 857.026 390.361C857.09 393.835 856.06 395.614 853.989 398.294C848.29 405.668 844.493 406.369 838.692 398.571C836.806 396.035 835.247 393.734 835.663 390.459C837.665 387.613 840.462 389.866 842.486 391.555L842.688 352.089L624.505 352.082C624.48 365.375 624.335 378.668 624.07 391.958C626.267 389.936 627.434 388.621 630.526 389.557L631.205 390.832C631.165 394.726 629.826 396.583 627.418 399.487C621.744 406.331 618.3 405.426 613.175 398.843C611.132 396.218 609.354 393.764 609.761 390.319C611.877 387.581 614.113 389.365 616.293 391.003L616.842 391.423C616.86 378.294 617.075 365.166 617.487 352.043L496.943 352.178L403.429 352.033C403.493 365.51 403.091 379.399 403.018 392.954C405.247 391.25 406.394 389.938 409.387 390.77C412.005 395.016 405.844 400.334 403.599 403.398C397.986 411.059 388.046 396.519 388.736 391.296C390.948 388.701 393.28 390.618 395.439 392.266L395.99 392.694C395.941 379.175 396.056 365.656 396.334 352.139L167.165 352.047L167.234 392.57L167.625 392.781C169.494 391.128 171.459 389.176 173.65 391.519C174.997 396.485 169.67 402.324 166.282 405.335C161.571 409.521 151.992 396.89 152.826 391.705C155.112 389.173 157.646 391.312 159.867 392.98L159.91 365.058C159.919 360.685 159.221 348.849 161.866 345.953C168.062 344.484 187.439 344.996 194.939 345.004L255.458 345.043L508.416 345.07C508.457 331.099 508.04 312.797 508.708 298.556C508.748 297.702 509.178 297.722 510.087 297.181Z"
     id="path33" />
  <path
     fill="#059669"
     d="M153.43 518.364C155.176 518.86 155.593 518.869 157.001 520.075C158.678 523.557 157.875 553.218 157.804 559.456L195.373 559.433C200.678 559.427 216.937 558.603 220.524 561.13C222.245 565.839 221.537 588.971 221.562 596.166C223.643 594.232 226.523 591.567 228.69 594.914C229.248 601.428 219.764 612.475 213.561 605.86C210.953 603.078 204.308 597.107 208.747 593.808C210.797 593.469 211.011 593.626 213.109 594.181L213.695 594.342C214.844 591.524 214.327 570.832 214.302 566.43C194.451 566.203 174.141 566.421 154.25 566.424L93.6433 566.417C93.7446 576.421 93.7799 586.425 93.7491 596.43C95.7031 594.435 97.6244 592.371 100.485 593.942C102.7 598.484 97.755 602.473 95.5356 605.525C89.2279 614.201 78.6717 600.77 79.7159 594.737C81.9011 592.226 83.9086 593.802 86.006 595.488L86.4958 595.89C86.4954 589.306 85.6935 566.086 87.5425 561.439C91.5027 558.463 106.782 559.431 112.127 559.437L150.888 559.512L150.6 536.157C150.549 531.705 150.328 526.838 150.823 522.427C151.078 520.15 151.721 519.664 153.43 518.364Z"
     id="path34" />
  <path
     fill="#059669"
     d="M847.975 517.946C849.81 517.793 850.331 517.604 852.014 518.393C854.373 521.23 853.596 527.277 853.665 531.114C853.876 540.416 853.962 549.719 853.925 559.023L910.626 559.039C918.223 559.034 940.2 558.024 946.312 560.68C948.48 563.151 947.539 591.739 947.518 596.641C949.736 594.39 950.52 593.414 953.631 593.31C959.069 596.515 947.302 609.248 943.329 608.375C938.649 607.347 932.44 599.353 933.476 594.398C935.707 591.995 938.001 593.841 940.017 595.527L940.494 595.934L940.538 566.303C933.544 565.951 924.757 566.179 917.628 566.173L823.822 566.191L823.78 596.244C825.236 594.715 825.45 594.361 827.261 593.379C829.204 593.299 828.267 593.124 830.118 594.149C832.656 598.617 826.994 603.635 824.084 606.725C818.6 612.548 808.843 600.824 809.8 595.039C812.026 592.149 814.124 593.807 816.452 595.569C816.531 588.882 816.542 582.193 816.485 575.505C816.428 571.784 815.801 567.692 816.288 564.024C816.45 562.804 816.85 561.566 817.743 560.674C820.772 557.645 841.349 558.982 846.765 558.98L846.497 534.499C846.455 530.105 845.69 521.382 847.975 517.946Z"
     id="path35" />
  <path
     fill="#059669"
     d="M390.421 518.359C392.338 518.403 392.355 518.309 394.172 519.144C396.37 521.65 395.587 531.186 395.56 534.751L395.357 559.486L434.396 559.45C439.38 559.445 454.918 558.647 458.48 561.164C460.336 565.515 459.548 589.693 459.529 596.077C461.62 594.06 463.049 592.504 466.093 593.413C469.103 597.373 459.551 609.39 454.941 608.431C451.813 607.137 449.186 602.456 446.657 599.999C444.369 597.775 444.29 595.438 446.79 593.648C448.865 593.314 449.2 593.538 451.324 594.119L451.963 594.298C452.748 590.871 452.384 571.303 452.373 566.498C438.074 566.156 422.722 566.428 408.342 566.423L347.483 566.457L347.5 596.201C349.274 594.329 351.587 592.167 354.319 593.356C357.045 598.281 348.002 606.773 344.192 609.084C339.859 606.605 333.081 599.686 333.281 594.451C334.804 591.803 338.379 593.697 340.455 594.875C340.422 587.291 339.638 569.007 341.268 561.484C341.852 558.789 357.008 559.409 360.411 559.415L388.24 559.48C388.201 548.098 387.758 532.287 388.778 520.72C388.828 520.154 389.967 518.85 390.421 518.359Z"
     id="path36" />
  <path
     fill="#059669"
     d="M616.909 517.951C618.798 517.811 619.585 517.561 621.245 518.462C621.594 518.9 621.944 519.339 622.293 519.777C622.972 530.096 622.596 549.022 622.556 558.922C632.885 559.015 683.319 557.518 688.957 560.433C690.838 563.574 690.005 591.034 689.975 596.353C691.828 594.5 694.513 591.752 697.236 593.269C699.59 597.794 690.639 608.289 686.194 607.754C681.525 607.192 675.686 599.105 676.277 594.311C678.321 591.565 680.144 592.932 682.486 594.582L683.007 594.956C682.857 585.48 683.057 575.561 683.107 566.054L649.75 566.004L583.329 565.978C583.281 569.451 582.626 593.987 583.509 595.385C585.941 593.877 587.097 593.193 589.915 594.357C590.597 595.162 591.272 595.669 590.932 596.977C590.281 599.484 582.698 607.453 580.731 608.633C575.801 609.192 566.995 598.505 569.906 593.873C572.495 592.822 573.804 593.958 575.873 595.421C575.957 589.104 575.976 582.786 575.93 576.468C575.744 556.75 575.315 558.726 594.209 558.997C601.256 559.031 608.304 559.011 615.351 558.937C615.426 550.356 615.428 541.775 615.359 533.194C615.347 529.246 614.595 520.799 616.909 517.951Z"
     id="path37" />
  <path
     fill="#059669"
     d="M369.543 614.326C381.053 613.034 391.434 621.313 392.733 632.823C394.033 644.333 385.759 654.719 374.25 656.025C362.731 657.332 352.335 649.05 351.034 637.53C349.734 626.011 358.022 615.62 369.543 614.326Z"
     id="path38" />
  <path
     fill="white"
     d="M385.139 622.844C386.571 623.569 386.651 623.828 386.817 625.183C385.342 628.811 372.976 640.195 369.372 643.789L364.251 640.288C362.765 639.385 362.123 639.005 362.061 637.325C364.657 635.102 366.848 637.047 368.893 638.888C374.337 633.548 379.614 628.124 385.139 622.844Z"
     id="path39" />
  <path
     fill="#059669"
     d="M484.489 614.13C489.249 613.959 493.031 614.326 497.234 616.808C502.235 619.826 505.766 624.777 506.99 630.488C509.841 643.571 501.664 653.4 489.072 655.867C483.903 656.49 478.655 655.33 474.379 652.312C469.972 649.158 467.02 644.362 466.189 639.007C465.198 633.151 466.611 627.143 470.108 622.342C473.918 617.18 478.429 615.139 484.489 614.13Z"
     id="path40" />
  <path
     fill="white"
     d="M499.999 622.822C501.402 623.537 501.583 624.068 501.647 625.406C499.904 629.212 488.217 639.844 484.395 643.84L479.404 640.629C477.757 639.035 477.783 639.513 477.191 637.594L477.704 636.746C480.826 636.007 481.415 636.952 483.82 638.822C489.244 633.636 494.664 628.123 499.999 622.822Z"
     id="path41" />
  <path
     fill="#059669"
     d="M849.589 614.102C854.719 613.878 858.429 614.101 863.054 616.941C868 620.024 871.444 625.022 872.564 630.742C873.675 636.423 872.442 642.311 869.145 647.069C865.219 652.77 860.644 654.624 854.263 655.914C849.113 656.123 844.644 655.284 840.262 652.346C835.729 649.329 832.606 644.61 831.599 639.258C830.523 633.548 831.804 627.645 835.15 622.894C838.907 617.583 843.405 615.277 849.589 614.102Z"
     id="path42" />
  <path
     fill="white"
     d="M865.342 622.809C866.55 623.213 866.092 622.995 867.056 624C866.903 628.258 853.699 639.643 849.811 643.767L844.886 640.444C842.994 639.229 842.827 639.221 842.391 637.51C844.594 634.841 847.431 637.267 849.35 638.904C854.759 633.617 860.09 628.252 865.342 622.809Z"
     id="path43" />
  <path
     fill="#059669"
     d="M605.514 614.293C616.922 612.414 627.691 620.146 629.557 631.556C631.422 642.966 623.677 653.726 612.265 655.578C600.872 657.426 590.135 649.697 588.272 638.307C586.41 626.916 594.126 616.17 605.514 614.293Z"
     id="path44" />
  <path
     fill="white"
     d="M622.036 622.779C623.493 623.304 623.593 623.892 623.749 625.175C622.028 629.124 610.435 639.701 606.601 643.613C605.074 642.426 602.926 641.132 601.263 640.062C599.603 638.97 599.373 638.858 599.035 637.067C601.55 634.664 604.113 636.928 606.232 638.639L622.036 622.779Z"
     id="path45" />
  <path
     fill="#059669"
     d="M976.531 614.129C981.435 613.832 985.479 614.394 989.797 616.956C994.828 619.995 998.441 624.914 999.838 630.623C1001.1 635.857 1000.22 641.376 997.391 645.958C993.992 651.505 989.561 653.966 983.504 655.46C977.908 656.32 972.784 655.546 967.968 652.41C963.443 649.461 960.28 644.831 959.178 639.544C957.957 633.805 959.087 627.817 962.315 622.918C965.898 617.597 970.456 615.299 976.531 614.129Z"
     id="path46" />
  <path
     fill="white"
     d="M992.28 622.86C993.887 623.367 994.008 623.694 994.145 625.153C992.326 629.198 980.964 639.627 977.026 643.663L972.086 640.418C970.741 639.522 969.98 639.234 969.402 637.742C970.094 636.272 969.661 636.952 971.201 635.913C973.026 635.803 974.747 637.269 976.33 638.218C979.575 636.958 988.055 626.669 991.741 623.342L992.28 622.86Z"
     id="path47" />
  <path
     fill="#059669"
     d="M244.125 614.894C255.351 612.019 266.772 618.831 269.577 630.075C272.381 641.319 265.497 652.698 254.236 655.431C243.074 658.141 231.818 651.331 229.039 640.186C226.259 629.042 232.998 617.744 244.125 614.894Z"
     id="path48" />
  <path
     fill="white"
     d="M262.514 622.782C263.897 623.4 263.959 623.739 264.269 624.968C263.195 628.689 250.169 640.69 246.92 643.904L243.089 641.075C241.073 639.775 240.583 639.614 239.877 637.604L240.364 636.769C243.473 635.881 244.109 636.885 246.562 638.724C251.914 633.587 257.257 628.054 262.514 622.782Z"
     id="path49" />
  <path
     fill="#059669"
     d="M116.928 614.297C128.333 613.199 138.489 621.506 139.675 632.902C140.861 644.299 132.634 654.519 121.247 655.793C109.734 657.083 99.3763 648.744 98.177 637.222C96.9777 625.699 105.397 615.406 116.928 614.297Z"
     id="path50" />
  <path
     fill="white"
     d="M131.93 622.806L132.613 623.048C133.757 624.352 133.471 623.618 133.56 625.301C131.799 629.238 120.486 639.752 116.633 643.948C115.132 642.819 113.304 641.688 111.716 640.651C110.125 639.67 109.764 639.186 109.286 637.719L109.852 636.866C112.97 636.041 113.551 637.066 116.001 638.935C121.344 633.745 126.576 628.106 131.93 622.806Z"
     id="path51" />
  <path
     fill="#059669"
     d="M727.454 614.272C738.828 613.505 748.702 622.031 749.602 633.395C750.502 644.759 742.093 654.732 730.741 655.766C723.277 656.445 716.025 653.06 711.753 646.903C707.481 640.745 706.849 632.767 710.098 626.014C713.348 619.261 719.977 614.776 727.454 614.272Z"
     id="path52" />
  <path
     fill="white"
     d="M742.289 622.801C743.722 623.728 743.655 623.785 743.813 625.182C742.165 629.079 730.121 640.212 726.441 643.847C724.821 642.635 722.905 641.375 721.223 640.209C719.866 639.423 719.398 638.949 719.046 637.524C721.416 635.079 723.978 637.206 726.115 638.735C731.761 633.546 736.727 627.862 742.289 622.801Z"
     id="path53" />
  <path
     fill="#2E2D2E"
     d="M657.781 617.992C662.243 617.825 669.477 617.499 673.803 617.929L676.619 618.913L676.578 619.288L676.69 619.937C666.78 619.974 657.599 619.883 647.698 620.589C646.466 632.443 646.901 650.647 646.865 663.12C646.689 686.749 646.708 710.378 646.924 734.006C651.908 734.644 659.765 734.488 664.923 734.51L694.19 734.574C705.827 734.575 719.098 734.752 730.803 734.17C734.245 733.999 733.37 728.688 733.608 725.932C734.429 716.437 731.715 662.252 735.057 657.85L735.583 657.972C736.286 660.935 736.008 682.492 736.01 686.675L736.001 716.505C735.992 722.558 736.168 729.877 735.554 735.755C731.386 736.72 714.229 736.755 709.272 736.691C689.305 736.432 664.743 737.939 645.163 736.219C644.074 725.24 643.518 627.152 645.692 619.346C648.157 617.191 654.479 617.815 657.781 617.992Z"
     id="path54" />
  <path
     fill="#060606"
     d="M657.781 617.992C662.243 617.825 669.477 617.499 673.803 617.929L676.619 618.913L676.578 619.288C668.905 619.654 665.479 619.483 657.781 617.992Z"
     id="path55" />
  <path
     fill="#060606"
     d="M121.342 734.516C122.308 726.847 122.081 718.522 122.061 710.763L121.967 678.043C121.961 672.137 121.784 665.863 122.387 660.023L123.181 659.545L122.804 658.454L122.653 658.722L123.016 658.671C123.085 658.822 123.165 658.968 123.224 659.123C125.301 664.618 124.867 720.021 124.217 729.32C124.057 731.607 123.786 733.767 122.902 735.902C120.81 737.113 117.761 736.779 115.388 736.766C89.6576 736.627 63.899 737.326 38.16 736.887C35.4468 736.84 32.7227 736.357 32.6866 733.185C32.2748 696.906 31.5743 660.522 32.6379 624.242C32.6965 622.244 33.0399 618.609 34.1566 617.101C38.8711 615.458 65.549 616.366 72.63 616.429C69.0399 619.168 63.5454 617.457 58.4906 618.065C50.7612 618.008 43.0322 618.218 35.3173 618.695C34.0256 631.647 34.654 649.861 34.627 663.253C34.4234 686.941 34.4093 710.63 34.5848 734.318C43.1545 735.286 58.1612 734.857 67.3331 734.843C85.3366 734.916 103.34 734.807 121.342 734.516Z"
     id="path56" />
  <path
     fill="#060606"
     d="M983.285 655.684C985.073 677.967 983.386 701.65 984.187 724.043C984.28 726.656 984.371 733.564 982.909 735.625C979.186 737.425 899.844 736.586 893.862 734.913C892.192 729.974 892.985 687.622 892.782 678.968C892.561 669.535 891.991 623.259 894.336 617.13C898.522 615.271 921.495 616.035 927.71 616.095C929.15 616.381 932.215 616.683 933.124 617.343L932.752 617.581L932.957 617.244L932.614 617.167C931.165 618.335 931.599 617.967 929.357 618.111C917.586 617.989 907.48 617.932 895.755 618.583C894.797 627.791 895.372 647.984 895.356 657.749C895.122 683.024 895.148 708.301 895.435 733.576C898.864 733.833 902.65 733.959 906.094 733.935C931.107 733.765 956.276 734.81 981.27 734.021C982.725 726.369 982.049 719.868 982.267 712.531C982.744 696.458 980.288 670.685 983.285 655.684Z"
     id="path57" />
  <defs
     id="defs58">
    <linearGradient
       id="gradient_3"
       gradientUnits="userSpaceOnUse"
       x1="158.37289"
       y1="729.12305"
       x2="239.62341"
       y2="644.685">
      <stop
         offset="0"
         stop-color="#030102"
         id="stop57" />
      <stop
         offset="1"
         stop-color="#434142"
         id="stop58" />
    </linearGradient>
  </defs>
  <path
     fill="url(#gradient_3)"
     d="M252.724 734.53C253.755 727.546 253.46 717.166 253.383 709.944L253.05 675.577C253.046 672.553 252.346 660.257 254.403 658.565L255.164 658.91C256.835 665.331 256.535 730.25 254.818 734.401C254.409 735.39 254.283 735.568 253.284 735.904C249.35 737.226 177.334 737.295 168.297 736.623C166.818 736.513 165.608 736.402 164.278 735.685C163.08 731.952 163.424 723.993 163.411 719.871L163.308 695.01C163.107 677.261 163.058 659.51 163.162 641.759C163.207 635.22 163.169 628.66 163.16 622.13C163.15 613.734 175.386 616.061 181.177 616.42C179.343 616.537 174.484 616.426 173.308 617.08C173.494 617.279 174.183 618.05 174.37 618.182C172.137 618.71 169.108 617.836 166.771 619.293C164.592 624.538 165.332 722.659 165.583 734.481C194.628 734.954 223.678 734.97 252.724 734.53Z"
     id="path58" />
  <path
     fill="#2E2D2E"
     d="M779.384 736.065C776.05 736.184 772.076 736.754 769.339 735.005C767.386 731.309 768.014 624.826 769.651 617.856C773.131 616.225 792.855 617.114 798.334 617.191L798.465 617.668L798.46 618.483C796.868 619.055 796.106 618.995 794.443 619.07C791.275 619.2 786.683 619.002 783.406 618.965C779.99 619.195 774.804 619.387 771.548 619.898C771.161 624.581 770.967 629.361 770.934 634.06C770.71 667.023 769.819 700.542 770.88 733.487C788.364 735.617 814.944 732.508 832.701 734.428C835.594 734.392 838.488 734.377 841.382 734.383L842.07 735.332C840.879 736.142 839.641 735.928 838.185 736.369C833.389 736.709 824.883 736.48 819.866 736.48C806.371 736.461 792.876 736.323 779.384 736.065Z"
     id="path59" />
  <path
     fill="#060606"
     d="M832.701 734.428C835.594 734.392 838.488 734.377 841.382 734.383L842.07 735.332C840.879 736.142 839.641 735.928 838.185 736.369C833.389 736.709 824.883 736.48 819.866 736.48C806.371 736.461 792.876 736.323 779.384 736.065C780.056 735.634 781.507 734.672 782.294 734.632C795.965 733.943 809.744 734.694 823.437 734.669C826.609 734.663 829.526 734.711 832.701 734.428Z"
     id="path60" />
  <path
     fill="#060606"
     d="M798.465 617.668L798.46 618.483C796.868 619.055 796.106 618.995 794.443 619.07C791.275 619.2 786.683 619.002 783.406 618.965C789.706 617.364 792.055 617.618 798.465 617.668Z"
     id="path61" />
  <path
     fill="#CCC"
     d="M179.344 652.078C190.023 651.951 200.702 651.911 211.382 651.957C217.635 651.962 224.443 651.724 230.655 652.537C233.387 652.894 235.392 657.074 231.465 658.534C225.584 659.301 181.961 659.7 178.434 657.854C176.749 655.593 177.373 653.924 179.344 652.078Z"
     id="path62" />
  <path
     fill="#CCC"
     d="M663.113 651.734C676.301 651.347 689.718 651.663 702.919 651.754C706.267 651.778 712.266 651.943 714.338 654.841C714.491 656.728 714.655 655.81 713.511 657.615C712.11 658.261 711.137 658.295 709.625 658.502C705.86 658.654 702.094 658.766 698.327 658.837C687.499 658.981 676.58 658.771 665.746 658.72C663.262 658.709 660.747 658.6 658.893 656.792C658.465 655.12 658.708 654.779 659.234 653.155C660.845 651.674 660.513 652.136 663.113 651.734Z"
     id="path63" />
  <path
     fill="#CCC"
     d="M48.426 652.089C55.8045 651.835 98.1738 651.077 101.738 653.441C102.687 654.871 102.535 655.346 102.515 657.055C101.749 658.518 102.313 657.894 100.421 658.636C93.9661 659.032 50.2581 659.981 47.3467 657.687C46.8477 657.294 46.6624 656.392 46.6801 655.799C46.7233 654.352 47.5992 653.185 48.426 652.089Z"
     id="path64" />
  <path
     fill="#CCC"
     d="M909.002 651.652C925.2 651.307 944.885 650.821 960.937 652.687C962.187 652.832 964.68 657.032 960.38 658.15C954.962 658.74 912.752 658.974 908.403 657.911C906.904 656.354 907.32 657.238 906.959 655.239C907.576 653.167 907.546 653.277 909.002 651.652Z"
     id="path65" />
  <path
     fill="#CCC"
     d="M181.041 681.715C187.845 681.349 227.783 680.731 232.099 683.126C232.968 684.869 232.914 684.779 232.842 686.75C231.841 688.272 232.198 687.783 229.877 688.379L198.213 688.687C193.926 688.706 181.158 689.555 178.414 686.995C177.413 684.045 178.349 682.672 181.041 681.715Z"
     id="path66" />
  <path
     fill="#CCC"
     d="M909.525 681.111C919.251 680.717 954.122 680.057 961.431 682.284C962.562 683.815 962.554 685.45 961.744 687.079L960.584 687.463C946.907 688.41 932.931 687.857 919.222 688.05C916.028 688.095 912.406 688.098 909.279 687.464C907.775 686.161 908.294 686.946 907.718 684.989C908.077 682.912 908.208 682.839 909.525 681.111Z"
     id="path67" />
  <path
     fill="#CCC"
     d="M784.068 651.573C790.317 651.264 833.54 650.49 836.205 652.756C837.136 653.547 837.618 654.497 837.526 655.737C837.427 657.057 836.971 657.342 835.99 658.007C828.975 658.652 788.778 658.9 783.261 657.58C781.224 655.602 782.581 653.409 784.068 651.573Z"
     id="path68" />
  <path
     fill="#CCC"
     d="M53.5191 696.752C66.8868 696.26 86.9062 695.895 100.412 697.735C101.892 697.937 102.225 701.039 101.42 702.677C99.6418 703.507 98.6343 703.396 96.625 703.507L67.2909 703.744C64.0914 703.766 48.8611 704.983 47.6674 701.216C46.3402 697.028 50.6868 697.012 53.5191 696.752Z"
     id="path69" />
  <path
     fill="#CCC"
     d="M193.125 696.75C195.041 696.707 196.959 696.677 198.876 696.659C205.424 696.594 228.837 695.443 232.925 699.447C233.393 701.211 233.395 700.348 232.877 702.13C230.918 703.814 221.493 703.549 218.455 703.582C208.647 703.924 198.747 704.032 188.926 703.989C185.771 703.976 179.987 704.05 178.144 701.187C178.15 699.505 178.009 699.515 178.921 698.15C181.54 696.377 189.638 696.779 193.125 696.75Z"
     id="path70" />
  <path
     fill="#CCC"
     d="M796.535 680.743C806.055 680.586 815.576 680.59 825.095 680.756C827.528 680.812 834.568 680.683 836.091 682.277C836.774 684.227 836.701 684.397 836.583 686.514C834.754 688.111 825.945 687.751 823.125 687.783C811.384 687.979 796.444 688.561 784.698 687.05C782.367 686.75 782.609 684.185 783.653 682.376C786.781 680.191 792.479 680.755 796.535 680.743Z"
     id="path71" />
  <path
     fill="#CCC"
     d="M49.9587 681.658C63.3753 681.233 76.9356 681.319 90.3545 681.576C93.859 681.643 105.235 681.454 101.18 687.841L98.9545 688.302C92.0348 688.448 51.3577 689.831 47.8505 686.823C46.9167 686.022 46.9747 685.561 47.0386 684.466C48.2719 682.821 48.2685 682.873 49.9587 681.658Z"
     id="path72" />
  <path
     fill="#CCC"
     d="M187.398 666.733C194.441 666.432 230.682 664.871 233.492 670.033C233.153 672.128 233.606 671.28 232.21 672.73C229.671 673.633 228.27 673.513 225.625 673.544C210.495 673.641 194.631 674.257 179.648 672.901C177.352 672.694 178.061 669.238 179.324 667.603C181.132 666.672 185.166 666.808 187.398 666.733Z"
     id="path73" />
  <path
     fill="#CCC"
     d="M51.1933 666.694C60.0347 666.422 95.5447 664.854 101.77 668.865C102.741 670.507 102.574 669.658 102.392 671.476C100.941 673.407 101.521 672.791 98.4748 673.417C88.7069 673.545 78.9381 673.598 69.1694 673.576C65.2823 673.577 50.1318 674.497 47.7052 671.652C47.3555 669.959 47.3447 670.083 47.8772 668.44C49.1528 667.026 49.3619 667.147 51.1933 666.694Z"
     id="path74" />
  <path
     fill="#CCC"
     d="M662.466 681.272C669.887 680.975 709.529 679.999 712.977 682.904C713.898 684.549 713.85 684.422 713.714 686.309C712.613 687.81 712.943 687.333 710.578 687.87C696.994 688.411 683.064 687.93 669.456 688.085C666.531 688.119 661.933 688.322 659.791 686.375C659.259 684.576 659.369 684.571 659.731 682.799C661.044 681.297 660.243 681.909 662.466 681.272Z"
     id="path75" />
  <path
     fill="#CCC"
     d="M915.348 666.224C928.438 665.985 942.444 665.717 955.506 666.429C957.814 666.554 961.156 667.331 962.684 669.252C962.912 671.117 963.07 670.22 961.917 671.974C960.463 672.91 956.764 672.798 954.827 672.885C941.368 673.181 927.439 673.276 913.96 672.939C911.406 672.875 908.592 672.536 906.898 670.61C907.188 666.747 912.457 666.257 915.348 666.224Z"
     id="path76" />
  <path
     fill="#CCC"
     d="M912.352 696.278C927.711 695.641 943.999 695.871 959.315 696.683C962.226 696.838 962.944 699.28 961.938 701.688C960.654 702.688 959.775 702.517 958.125 702.564C945.293 703.407 932.018 703.101 919.136 703.114C915.814 703.118 909.824 703.611 908.03 700.703C907.642 696.87 909.347 696.712 912.352 696.278Z"
     id="path77" />
  <path
     fill="#CCC"
     d="M787.498 666.23C802.321 665.611 818.652 665.809 833.563 666.438C836.313 666.554 837.687 669.019 836.768 671.68C835.115 672.78 834.051 672.525 831.875 672.713C819.605 673.328 806.966 672.872 794.66 672.999C791.367 673.032 784.73 673.488 782.829 670.583C782.734 666.775 784.159 666.606 787.498 666.23Z"
     id="path78" />
  <path
     fill="#CCC"
     d="M308.724 681.281C320.836 680.648 334.1 681.152 346.299 681.124C348.789 681.118 353.855 681.034 355.531 682.79C356.18 684.43 356.064 684.789 355.972 686.51C354.748 687.895 353.011 687.644 350.719 687.931C337.836 688.222 318.914 688.81 305.828 687.628C304.631 687.52 304.07 686.341 303.586 685.478C303.474 683.731 303.398 683.831 304.207 682.3C306.196 681.028 306.004 681.446 308.724 681.281Z"
     id="path79" />
  <path
     fill="#CCC"
     d="M660.773 666.543C669.326 666.412 707.523 665.082 712.722 667.932C713.905 668.58 714.15 669.189 714.588 670.411C714.031 671.989 713.973 671.867 712.625 672.918C700.597 673.821 673.731 673.338 660.748 672.533C659.899 672.48 659.517 671.224 659.211 670.481C659.379 668.498 659.659 668.29 660.773 666.543Z"
     id="path80" />
  <path
     fill="#CCC"
     d="M307.954 651.216C321.341 650.579 336.006 651.244 349.487 651.291C351.52 651.298 354.725 651.458 356.132 652.984C356.921 654.817 356.848 654.742 356.662 656.771C355.313 658.121 355.518 657.692 353.125 658.009L324.26 658.067C319.051 658.069 313.609 658.143 308.41 657.927C305.811 657.819 304.786 657.626 303.27 655.838C302.674 651.701 304.739 651.697 307.954 651.216Z"
     id="path81" />
  <path
     fill="#CCC"
     d="M306.524 666.181C312.956 665.865 352.483 665.081 356.096 667.667C356.901 669.376 356.863 669.245 356.759 671.136C355.662 672.686 356.113 672.188 353.832 672.815C341.425 673.285 328.493 672.882 316.034 673.031C312.8 673.07 306.262 673.455 303.881 671.348C303.195 669.876 303.421 669.426 303.698 667.828C304.886 666.359 304.427 666.827 306.524 666.181Z"
     id="path82" />
  <path
     fill="#CCC"
     d="M542.461 665.575C549.247 665.283 590.024 664.632 593.055 666.405C594.229 667.787 594.132 667.697 594.307 669.52C593.579 671.328 594.141 670.563 592.386 671.752C581.84 672.688 570.91 672.461 560.312 672.452C555.923 672.448 543.607 673.368 541.199 669.785C540.986 668.108 541.704 667.131 542.461 665.575Z"
     id="path83" />
  <path
     fill="#CCC"
     d="M553.576 650.742C565.778 650.705 579.86 650.089 592.042 651.48C594.005 651.705 595.103 654.348 594.209 656.388C591.634 658.424 586.376 657.73 582.868 657.635C572.146 657.594 561.412 657.715 550.688 657.671C547.798 657.659 537.957 657.901 541.077 652.372C544.613 650.277 549.365 650.757 553.576 650.742Z"
     id="path84" />
  <path
     fill="#CCC"
     d="M671.399 696.238C678.345 696.158 712.286 694.322 714.363 699.936C712.716 703.648 706.855 702.849 703.125 702.981C694.936 703.115 686.746 703.177 678.556 703.165C673.562 703.159 662.803 703.864 659.453 700.507C658.314 695.113 668.014 696.238 671.399 696.238Z"
     id="path85" />
  <path
     fill="#CCC"
     d="M305.521 696.657C320.285 695.591 338.135 696.688 353.108 696.851C355.456 696.876 358.262 700.973 353.985 702.951C346.782 703.489 309.371 705.066 304.946 702.172C303.706 701.36 303.7 700.993 303.413 699.638C303.92 698.009 304.299 697.813 305.521 696.657Z"
     id="path86" />
  <path
     fill="#CCC"
     d="M787.962 696.275C802.681 695.775 819.611 695.567 834.419 696.703C836.941 696.897 836.946 699.798 836.069 701.826C834.583 702.995 831.917 702.671 829.875 702.676C816.598 703.217 802.86 703.097 789.556 702.755C786.985 702.689 784.727 702.635 783.196 700.476C783.029 698.737 782.968 698.847 783.829 697.342C785.393 696.263 786.072 696.391 787.962 696.275Z"
     id="path87" />
  <path
     fill="#CCC"
     d="M545.235 695.711C559.03 695.303 573.176 695.427 586.982 695.814C589.516 695.885 591.985 696.039 593.875 697.788C594.342 701.587 592.361 701.879 589.51 702.342C583.842 702.481 578.173 702.55 572.503 702.551C567.38 702.572 544.833 703.65 541.937 700.777C541.425 699.052 541.353 699.156 541.739 697.424C543.021 696.094 543.456 696.13 545.235 695.711Z"
     id="path88" />
  <path
     fill="#CCC"
     d="M542.7 680.596C550.421 680.126 587.416 679.3 592.157 681.538C593.481 682.163 593.7 682.744 594.138 684.074C593.535 685.664 593.654 685.656 592.385 686.74C582.912 687.921 553.863 687.774 543.215 686.494C542.114 686.362 541.81 685.37 541.434 684.515C541.541 682.547 541.731 682.388 542.7 680.596Z"
     id="path89" />
  <path
     fill="#CCC"
     d="M423.937 662.593C434.638 662.397 445.34 662.282 456.043 662.248C461.494 662.221 467.541 662.055 472.95 662.486C474.857 662.638 475.222 663.214 476.146 664.511C476.44 666.373 476.126 666.654 475.243 668.307C462.475 669.221 438.742 668.404 425.01 668.028C423.86 667.996 423.411 667.07 422.906 666.248C422.945 664.277 423.066 664.286 423.937 662.593Z"
     id="path90" />
  <path
     fill="#060606"
     d="M614.615 656.5C616.815 665.805 615.423 694.711 615.568 705.075C615.67 712.33 615.671 729.478 614.619 735.908C608.343 736.442 600.995 736.415 594.649 736.334C577.838 736.121 560.611 736.582 543.838 735.912C542.818 735.075 539.289 735.335 536.727 734.802L538.035 734.582L538.225 735.087C539.248 733.397 541.615 735.822 543.824 733.982C551.758 733.863 609.909 735.086 611.891 732.931C616.045 728.416 612.777 668.26 614.615 656.5Z"
     id="path91" />
  <path
     fill="#CCC"
     d="M427.885 677.117C442.344 676.209 458.511 677.267 473.099 677.113C474.265 677.101 475.177 677.714 476.027 678.437C476.806 680.1 476.723 679.267 476.348 681.013C475.034 682.202 475.311 681.822 473.125 682.044C466.705 682.524 427.131 683.598 423.899 681.416C423.279 680.108 423.413 680.132 423.696 678.674C425.264 677.183 425.321 677.606 427.885 677.117Z"
     id="path92" />
  <path
     fill="#CCC"
     d="M425.976 693.243C431.994 692.85 472.325 692.812 476.599 693.853C477.873 695.351 477.508 694.518 477.782 696.423C476.937 697.933 477.556 697.327 475.564 697.963L446.026 698.445C441.456 698.511 425.747 699.663 423.219 696.475C423.084 693.873 423.903 693.759 425.976 693.243Z"
     id="path93" />
  <path
     fill="#060606"
     d="M406.991 712.279C406.801 710.05 406.762 696.114 406.909 694.605C407.769 685.805 405.134 623.463 408.375 618.794C412.262 617.365 421.67 618.059 426.203 618.182C430.267 619.241 433.325 618.034 435.967 619.067C435.319 620 435.67 619.627 434.973 620.237C427.399 620.042 416.974 619.646 409.504 620.471C408.433 642.727 409.222 665.656 408.928 687.982C408.83 695.472 409.37 705.722 408.953 712.915C408.247 716.005 408.24 719.545 408.1 722.738C407.486 719.141 408.285 715.584 406.991 712.279Z"
     id="path94" />
  <defs
     id="defs95">
    <linearGradient
       id="gradient_4"
       gradientUnits="userSpaceOnUse"
       x1="327.53253"
       y1="714.69299"
       x2="328.95895"
       y2="737.89972">
      <stop
         offset="0"
         stop-color="#10100F"
         id="stop94" />
      <stop
         offset="1"
         stop-color="#373334"
         id="stop95" />
    </linearGradient>
  </defs>
  <path
     fill="url(#gradient_4)"
     d="M288.88 717.563C292.314 716.257 288.746 711.558 290.878 708.698L291.121 733.35C303.573 734.966 324.454 733.759 337.645 734.181C341.106 735.369 365.182 733.667 368.698 734.622L367.99 735.353L368.277 736.488C351.473 736.688 334.668 736.747 317.864 736.666C313.71 736.626 292.177 737.263 289.602 734.441C287.945 732.624 288.506 721.008 288.88 717.563Z"
     id="path95" />
  <defs
     id="defs97">
    <linearGradient
       id="gradient_5"
       gradientUnits="userSpaceOnUse"
       x1="443.78021"
       y1="721.38489"
       x2="433.2164"
       y2="744.92053">
      <stop
         offset="0"
         stop-color="#2F2E2C"
         id="stop96" />
      <stop
         offset="1"
         stop-color="#474347"
         id="stop97" />
    </linearGradient>
  </defs>
  <path
     fill="url(#gradient_5)"
     d="M406.991 712.279C408.285 715.584 407.486 719.141 408.1 722.738C408.24 719.545 408.247 716.005 408.953 712.915C409.377 719.507 409.551 726.618 410.107 733.089C425.059 733.721 440.631 733.072 455.632 733.395C458.073 733.448 469.838 733.409 471.881 733.844L470.878 734.361L472.97 734.714L473.19 735.42C472.076 735.537 471.398 735.398 470.674 735.977C462.714 736.601 449.749 736.228 441.583 736.199C431.291 736.163 417.905 736.402 407.836 735.31C406.761 729.153 406.708 718.652 406.991 712.279Z"
     id="path97" />
  <defs
     id="defs99">
    <linearGradient
       id="gradient_6"
       gradientUnits="userSpaceOnUse"
       x1="847.27332"
       y1="706.01239"
       x2="862.34424"
       y2="708.70752">
      <stop
         offset="0"
         stop-color="#0F0C0C"
         id="stop98" />
      <stop
         offset="1"
         stop-color="#3D3C3F"
         id="stop99" />
    </linearGradient>
  </defs>
  <path
     fill="url(#gradient_6)"
     d="M858.319 654.665C859.137 659.21 859.395 674.698 859.06 679.623C859.777 685.986 860.065 731.71 858.185 735.276C854.175 737.194 843.294 736.448 838.185 736.369C839.641 735.928 840.879 736.142 842.07 735.332L841.382 734.383C846.68 734.36 850.921 734.231 856.23 733.888C857.279 727.109 857.049 720.449 857.038 713.608L856.974 683.886C856.962 677.617 856.787 669.381 857.432 663.242C857.319 659.574 857.628 658.259 858.319 654.665Z"
     id="path99" />
  <path
     fill="#060606"
     d="M858.319 654.665C859.137 659.21 859.395 674.698 859.06 679.623L858.729 679.702C857.145 674.999 857.878 668.911 857.479 663.798L857.432 663.242C857.319 659.574 857.628 658.259 858.319 654.665Z"
     id="path100" />
  <defs
     id="defs101">
    <linearGradient
       id="gradient_7"
       gradientUnits="userSpaceOnUse"
       x1="473.25012"
       y1="690.96973"
       x2="506.5892"
       y2="710.73499">
      <stop
         offset="0"
         stop-color="black"
         id="stop100" />
      <stop
         offset="1"
         stop-color="#202324"
         id="stop101" />
    </linearGradient>
  </defs>
  <path
     fill="url(#gradient_7)"
     d="M493.324 654.677C494.955 664.282 493.88 690.17 494.096 700.893C494.239 707.971 494.231 730.735 493.378 736.097C488.844 736.316 475.344 736.353 470.674 735.977C471.398 735.398 472.076 735.537 473.19 735.42L472.97 734.714L470.878 734.361L471.881 733.844C478.383 733.873 484.599 734.049 491.072 733.434C493.005 719.173 491.811 704.931 492.07 690.627C492.277 679.193 491.04 665.818 493.324 654.677Z"
     id="path101" />
  <defs
     id="defs103">
    <linearGradient
       id="gradient_8"
       gradientUnits="userSpaceOnUse"
       x1="311.30002"
       y1="641.95386"
       x2="322.34543"
       y2="615.06146">
      <stop
         offset="0"
         stop-color="#1F1C1C"
         id="stop102" />
      <stop
         offset="1"
         stop-color="#504E50"
         id="stop103" />
    </linearGradient>
  </defs>
  <path
     fill="url(#gradient_8)"
     d="M289.058 641.087C288.959 635.799 288.07 623.005 290.105 618.91C294.647 616.014 324.561 616.943 331.157 617.55C333.477 621.193 335.982 627.043 337.839 631.118C340.284 631.3 343.462 631.138 345.419 632.176L345.054 632.78C342.043 633.729 339.132 633.509 335.969 633.491C333.836 628.844 331.871 624.619 329.479 620.078C322.826 619.905 296.119 618.339 292.365 621.306C290.561 625.008 291.01 632.264 291.001 636.632C290.672 635.214 290.8 634.404 289.91 633.808C289.35 636.451 289.531 639.072 289.058 641.087Z"
     id="path103" />
  <path
     fill="#060606"
     d="M377.7 655.631C379.315 663.23 379.331 728.782 377.438 735.408C375.641 737.051 370.852 736.537 368.277 736.488L367.99 735.353L368.698 734.622C365.182 733.667 341.106 735.369 337.645 734.181C343.624 734.207 371.147 734.721 374.915 733.56C378.272 727.627 375.337 669.363 377.7 655.631Z"
     id="path104" />
  <path
     fill="#060606"
     d="M289.058 641.087C289.531 639.072 289.35 636.451 289.91 633.808C290.8 634.404 290.672 635.214 291.001 636.632C291.309 660.653 291.268 684.678 290.878 708.698C288.746 711.558 292.314 716.257 288.88 717.563C289.232 692.132 288.608 666.856 289.058 641.087Z"
     id="path105" />
  <defs
     id="defs106">
    <linearGradient
       id="gradient_9"
       gradientUnits="userSpaceOnUse"
       x1="536.97693"
       y1="642.42584"
       x2="523.29517"
       y2="639.05212">
      <stop
         offset="0"
         stop-color="#100E0E"
         id="stop105" />
      <stop
         offset="1"
         stop-color="#404042"
         id="stop106" />
    </linearGradient>
  </defs>
  <path
     fill="url(#gradient_9)"
     d="M526.995 666.24C526.779 664.196 526.664 656.916 526.838 655.005C527.606 646.59 524.779 624.258 528.605 617.799C531.563 616.197 542.66 616.909 546.561 616.978C545.196 617.376 544.399 617.295 543.872 618.195C544.807 618.503 545.695 618.793 546.641 619.066L530.361 619.505C529.342 631.803 529.459 643.228 529.425 655.513C529.411 660.438 529.584 667.99 529.074 672.72C528.659 669.473 529.711 668.492 526.995 666.24Z"
     id="path106" />
  <defs
     id="defs108">
    <linearGradient
       id="gradient_10"
       gradientUnits="userSpaceOnUse"
       x1="562.4303"
       y1="629.19354"
       x2="573.5697"
       y2="620.30646">
      <stop
         offset="0"
         stop-color="#2B292B"
         id="stop107" />
      <stop
         offset="1"
         stop-color="#585657"
         id="stop108" />
    </linearGradient>
  </defs>
  <path
     fill="url(#gradient_10)"
     d="M550.778 616.92C556.746 616.916 562.866 616.832 568.817 617.061C571.275 621.743 573.089 626.078 575.154 630.923C577.919 630.937 580.112 630.721 582.672 631.704L582.666 632.266C579.664 633.422 576.765 633.176 573.486 633.268C570.882 628.686 569.304 623.905 566.958 619.641C561.065 619.57 554.119 619.665 548.337 619.071L546.641 619.066C545.695 618.793 544.807 618.503 543.872 618.195C544.399 617.295 545.196 617.376 546.561 616.978L550.778 616.92Z"
     id="path108" />
  <path
     fill="#060606"
     d="M546.561 616.978L550.778 616.92L553.001 617.9C552.109 618.753 550.654 617.916 548.337 619.071L546.641 619.066C545.695 618.793 544.807 618.503 543.872 618.195C544.399 617.295 545.196 617.376 546.561 616.978Z"
     id="path109" />
  <defs
     id="defs110">
    <linearGradient
       id="gradient_11"
       gradientUnits="userSpaceOnUse"
       x1="535.2912"
       y1="718.62146"
       x2="523.13611"
       y2="726.24744">
      <stop
         offset="0"
         stop-color="#0A0808"
         id="stop109" />
      <stop
         offset="1"
         stop-color="#464547"
         id="stop110" />
    </linearGradient>
  </defs>
  <path
     fill="url(#gradient_11)"
     d="M526.941 710.681C527.176 709.326 527.207 708.528 527.926 707.342L529.112 707.488C529.351 716.087 529.51 724.689 529.59 733.291C532.866 733.446 540.999 733.58 543.824 733.982C541.615 735.822 539.248 733.397 538.225 735.087L538.035 734.582L536.727 734.802C539.289 735.335 542.818 735.075 543.838 735.912C540.18 736.017 529.885 736.965 527.658 734.502C526.324 729.734 526.59 715.988 526.941 710.681Z"
     id="path110" />
  <path
     fill="#060606"
     d="M526.995 666.24C529.711 668.492 528.659 669.473 529.074 672.72C529.384 679.726 529.505 700.411 529.112 707.488L527.926 707.342C527.207 708.528 527.176 709.326 526.941 710.681C526.329 698.248 526.95 678.986 526.995 666.24Z"
     id="path111" />
  <defs
     id="defs112">
    <linearGradient
       id="gradient_12"
       gradientUnits="userSpaceOnUse"
       x1="438.66589"
       y1="627.89465"
       x2="458.33411"
       y2="623.10535">
      <stop
         offset="0"
         stop-color="#21201F"
         id="stop111" />
      <stop
         offset="1"
         stop-color="#575357"
         id="stop112" />
    </linearGradient>
  </defs>
  <path
     fill="url(#gradient_12)"
     d="M426.203 618.182L448.254 618.044C449.976 622.229 452.007 627.576 454.058 631.507C456.467 631.554 458.6 631.364 460.778 632.285L460.577 632.867C457.769 633.91 455.2 633.796 452.185 633.925L446.126 620.463C442.652 620.404 438.379 620.451 434.973 620.237C435.67 619.627 435.319 620 435.967 619.067C433.325 618.034 430.267 619.241 426.203 618.182Z"
     id="path112" />
  <path
     fill="#2E2D2E"
     d="M798.334 617.191L810.906 617.446C813.179 620.866 815.838 627.13 817.523 631.08C820.502 631.29 823.627 631.412 826.531 632.052C823.854 633.362 818.828 633.268 815.779 633.341C813.521 628.826 811.41 624.24 809.448 619.588C805.088 619.503 798.613 619.566 794.443 619.07C796.106 618.995 796.868 619.055 798.46 618.483L798.465 617.668L798.334 617.191Z"
     id="path113" />
  <defs
     id="defs114">
    <linearGradient
       id="gradient_13"
       gradientUnits="userSpaceOnUse"
       x1="685.28656"
       y1="627.42999"
       x2="690.37671"
       y2="622.42651">
      <stop
         offset="0"
         stop-color="#252120"
         id="stop113" />
      <stop
         offset="1"
         stop-color="#494749"
         id="stop114" />
    </linearGradient>
  </defs>
  <path
     fill="url(#gradient_13)"
     d="M673.803 617.929L687.374 617.805C689.66 620.93 692 627.726 693.388 631.516C696.066 631.546 700.161 631.466 702.653 631.888L703.309 632.439C702.336 633.139 702.734 632.983 701.522 633.149C698.837 633.458 694.904 633.445 692.115 633.509C689.627 629.464 687.776 624.717 686.058 620.313C683.461 620.021 679.428 620.013 676.69 619.937L676.578 619.288L676.619 618.913L673.803 617.929Z"
     id="path114" />
  <path
     fill="#060606"
     d="M702.653 631.888L703.309 632.439C702.336 633.139 702.734 632.983 701.522 633.149C700.1 633.001 699.637 632.921 698.251 632.576C699.348 631.996 701.291 632.001 702.653 631.888Z"
     id="path115" />
  <path
     fill="#3F4041"
     d="M72.63 616.429C74.1143 616.376 76.2085 616.083 77.1297 617.146C80.5423 621.084 81.2303 626.384 83.711 631.44C88.6327 631.638 91.7361 631.528 96.4534 632.93C91.2233 633.474 87.2815 633.489 82.058 633.514C79.8167 628.847 77.5124 622.878 75.3524 618.618C70.9798 618.516 62.558 618.527 58.4906 618.065C63.5454 617.457 69.0399 619.168 72.63 616.429Z"
     id="path116" />
  <path
     fill="#2E2D2E"
     d="M199.182 616.491L207.694 616.545C210.294 621.74 211.638 626.568 213.948 631.443C219.363 631.532 221.433 631.345 226.647 632.775C221.803 633.114 217.496 633.242 212.664 633.329C211.811 631.778 210.064 628.725 209.607 627.126C206.415 615.936 203.763 619.677 194.24 618.095C196.478 617.857 197.12 618.246 199.448 617.553L199.182 616.491Z"
     id="path117" />
  <defs
     id="defs118">
    <linearGradient
       id="gradient_14"
       gradientUnits="userSpaceOnUse"
       x1="944.50366"
       y1="622.95312"
       x2="937.99634"
       y2="626.54688">
      <stop
         offset="0"
         stop-color="#2D2727"
         id="stop117" />
      <stop
         offset="1"
         stop-color="#515051"
         id="stop118" />
    </linearGradient>
  </defs>
  <path
     fill="url(#gradient_14)"
     d="M927.71 616.095C930.839 616.107 933.967 616.194 937.091 616.358C939.408 620.171 941.783 626.991 943.475 631.334C945.423 631.378 949.355 631.346 951.107 631.657L951.746 632.502C952.164 632.497 952.712 632.278 953.15 632.145C951.572 633.383 944.078 633.245 941.907 633.272C938.897 628.04 937.838 623.493 935.395 618.521L929.357 618.111C931.599 617.967 931.165 618.335 932.614 617.167L932.957 617.244L932.752 617.581L933.124 617.343C932.215 616.683 929.15 616.381 927.71 616.095Z"
     id="path118" />
  <path
     fill="#060606"
     d="M181.177 616.42C187.178 616.296 193.182 616.32 199.182 616.491L199.448 617.553C197.12 618.246 196.478 617.857 194.24 618.095C190.735 618.446 178.834 618.119 174.37 618.182C174.183 618.05 173.494 617.279 173.308 617.08C174.484 616.426 179.343 616.537 181.177 616.42Z"
     id="path119" />
</svg>
