<?xml version="1.0" encoding="utf-8"?>
<svg xmlns="http://www.w3.org/2000/svg" viewBox="0 0 224 224" width="224" height="224">
  <!-- 3×3 Raster, Quadrate 64×64, Abstand 16, mittleres Quadrat grün -->
  <!-- Zeile 1 -->
  <g transform="translate(0,0)">
    <rect x="0" y="0" width="64" height="64" fill="#2B333D" rx="4"/>
    <rect x="10" y="10" width="44" height="44" fill="white" rx="2"/>
  </g>
  <g transform="translate(80,0)">
    <rect x="0" y="0" width="64" height="64" fill="#2B333D" rx="4"/>
    <rect x="10" y="10" width="44" height="44" fill="white" rx="2"/>
  </g>
  <g transform="translate(160,0)">
    <rect x="0" y="0" width="64" height="64" fill="#2B333D" rx="4"/>
    <rect x="10" y="10" width="44" height="44" fill="white" rx="2"/>
  </g>
  <!-- Zeile 2 -->
  <g transform="translate(0,80)">
    <rect x="0" y="0" width="64" height="64" fill="#2B333D" rx="4"/>
    <rect x="10" y="10" width="44" height="44" fill="white" rx="2"/>
  </g>
  <g transform="translate(80,80)">
    <rect x="0" y="0" width="64" height="64" fill="#2B333D" rx="4"/>
    <rect x="10" y="10" width="44" height="44" fill="#059669" rx="2"/>
  </g>
  <g transform="translate(160,80)">
    <rect x="0" y="0" width="64" height="64" fill="#2B333D" rx="4"/>
    <rect x="10" y="10" width="44" height="44" fill="white" rx="2"/>
  </g>
  <!-- Zeile 3 -->
  <g transform="translate(0,160)">
    <rect x="0" y="0" width="64" height="64" fill="#2B333D" rx="4"/>
    <rect x="10" y="10" width="44" height="44" fill="white" rx="2"/>
  </g>
  <g transform="translate(80,160)">
    <rect x="0" y="0" width="64" height="64" fill="#2B333D" rx="4"/>
    <rect x="10" y="10" width="44" height="44" fill="white" rx="2"/>
  </g>
  <g transform="translate(160,160)">
    <rect x="0" y="0" width="64" height="64" fill="#2B333D" rx="4"/>
    <rect x="10" y="10" width="44" height="44" fill="white" rx="2"/>
  </g>
</svg>
