<?xml version="1.0" encoding="UTF-8" standalone="no"?>
<svg
   width="1184"
   height="864"
   viewBox="0 0 1184 864"
   version="1.1"
   id="svg132"
   sodipodi:docname="zettelkasten.svg"
   inkscape:version="1.4.3 (0d15f75042, 2025-12-25)"
   xmlns:inkscape="http://www.inkscape.org/namespaces/inkscape"
   xmlns:sodipodi="http://sodipodi.sourceforge.net/DTD/sodipodi-0.dtd"
   xmlns="http://www.w3.org/2000/svg"
   xmlns:svg="http://www.w3.org/2000/svg">
  <defs
     id="defs132" />
  <sodipodi:namedview
     id="namedview132"
     pagecolor="#ffffff"
     bordercolor="#000000"
     borderopacity="0.25"
     inkscape:showpageshadow="2"
     inkscape:pageopacity="0.0"
     inkscape:pagecheckerboard="0"
     inkscape:deskcolor="#d1d1d1"
     inkscape:zoom="0.95023148"
     inkscape:cx="591.96102"
     inkscape:cy="432"
     inkscape:window-width="1920"
     inkscape:window-height="1030"
     inkscape:window-x="0"
     inkscape:window-y="0"
     inkscape:window-maximized="1"
     inkscape:current-layer="svg132" />
  <path
     d="M740.147 77.2036L946.004 76.7992L1017.42 76.9244C1027.36 76.9904 1060.54 76.169 1070.94 79.9805C1073.42 80.8879 1073.98 94.2571 1074.08 98.3524C1074.93 133.648 1074.64 169.074 1074.66 204.419L1074.32 406.11L1073.64 613.704L1073.22 694.226C1073.08 712.457 1073.36 731.241 1072.09 749.458C1071.2 762.327 1071.52 763.811 1057.99 764.48C1040.8 765.33 1023.5 765.355 1006.23 765.679C964.678 766.43 923.123 766.864 881.566 766.979L460.616 766.897C394.281 766.878 327.947 766.511 261.616 765.796C239.982 765.603 218.349 765.253 196.72 764.745C178.496 764.489 159.947 763.954 141.72 763.128C138.91 763.001 131.727 761.746 129.441 760.155C127.017 757.873 125.949 751.794 125.779 748.832C124.258 722.311 124.293 695.606 124.003 669.053L123.583 501.501L124.073 256.604C124.25 208.034 123.99 159.294 125.352 110.74C125.513 105.018 125.771 87.1278 129.162 82.8002C131.428 79.908 143.691 78.9877 147.912 78.8318C173.336 77.8926 198.967 78.1366 224.431 78.1365L347.754 78.1148L740.147 77.2036Z"
     id="path2" />
  <path
     fill="#FEFEFE"
     d="M703.172 82.996C784.836 81.8599 868.385 82.5914 950.18 82.5298L1020.53 82.6038C1032 82.6359 1056.7 82.2571 1066.95 84.3952C1068.82 98.5756 1068.45 112.805 1068.57 127.12L1068.69 195.198L1068.47 417.592L1067.53 648.901L1067.05 717.894C1066.87 730.268 1066.99 745.706 1065.27 757.666C1051.98 759.669 1025.83 759.376 1011.7 759.663L901.006 761.174L495.677 761.265L253.175 759.773C227.015 759.491 200.856 759.045 174.701 758.436C162.617 758.101 150.595 757.898 138.499 756.937C131.435 757.122 131.635 750.724 131.441 744.636C129.276 676.719 129.515 605.787 129.458 538.183L129.819 280.999L130.382 156.576C130.565 139.194 130.491 103.41 133.274 87.0188C142.268 84.2399 157.346 84.373 167.071 84.1593C184.516 83.8596 201.964 83.7909 219.411 83.9532L311.439 83.8773L703.172 82.996Z"
     id="path3" />
  <path
     d="M787.32 304.257C809.321 304.24 831.324 304.223 853.325 304.206C856.047 304.203 860.827 303.658 862.668 305.424C862.803 306.706 862.725 309.239 864.321 309.275C876.278 309.539 888.343 309.41 900.3 309.404L982.567 309.344C993.906 309.328 1021.15 308.269 1033.2 310.714C1038.29 311.747 1033.16 330 1038.2 332.572C1038.83 332.894 1038.57 333.734 1038.57 334.525C1037.57 335.605 1037.13 335.903 1036.77 337.342C1036.99 337.84 1037.21 338.339 1037.44 338.837C1041.94 340.556 1056.9 337.911 1060.31 340.508C1064.72 343.87 1063.36 370.414 1063.34 375.551L1063.28 414.848L1063.34 480.234C1063.35 485.042 1064.27 523.378 1061.48 527.472C1058.87 531.289 1040.5 530.366 1033.98 530.324L886.079 530.436L824.669 530.429C815.045 530.414 791.267 531.39 782.884 528.288C780.265 524.739 777.668 520.799 775.161 517.143C770.011 517.207 760.837 518.056 757.194 514.073C754.927 507.726 756.243 403.72 756.249 386.844L756.27 339.345C756.31 331.682 756.573 323.138 756.61 315.57C756.668 303.72 781.067 312.674 786.343 308.288C786.338 306.292 786.437 306.056 787.32 304.257Z"
     id="path4" />
  <path
     fill="#FEFEFE"
     d="M787.025 345.264L1057.35 345.303C1058.29 395.365 1056.92 445.788 1057.57 495.887C1057.64 501.709 1058.18 519.773 1056.83 524.356C1040.03 525.136 1018.93 524.61 1001.9 524.622L898.228 524.622L826.396 524.65C815.228 524.653 797.092 525.169 786.491 524.153C785.792 512.893 786.247 497.639 786.254 485.973L786.237 418.279L786.198 372.067C786.196 366.01 785.823 350.324 787.025 345.264Z"
     id="path5" />
  <path
     d="M864.865 379.481C889.751 379.043 915.566 379.925 940.629 379.516C947.71 379.401 977.312 379.085 981.799 379.934C984.799 383.382 984.34 424.19 982.477 427.409C972.621 427.6 868.243 428.177 864.338 426.818C862.474 422.451 863.075 382.681 864.865 379.481Z"
     id="path6" />
  <path
     fill="#059669"
     d="M868.137 383.909C880.068 383.528 894.136 383.855 906.226 383.839L979.307 383.775C979.535 396.979 979.377 410.187 978.832 423.382L867.375 423.321C867.656 411.393 867.172 395.417 868.137 383.909Z"
     id="path7" />
  <path
     d="M874.086 387.496L937.902 387.467C949.233 387.471 963.651 387.147 974.747 387.809C974.819 395.285 974.812 410.222 974.439 418.14C974.124 418.535 973.81 418.93 973.495 419.325C968.959 419.393 964.304 419.41 959.771 419.347C930.823 418.944 901.585 419.983 872.675 419.316C872.413 414.179 872.708 391.768 874.086 387.496Z"
     id="path8" />
  <path
     fill="#FEFEFE"
     d="M877.371 391.566C908.33 391.553 939.612 391.311 970.545 391.664C970.554 399.52 970.643 407.338 970.171 415.183L876.627 415.255C876.804 407.357 877.052 399.46 877.371 391.566Z"
     id="path9" />
  <path
     d="M937.697 404.962C942.714 404.656 962.131 403.555 965.13 406.202C965.583 408.189 965.644 407.222 964.814 409.192C959.652 409.32 942.022 410.413 938.126 408.413C937.065 406.673 937.324 407.414 937.697 404.962Z"
     id="path10" />
  <path
     d="M909.638 429.344C929.414 427.371 971.739 426.904 978.103 450.661C978.804 453.276 979.092 458.613 977.59 460.955C973.934 462.494 943.54 461.982 937.43 461.987C927.587 462.004 874.691 462.842 868.464 460.796C863.95 456.08 870.289 444.778 873.748 440.872C882.365 431.138 897.509 430.291 909.638 429.344Z"
     id="path11" />
  <path
     fill="#059669"
     d="M911.134 434.562C926.828 432.995 953.923 432.845 966.987 443.048C969.941 445.355 975.112 453.805 972.239 456.883C966.68 457.722 943.02 457.249 936.129 457.238C914.803 457.418 893.476 457.32 872.153 456.945C876.917 436.144 892.981 435.799 911.134 434.562Z"
     id="path12" />
  <path
     fill="#FEFEFE"
     d="M762.475 445.177C768.046 450.695 775.284 459.181 780.417 465.27L780.3 515.707C774.445 507.281 768.378 499.004 762.105 490.884C762.715 476.429 762.296 459.858 762.475 445.177Z"
     id="path13" />
  <path
     fill="#059669"
     d="M804.05 321.485C826.151 320.871 850.708 321.418 873.002 321.508L872.946 333.874L804.021 333.94C803.917 329.833 804.011 325.602 804.05 321.485Z"
     id="path14" />
  <path
     fill="#059669"
     d="M938.32 321.53L1006.66 321.545C1006.8 324.286 1007.53 332.281 1006.34 334.18C983.66 333.826 960.972 333.83 938.288 334.19L938.32 321.53Z"
     id="path15" />
  <path
     fill="#059669"
     d="M790.529 308.362C812.861 307.881 836.462 308.232 858.874 308.226C858.914 310.428 859.318 315.339 858.174 316.956L856.348 317.113C844.281 316.913 831.933 317.095 819.848 317.038C816.125 317.02 804.269 316.899 800.987 317.4C800.587 318.534 800.305 319.43 799.972 320.587C798.171 321.237 792.714 320.933 790.48 320.897L790.529 308.362Z"
     id="path16" />
  <path
     fill="#FEFEFE"
     d="M762.119 345.006C763.952 345.977 777.834 360.305 780.429 362.885C780.122 373.023 780.607 383.256 780.026 393.436C774.455 387.881 767.144 380.457 762.111 374.572C762.46 364.591 762.273 354.985 762.119 345.006Z"
     id="path17" />
  <path
     fill="#FEFEFE"
     d="M762.511 381.483C764.868 383.437 777.492 396.992 780.368 399.884L780.2 424.902C777.943 423.841 764.975 408.806 762.395 405.888C762.343 397.753 762.381 389.617 762.511 381.483Z"
     id="path18" />
  <path
     fill="#FEFEFE"
     d="M862.488 315.461C866.415 314.861 877.055 315.096 881.403 315.1L915.726 315.062L975.381 314.974C980.696 314.986 996.822 314.656 1001.34 315.276L1002.06 316.695C1000.78 316.864 998.512 317.057 996.697 317.039C952.497 316.61 907.908 318.47 863.788 316.723C863.27 316.22 862.837 315.8 862.488 315.461Z"
     id="path19" />
  <path
     fill="#FEFEFE"
     d="M876.063 337.995L877.138 335.173C878.84 334.468 929.109 334.419 933.541 334.852C934.481 336.294 934.548 336.565 935.114 338.215L934.9 339.627C916.098 339.108 895.145 339.537 876.183 339.548L876.063 337.995Z"
     id="path20" />
  <path
     fill="#FEFEFE"
     d="M762.246 412.692C763.945 413.681 777.607 428.915 780.462 431.636L780.4 444.831C777.404 442.434 765.37 429.02 762.177 425.588L762.246 412.692Z"
     id="path21" />
  <path
     fill="#FEFEFE"
     d="M889.126 321.248C895.048 321.24 931.122 320.286 933.594 321.93C933.91 323.909 934.068 323.006 933.162 324.743C931.266 325.86 924.062 325.401 921.387 325.375C916.184 325.398 879.608 325.963 877.457 324.783C877.006 322.865 876.966 323.807 877.736 321.869C879.684 320.711 886.423 321.209 889.126 321.248Z"
     id="path22" />
  <path
     fill="#FEFEFE"
     d="M780.17 321.422C782.929 321.276 784.154 320.748 786.341 321.851C786.708 322.795 787.053 323.748 787.373 324.709L788.714 325.599C782.399 327.92 784.424 333.558 784.491 339.728C783.212 341.114 781.981 342.26 781.116 343.925C781.238 346.037 780.743 352.036 780.297 354.004C779.564 352.341 779.716 324.187 780.17 321.422Z"
     id="path23" />
  <path
     fill="#E1E0E5"
     d="M780.17 321.422C780.465 325.306 780.217 342.09 781.116 343.925C781.238 346.037 780.743 352.036 780.297 354.004C779.564 352.341 779.716 324.187 780.17 321.422Z"
     id="path24" />
  <path
     fill="#FEFEFE"
     d="M762.507 432.317C766.114 435.006 776.957 447.6 780.462 451.287L780.402 458.322C775.499 454.725 766.983 442.811 762.553 437.974C762.252 437.645 762.468 433.13 762.507 432.317Z"
     id="path25" />
  <path
     fill="#E1E0E5"
     d="M876.063 337.995L876.183 339.548L800.749 339.521L801.234 338.416C804.646 337.772 820.982 337.976 825.058 337.967L876.063 337.995Z"
     id="path26" />
  <path
     fill="#FEFEFE"
     d="M788.494 329.558L800.169 329.637C800.046 332.617 799.576 336.003 801.234 338.416L800.749 339.521L788.433 339.508L788.494 329.558Z"
     id="path27" />
  <path
     fill="#E1E0E5"
     d="M935.114 338.215C940.643 337.536 959.627 338.197 966.741 338.207L995.616 338.202C998.438 338.202 1007.96 338.085 1010.19 338.53L1010.5 339.546L934.9 339.627L935.114 338.215Z"
     id="path28" />
  <path
     fill="#FEFEFE"
     d="M768.087 315.268C772.556 315.274 783.532 314.133 786.416 316.583C783.044 318.915 774.832 315.541 771.784 317.839C770.001 319.183 770.437 324.247 770.456 326.602C770.476 331.133 770.647 340.087 769.575 344.229C767.898 339.336 768.156 321.304 768.087 315.268Z"
     id="path29" />
  <path
     fill="#E1E0E5"
     d="M876.544 329.355C881.013 328.823 890.294 329.112 895.15 329.052C906.101 328.915 917.23 328.973 928.193 328.965C930.776 328.964 932.41 328.665 933.981 330.277C932.885 330.388 931.916 330.484 930.261 330.498C912.893 330.641 894.969 331.272 877.664 330.394C877.291 330.047 876.917 329.701 876.544 329.355Z"
     id="path30" />
  <path
     fill="#FEFEFE"
     d="M1010.19 338.53L1011.59 335.221C1014.22 334.523 1025.28 333.811 1027.75 335.625C1029.06 336.586 1028.89 337.065 1029.11 338.427L1028.34 339.344C1022.96 339.676 1016.01 339.522 1010.5 339.546L1010.19 338.53Z"
     id="path31" />
  <path
     fill="#FEFEFE"
     d="M774.765 320.107L775.635 320.631C777.053 322.765 776.004 346.485 775.786 350.679L775.091 350.11C773.684 347.358 774.112 323.691 774.765 320.107Z"
     id="path32" />
  <path
     fill="#FEFEFE"
     d="M762.734 314.824L763.695 315.234C765.162 317.373 764.391 335.513 764.287 339.073C760.864 336.198 762.53 319.848 762.734 314.824Z"
     id="path33" />
  <path
     fill="#FEFEFE"
     d="M1011.27 329.376C1015.21 328.998 1022.28 327.658 1025.06 330.528C1021.84 330.887 1013.54 331.485 1011.27 329.376Z"
     id="path34" />
  <path
     fill="#464947"
     d="M787.373 324.709C790.072 324.528 797.491 323.656 799.345 325.424L798.517 325.798L799.361 325.326L798.245 324.754L797.626 325.931C795.069 325.971 791.23 325.969 788.714 325.599L787.373 324.709Z"
     id="path35" />
  <path
     d="M679.685 309.681C688.793 309.602 730.569 308.84 736.677 311.332C741.488 316.408 738.476 333.083 739.653 340.112C740.104 342.799 742.766 346.256 742.882 348.445C743.244 355.228 743.281 362.425 743.317 369.194L743.329 411.286L743.328 476.147C743.319 484.07 744.027 524.403 740.955 528.611C736.63 531.77 713.807 530.832 707.197 530.825L662.452 530.779L525.949 530.784C515.483 530.782 472.04 532.434 464.693 528.778C463.299 528.085 463.157 526.879 462.818 525.494C460.36 515.444 461.715 500.996 461.708 490.562L461.757 425.617L461.824 377.127C461.844 366.968 460.306 348.731 465.388 340.491C465.33 334.173 464.465 317.848 466.617 312.674C470.22 309.452 532.85 310.306 543.213 310.258L679.685 309.681Z"
     id="path36" />
  <path
     fill="#FEFEFE"
     d="M468.801 345.953C477.739 345.405 491.857 345.908 501.229 345.925L564.286 345.927C621.193 345.867 680.451 345.127 737.233 346.004C738.121 361.804 737.339 522.763 736.393 524.68C721.817 525.872 695.316 525.08 680.072 525.076L573.625 525.09L503.611 525.141C495.718 525.146 474.637 525.629 467.687 524.417C466.911 491.915 467.64 456.268 467.655 423.539L467.668 374.875C467.67 370.464 466.971 348.557 468.801 345.953Z"
     id="path37" />
  <path
     d="M545.77 380.549C546.25 380.529 546.731 380.512 547.211 380.499C582.397 379.719 618.251 381.085 653.509 380.487C655.707 380.449 661.227 380.393 662.767 381.881C664.673 386.629 663.472 398.609 663.515 404.388C663.552 409.455 664.98 425.171 661.579 428.428C639.973 428.511 618.585 428.372 596.799 428.267C581.183 428.192 562.782 429.26 547.28 427.731C546.629 427.666 545.061 427.296 544.959 426.699C543.795 419.892 544.627 385.125 545.77 380.549Z"
     id="path38" />
  <path
     fill="#059669"
     d="M549.283 384.623L659.308 384.698C659.462 389.502 659.733 422.062 658.32 424.412L584.912 423.998C572.732 424.005 560.652 424.356 548.466 424.151C548.606 411.041 549.004 397.746 549.283 384.623Z"
     id="path39" />
  <path
     d="M555.587 388.26C575.776 388.108 595.964 388.064 616.153 388.13C628.188 388.134 642.807 387.745 654.621 388.434C654.623 396.492 654.93 410.528 654.105 418.917C653.641 419.486 653.246 419.969 652.921 420.368L593.394 420.281C580.757 420.305 566.234 420.688 553.747 420.127C553.755 414.945 553.077 391.017 555.587 388.26Z"
     id="path40" />
  <path
     fill="#FEFEFE"
     d="M558.6 392.37C588.917 392.249 620.038 392.067 650.337 392.454C650.419 400.252 650.265 408.05 649.876 415.838L557.763 416.098C557.801 411.237 557.691 396.542 558.6 392.37Z"
     id="path41" />
  <path
     d="M615.844 397.427C621.477 397.351 642.43 396.075 645.756 399.021C645.895 400.944 646.083 400.033 644.966 401.796C639.512 401.902 618.553 403.146 615.221 400.686C614.681 398.926 614.774 399.591 615.844 397.427Z"
     id="path42" />
  <path
     d="M635.223 406.814C639.242 406.789 644.381 406.231 646.999 409.693C645.631 411.018 644.987 410.955 643.02 411.357C639.107 411.517 634.646 411.978 631.365 409.503L632.024 407.901C633.032 407.145 633.921 407.121 635.223 406.814Z"
     id="path43" />
  <path
     d="M593.037 430.018C594.358 429.906 595.682 429.823 597.007 429.77C617.073 429.013 658.412 428.705 658.517 457.442C658.525 459.819 658.481 460.43 656.844 462.091C653.411 462.995 618.943 462.575 613.102 462.563C604.658 462.578 555.011 462.975 549.387 461.34C545.381 457.164 551.488 445.313 554.693 441.717C564.046 431.227 580.033 430.831 593.037 430.018Z"
     id="path44" />
  <path
     fill="#059669"
     d="M594.15 435.138C596.553 434.774 603.108 434.766 605.71 434.715C618.936 434.455 634.444 434.867 645.533 442.994C651.265 447.194 652.498 451.377 653.496 457.984L613.68 457.944C593.843 457.963 573.024 458.139 553.261 457.491C558.205 435.769 575.379 436.46 594.15 435.138Z"
     id="path45" />
  <path
     fill="#FEFEFE"
     d="M491.967 328.779C510.442 328.266 530.397 328.583 548.998 328.563L651.114 328.437L693.612 328.35C698.102 328.319 712.839 327.004 715.177 330.247L714.787 331.514C712.836 332.886 712.743 332.457 710.082 332.528L550.477 332.556L508.951 332.621C504.816 332.643 488.67 333.748 486.412 331.009L486.918 329.822C488.54 328.543 489.836 328.801 491.967 328.779Z"
     id="path46" />
  <path
     fill="#FEFEFE"
     d="M482.883 336.785L646.55 336.52L696.116 336.531C702.291 336.522 715.054 336.021 720.508 336.728C721.632 337.92 721.244 338.019 721.364 340.184L483.657 340.419C482.496 339.275 482.925 339.065 482.883 336.785Z"
     id="path47" />
  <path
     fill="#FEFEFE"
     d="M491.225 321.703C512.642 321.966 705.479 320.548 709.006 322.081L709.851 324.33L560.154 324.675L514.507 324.821C508.043 324.866 497.721 325.451 491.817 324.85C490.934 323.736 491.26 323.523 491.225 321.703Z"
     id="path48" />
  <path
     fill="#FEFEFE"
     d="M589.404 316.048L661.291 315.745C669.347 315.723 701.047 314.724 706.131 317.043C702.182 318.147 680.132 317.672 674.798 317.675L610.211 317.789C595.881 317.759 498.354 319.332 494.231 317.353L494.282 316.755C499.441 316.063 519.261 316.395 525.293 316.37L589.404 316.048Z"
     id="path49" />
  <path
     d="M633.17 536.704L679.649 536.623C688.108 536.606 698.468 536.302 706.659 536.931C707.95 538.083 707.612 538.633 707.865 540.75C710.614 543.553 732.955 539.145 739.306 543.417C742.524 547.86 739.513 555.97 740.809 560.851C741.129 562.053 744.389 563.707 744.59 567.108C745.14 576.41 745.063 585.621 745.066 594.916L745.1 639.576L745.193 703.376C745.214 714.75 745.38 726.16 745.148 737.529C744.971 746.2 744.933 749.109 735.501 749.316C716.66 749.728 697.797 749.519 678.952 749.518L567.43 749.517L508.821 749.557C495.088 749.562 477.411 750.496 463.735 748.175C459.944 747.532 459.758 740.249 459.741 736.951C459.574 705.601 459.722 674.233 459.691 642.875L459.612 594.56C459.594 586.373 459.543 578.08 459.626 569.876C459.687 563.828 463.81 563.795 464.504 560.005C465.498 554.579 463.348 549.963 465.722 544.267C469.822 539.616 486.68 543.083 492.113 541.609C492.666 540.149 492.69 539.776 493.935 538.796C499.166 538.313 565.939 538.482 567.436 539.071C568.059 540.199 568.181 540.594 569.119 541.489C578.582 542.305 592.88 541.641 602.751 541.694C609.359 541.729 625.513 542.19 631.491 541.348C632.786 540.305 632.721 538.706 633.17 536.704Z"
     id="path50" />
  <path
     fill="#FEFEFE"
     d="M467.726 566.278C484.902 565.875 503.223 566.164 520.514 566.156L619.884 566.157L695.046 566.157C709.223 566.148 725.105 565.814 739.146 566.345C739.712 574.681 739.363 586.769 739.37 595.319L739.403 648.334L739.478 707.879C739.498 719.045 739.83 731.818 739.269 742.779C738.097 743.961 738.275 743.574 736.098 743.76L557.761 744.013L501.834 744.036C490.156 744.037 477.301 744.289 465.746 743.602C465.034 733.816 465.476 719.017 465.479 708.949L465.498 645.383L465.409 594.555C465.39 586.171 465.312 577.475 465.491 569.071C465.525 567.473 466.492 567.178 467.726 566.278Z"
     id="path51" />
  <path
     d="M654.459 599.422C658.184 599.357 662.291 598.679 664.875 601.104C666.077 606.092 665.118 639.699 664.749 646.434C652.554 647.141 635.582 646.618 623.167 646.591L558.613 646.702C556.651 646.722 546.816 647.294 546.711 644.881C546.386 637.383 545.505 605.647 547.94 600.439C549.954 598.771 642.606 599.439 654.459 599.422Z"
     id="path52" />
  <path
     fill="#059669"
     d="M550.879 603.685C562.996 603.305 577.063 603.661 589.413 603.662L661.315 603.531C661.166 616.541 660.947 629.55 660.659 642.558L550.052 642.535C550.7 630.035 550.389 616.526 550.879 603.685Z"
     id="path53" />
  <path
     d="M557.222 607.424C582.291 607.09 607.477 607.487 632.554 607.359C640.463 607.318 648.547 607.37 656.438 607.725C656.398 611.822 656.8 636.472 655.621 638.415L653.223 638.795L594.634 638.756C581.681 638.754 567.972 639.051 555.108 638.653C555.229 633.603 555.095 609.924 557.222 607.424Z"
     id="path54" />
  <path
     fill="#FEFEFE"
     d="M559.651 611.317L652.504 611.368C652.497 614.887 652.831 632.592 651.491 634.622C620.734 634.77 589.976 634.762 559.219 634.599L559.651 611.317Z"
     id="path55" />
  <path
     d="M634.322 625.806C637.786 625.653 644.336 624.817 646.866 626.864C647.533 628.827 647.47 627.997 646.761 630.169C643.022 630.381 637.084 631.281 634.226 629.167C633.557 627.269 633.675 628.023 634.322 625.806Z"
     id="path56" />
  <path
     d="M602.206 647.968C619.058 646.577 650.203 648.442 658.475 666.616C659.947 669.851 660.671 675.731 659.248 679.085C656.762 681.322 616.37 680.443 610.066 680.442C593.847 680.491 568.693 681.335 551.757 679.75C551.149 679.693 550.205 678.107 550.216 677.403C550.647 648.848 581.203 648.887 602.206 647.968Z"
     id="path57" />
  <path
     fill="#059669"
     d="M600.834 653.163C613.703 651.889 636.912 653.14 647.249 661.185C653.102 665.74 654.04 668.985 655.094 675.878C640.429 675.711 625.31 675.909 610.595 675.9C592.004 676.032 573.413 676.038 554.822 675.919C560.596 652.62 580.496 654.364 600.834 653.163Z"
     id="path58" />
  <path
     fill="#059669"
     d="M500.275 542.749L564.08 542.799C564.047 546.453 565.239 552.685 563.094 555.177L560.926 555.322C539.459 555.218 517.992 555.221 496.526 555.332C496.615 551.489 495.839 547.58 496.845 543.989C498.155 542.476 497.595 542.945 500.275 542.749Z"
     id="path59" />
  <path
     fill="#059669"
     d="M639.642 541.018C659.63 540.536 683.512 540.702 703.568 540.952C703.51 544.099 704.472 551.07 702.658 553.258L700.832 553.422L636.637 553.614C636.739 550.297 635.8 543.701 637.458 541.319L639.642 541.018Z"
     id="path60" />
  <path
     fill="#B8B8BD"
     d="M568.463 559.292C620.19 558.238 672.327 560.604 724.12 559.159C725.191 559.129 726.906 559.629 727.735 560.338C723.23 562.066 596.333 560.536 583.914 560.52C579.15 560.028 568.518 560.228 563.285 560.162C565.015 559.895 566.741 559.605 568.463 559.292Z"
     id="path61" />
  <path
     fill="#969698"
     d="M583.914 560.52C573.804 561.535 551.42 560.813 540.66 560.815C526.183 560.886 511.706 560.872 497.229 560.773C490.933 560.735 482.184 561.651 476.3 559.872C478.64 558.869 559.375 559.325 568.463 559.292C566.741 559.605 565.015 559.895 563.285 560.162C568.518 560.228 579.15 560.028 583.914 560.52Z"
     id="path62" />
  <path
     fill="#FEFEFE"
     d="M568.017 553.671C577.628 552.729 593.783 553.773 603.921 553.35C607.975 553.181 629.082 553.176 632.051 553.792L632.917 555.187C620.709 555.731 606.599 554.996 594.189 555.338C590.558 555.438 571.257 555.575 568.683 554.937L568.017 553.671Z"
     id="path63" />
  <path
     fill="#FEFEFE"
     d="M568.154 547.901C572.378 547.335 593.018 547.576 598.276 547.607C604.796 547.645 627.031 547.167 632.081 548.003L632.852 549.24C626.702 549.754 572.717 550.138 568.724 549.007L568.154 547.901Z"
     id="path64" />
  <path
     fill="#FEFEFE"
     d="M707.514 553.687C711.017 553.305 719.714 553.037 723.04 553.76L723.808 554.96C720.795 555.404 710.828 555.599 708.048 554.845L707.514 553.687Z"
     id="path65" />
  <path
     fill="#FEFEFE"
     d="M479.768 553.71C483.304 552.983 490.562 552.276 493.203 554.911C492.419 555.006 491.632 555.074 490.844 555.114C487.029 555.304 482.375 556.079 479.768 553.71Z"
     id="path66" />
  <path
     fill="#E1E0E5"
     d="M707.828 547.932C710.74 547.695 715.026 547.279 717.766 548.023L718.452 549.29C715.52 549.414 710.8 549.819 708.17 549.02L707.828 547.932Z"
     id="path67" />
  <path
     fill="#E1E0E5"
     d="M483.761 547.915C486.889 547.684 491.198 546.524 492.929 549.285C489.924 549.459 485.544 550.442 483.761 547.915Z"
     id="path68" />
  <path
     d="M173.26 314.236C188.498 313.691 204.906 313.992 220.243 313.992L300.775 314.008L387.844 313.911C403.717 313.884 419.599 313.784 435.468 313.949C438.544 314.164 444.5 313.547 445.202 317.776C446.955 328.336 446.366 340.145 446.36 350.82L446.314 398.366L446.322 465.515C446.344 477.997 447.701 502.439 444.338 515.107C443.881 516.83 439.089 517.347 437.208 517.584C421.044 518.245 403.559 517.953 387.313 517.964L302.016 517.899L226.05 517.855C209.637 517.885 193.189 518.111 176.785 517.649C173.335 517.552 165.689 517.598 165.104 513.077C164.016 504.672 164.405 495.888 164.459 487.4L164.659 443.753L164.717 363.721C164.722 350.987 164.463 338.196 164.714 325.475C164.866 317.825 165.975 315.473 173.26 314.236Z"
     id="path69" />
  <path
     fill="#FEFEFE"
     d="M435.132 319.511L440.245 319.688C440.89 329.555 440.358 345.279 440.332 355.425L440.368 417.617L440.404 475.433C440.416 486.59 440.786 500.825 439.888 511.711C411.89 512.728 379.794 512.007 351.373 512.108L177.876 512.078L170.565 511.748C169.809 474.444 170.697 434.74 170.659 397.213L170.584 348.819C170.568 339.903 170.26 328.646 170.906 319.915C178.249 319.268 192.002 319.69 199.782 319.707L253.276 319.763L435.132 319.511Z"
     id="path70" />
  <path
     d="M248.188 371.89C281.684 371.519 315.278 372.139 348.782 371.825C352.296 371.792 363.736 371.443 366.071 373.15C366.689 374.724 367.143 377.061 367.056 378.789C366.42 391.461 366.767 404.095 366.397 416.751C366.356 418.159 365.668 419.001 364.755 419.972C360.808 420.295 356.636 420.399 352.66 420.336C320.738 419.832 288.863 420.294 256.948 420.247C254.108 420.243 249.777 419.839 247.232 418.829C245.754 414.763 246.45 375.4 248.188 371.89Z"
     id="path71" />
  <path
     fill="#059669"
     d="M252.343 376.177C288.402 375.108 326.198 376.796 362.49 375.994C362.516 381.518 362.807 413.316 361.177 415.773L250.544 415.848C250.875 405.339 250.926 388.107 251.557 377.033C251.819 376.748 252.081 376.462 252.343 376.177Z"
     id="path72" />
  <path
     d="M257.408 380.014C265.637 379.184 289.105 379.623 298.527 379.739C316.764 379.965 339.94 378.94 357.823 380.085C357.734 385.153 357.658 408.457 356.919 411.74C343.2 412.65 322.828 411.921 308.542 411.847C292.565 411.765 271.474 412.645 256.217 411.712C255.96 406.736 255.898 383.156 257.408 380.014Z"
     id="path73" />
  <path
     fill="#FEFEFE"
     d="M260.68 383.9L353.502 384.029C353.501 391.773 353.473 400.153 352.988 407.847C322.066 407.737 291.145 407.811 260.224 408.068C260.314 400.011 260.466 391.955 260.68 383.9Z"
     id="path74" />
  <path
     d="M314.941 389.235C323.071 389.184 331.25 389.122 339.383 389.047C342.382 389.019 346.805 388.624 348.307 391.482L347.68 393.401C342.928 393.828 318.61 394.473 315.107 393.008C314.192 391.233 314.515 391.692 314.941 389.235Z"
     id="path75" />
  <path
     d="M332.947 398.641C336.762 398.547 345.603 397.581 348.131 399.859C348.424 401.688 348.534 400.935 347.318 402.769C343.83 402.983 334.515 404.189 332.057 401.845C331.746 399.993 331.767 400.667 332.947 398.641Z"
     id="path76" />
  <path
     d="M296.277 421.833C313.845 419.54 348.647 421.14 358.75 437.646C360.953 441.245 362.796 449.854 360.269 453.434C356.547 455.223 322.972 454.42 316.523 454.396L276.27 454.364C270.454 454.355 256.632 454.713 251.574 453.423C250.64 452.292 249.893 451.419 250.042 449.775C252.381 423.932 276.928 423.222 296.277 421.833Z"
     id="path77" />
  <path
     fill="#059669"
     d="M295.388 427.036C309.945 425.415 331.642 425.83 345.074 432.633C349.675 434.963 358.464 443.542 355.319 449.02C351.747 449.877 322.77 449.494 317.102 449.481C296.454 449.525 275.807 449.465 255.161 449.3C260.746 427.872 276.395 428.747 295.388 427.036Z"
     id="path78" />
  <path
     d="M176.181 107.822C192.285 107.367 209.279 107.66 225.463 107.662L309.459 107.63L391.634 107.598C406.235 107.593 420.859 107.519 435.459 107.659C439.212 107.926 443.721 107.427 444.411 112.198C445.741 121.388 445.381 130.866 445.343 140.107L445.179 179.734L445.02 244.968C445.004 258.586 445.067 272.333 444.599 285.947C444.507 288.632 444.048 292.954 442.518 295.236C441.147 297.281 436.954 297.462 434.473 297.792C419.443 298.171 403.458 297.87 388.338 297.86L304.483 297.838L220.423 297.812C208.676 297.807 174.791 299.005 165.542 295.494C162.922 290.238 163.923 264.66 163.964 256.938L164.068 204.76L164.082 149.549C164.073 141.755 162.609 117.619 166.575 109.802C167.424 108.129 173.807 107.954 176.181 107.822Z"
     id="path79" />
  <path
     fill="#FEFEFE"
     d="M170.627 113.512C202.082 112.499 239.34 113.406 271.289 113.406L439.296 113.466C440.37 146.767 439.018 185.915 438.989 219.601L438.982 263.88C438.98 271.761 439.284 283.86 438.339 291.411C430.819 292.51 406.486 291.991 397.708 291.99L318.911 292.043L221.466 291.991C208.137 291.998 182.161 292.834 170.03 291.545C169.611 281.781 169.946 269.72 169.955 259.753L169.956 201.516L169.907 144.24C169.903 138.756 169.479 117.219 170.627 113.512Z"
     id="path80" />
  <path
     d="M248.109 155.103C281.703 154.873 315.398 155.644 349.002 155.377C352.434 155.349 363.225 155.117 365.631 156.648C367.304 160.87 366.391 172.307 366.302 177.506C366.216 182.499 367.314 199.922 364.369 203.375C354.712 203.846 250.367 203.856 247.938 202.901C247.351 202.67 247.356 202.433 247.153 201.867C245.59 197.519 246.13 159.331 248.109 155.103Z"
     id="path81" />
  <path
     fill="#059669"
     d="M251.364 159.611C287.77 159.057 325.466 159.564 361.96 159.598C361.953 164.603 362.329 197.517 361.136 199.325C324.252 198.611 286.995 199.944 250.602 199.168C250.626 186.471 250.779 172.197 251.364 159.611Z"
     id="path82" />
  <path
     d="M257.348 163.207C262.178 162.998 267.518 162.883 272.346 163.019C300.388 163.809 329.457 162.099 357.431 163.459C357.35 169.05 358.071 192.371 355.897 195.36L290.53 195.45C282.629 195.478 264.64 196.052 257.817 195.165C254.516 192.377 255.581 166.157 257.348 163.207Z"
     id="path83" />
  <path
     fill="#FEFEFE"
     d="M260.63 167.253C289.751 166.191 323.514 167.335 353.195 167.121C353.19 174.92 352.893 182.981 352.706 190.797C321.774 190.712 290.841 190.856 259.91 191.229C260.03 183.234 260.27 175.241 260.63 167.253Z"
     id="path84" />
  <path
     d="M267.068 181.84C273.325 181.724 299.688 180.14 302.999 183.323C303.113 185.184 303.251 184.455 301.982 186.217C291.572 186.233 280.982 186.348 270.571 186.032C268.339 185.964 266.513 185.965 265.283 184.044C265.669 182.391 265.329 182.99 267.068 181.84Z"
     id="path85" />
  <path
     d="M268.746 170.874C273.078 170.765 277.411 170.689 281.744 170.645C285.123 170.628 289.09 170.493 291.499 172.874L291.383 173.948C289.674 175.644 290.324 175.117 287.404 175.478C282.886 175.579 267.171 176.684 264.717 173.794L264.819 172.666C266.639 170.883 265.78 171.438 268.746 170.874Z"
     id="path86" />
  <path
     d="M298.948 205.012C316.019 203.999 333.549 203.752 349.13 212.138C356.742 216.236 364.487 228.263 359.674 236.482C356.681 238.07 319.441 237.432 312.91 237.429C304.131 237.481 255.743 238.12 251.188 236.107C250.488 235.16 249.95 234.782 250.007 233.51C251.22 206.196 279.076 205.869 298.948 205.012Z"
     id="path87" />
  <path
     fill="#059669"
     d="M296.923 210.17C310.363 208.691 336.059 209.023 346.873 217.188C353.373 222.096 354.488 225.002 355.895 232.582L315.367 232.606L255.128 232.502C260.696 210.273 277.552 211.371 296.923 210.17Z"
     id="path88" />
  <path
     d="M698.017 107.859C703.761 107.791 736.532 106.312 738.995 110.015C741.822 114.265 741.198 137.404 741.19 144.03L741.114 189.989L740.93 254.941C740.891 262.714 741.842 291.039 738.316 295.978C734.372 299.043 662.151 297.814 652.667 297.805L503.258 297.72C493.337 297.719 470.628 299.061 462.655 295.126C459.818 293.726 460.586 259.018 460.581 254.209L460.525 195.457L460.5 144.326C460.504 134.982 460.408 125.712 460.792 116.345C461.133 108.03 465.956 108.182 473.018 107.99C481.648 107.755 490.43 107.96 499.081 107.956L549.782 107.958L698.017 107.859Z"
     id="path89" />
  <path
     fill="#FEFEFE"
     d="M468.087 113.519L654.353 113.712C680.399 113.718 709.258 113.053 735.056 113.76C735.75 121.114 735.302 136.231 735.293 144.274L735.177 201.864L735.105 256.814C735.101 267.421 735.42 281.411 734.484 291.716C724.615 292.597 702.857 291.999 692.209 292.005L607.047 292.035L517.788 292.023C503.66 292.047 480.165 292.723 466.729 291.605C466.174 281.901 466.551 268.834 466.552 258.941L466.538 199.668L466.521 145.762C466.521 136.493 466.45 127.034 466.632 117.757C466.681 115.293 466.834 115.19 468.087 113.519Z"
     id="path90" />
  <path
     d="M576.737 204.061C570.252 203.902 547.58 205.143 544.014 202.085C542.442 199.554 542.485 193.853 543.017 190.963C544.193 184.58 541.828 159.171 545.428 155.845C553.973 154.845 658.537 155.257 661.742 156.604C661.879 156.95 661.944 157.096 662.061 157.483C663.128 160.994 662.776 200.342 661.454 202.535C660.728 203.74 659.649 203.694 658.381 204.014C648.911 205.332 625.283 203.981 614.401 204.492L614.233 205.18C609.788 205.341 605.442 205.247 601.001 205.181L600.71 204.435C593.57 204.42 583.646 204.682 576.737 204.061Z"
     id="path91" />
  <path
     fill="#E1E0E5"
     d="M576.737 204.061C589.984 202.945 609.787 203.65 623.398 203.666C632.983 203.678 649.445 203.275 658.381 204.014C648.911 205.332 625.283 203.981 614.401 204.492L614.233 205.18C609.788 205.341 605.442 205.247 601.001 205.181L600.71 204.435C593.57 204.42 583.646 204.682 576.737 204.061Z"
     id="path92" />
  <path
     fill="#059669"
     d="M551.248 159.898C586.887 160.258 622.528 160.249 658.166 159.87C658.593 171.639 657.739 186.391 657.641 198.338C657.634 199.13 657.557 198.903 656.755 199.574L547.419 199.535C547.462 193.758 546.947 162.591 548.909 160.14L551.248 159.898Z"
     id="path93" />
  <path
     d="M600.14 163.369C616.008 163.304 638.121 162.632 653.478 163.717C653.606 174.14 653.352 185.064 653.251 195.525C641.401 196.573 620.362 195.69 607.673 195.673C591.027 195.895 569.109 196.341 552.605 195.451C552.29 185.026 552.875 174.042 553.503 163.617C569.048 163.415 584.594 163.333 600.14 163.369Z"
     id="path94" />
  <path
     fill="#FEFEFE"
     d="M557.321 167.593L649.235 167.6C649.277 175.505 649.076 183.409 648.632 191.302C618.539 191.875 586.909 191.411 556.655 191.466C556.737 183.505 556.959 175.546 557.321 167.593Z"
     id="path95" />
  <path
     d="M601.348 171.94C602.154 171.894 602.961 171.857 603.768 171.83C615.145 171.507 626.873 171.58 638.267 171.673C640.592 171.693 642.207 171.858 643.911 173.458C643.976 175.272 644.2 174.549 642.733 176.148C637.909 176.458 603.282 177.122 600.707 175.302C600.141 173.529 600.271 174.167 601.348 171.94Z"
     id="path96" />
  <path
     d="M628.44 181.783C632.424 181.695 640.89 180.669 643.588 183.002C644.017 184.949 644.045 184.151 643.071 186.186C639.457 186.283 629.77 187.336 627.447 185.057C627.207 183.106 627.184 183.825 628.44 181.783Z"
     id="path97" />
  <path
     d="M601.001 205.181C605.442 205.247 609.788 205.341 614.233 205.18C629.058 205.668 652.256 209.147 656.184 226.672C656.948 230.083 657.697 233.537 655.826 236.711C652.813 238.556 622.373 237.729 616.376 237.768C601.582 237.864 586.789 237.874 571.995 237.799C566.695 237.784 552.797 238.067 548.185 237.011C547.199 236.114 546.406 235.166 546.493 233.74C548.273 204.821 580.558 205.621 601.001 205.181Z"
     id="path98" />
  <path
     fill="#059669"
     d="M603.311 210.194C617.112 210.114 634.136 209.955 645.354 219.402C649.9 223.231 650.777 227.553 651.681 233.16C635.318 232.883 617.97 233.143 601.539 233.147C584.835 233.258 568.13 233.199 551.427 232.97C552.931 227.619 554.022 224.282 557.832 220.028C566.871 209.936 590.093 210.58 603.311 210.194Z"
     id="path99" />
  <path
     d="M771.417 107.819C787.721 107.18 808.499 107.837 825.112 107.803L941.599 107.657L998.232 107.633C1006.52 107.63 1025.55 107.12 1032.8 108.749C1036.54 112.888 1035.56 129.565 1035.55 135.532L1035.45 171.982L1035.42 243.291C1035.41 256.2 1035.69 269.284 1035.22 282.177C1034.74 295.569 1035.42 297.48 1021.69 297.795L857.617 297.739L801.289 297.759C789.409 297.741 777.398 297.867 765.699 297.233C756.741 296.748 755.949 294.873 755.644 286.539C755.26 276.064 755.432 264.746 755.442 254.34L755.513 196.88L755.65 141.173C755.685 133.241 755.518 125.288 755.644 117.364C755.803 107.386 764.294 108.034 771.417 107.819Z"
     id="path100" />
  <path
     fill="#FEFEFE"
     d="M762.503 113.524C773.493 113.151 786.259 113.495 797.375 113.532L856.812 113.551L1029.59 113.485C1030.55 138.606 1029.24 170.596 1029.56 195.759C1029.69 206.627 1030.14 288.592 1028.35 291.622C1020.72 292.603 996.967 291.965 987.958 291.976L900.271 292.009L809.047 292.015C797.147 292.02 772.689 292.72 761.77 291.568C761.151 287.745 761.367 276.604 761.369 272.391L761.399 235.291L761.486 159.269C761.493 152.683 760.824 117.728 762.503 113.524Z"
     id="path101" />
  <path
     d="M840.923 155.252C866.338 155.499 891.754 155.582 917.17 155.5C925.42 155.498 949.956 155.004 956.383 156.375C959.344 159.786 957.434 177.651 957.493 183.09C957.544 187.701 958.627 200.603 955.571 203.558C922.54 204.261 889.12 203.016 856.041 203.678C852.619 203.746 841.588 203.905 839.169 202.368C836.854 197.123 839.24 167.131 838.927 159.565C838.841 157.496 839.537 156.482 840.923 155.252Z"
     id="path102" />
  <path
     fill="#059669"
     d="M843.396 159.639C848.047 159.496 853.137 159.553 857.804 159.635C889.567 160.195 921.682 159.081 953.408 159.875C953.41 165.098 953.858 197.284 952.576 199.395L842.372 199.381C842.804 186.12 842.834 172.9 843.396 159.639Z"
     id="path103" />
  <path
     d="M849.979 163.365C875.69 162.833 901.563 163.392 927.287 163.151C934.295 163.085 941.804 162.994 948.782 163.449C948.736 173.153 948.851 183.732 948.224 193.448C948.123 195 947.929 194.834 946.969 195.504C935.501 195.515 851.668 196.256 848.503 194.589C847.459 191.996 847.424 185.368 847.93 182.553C848.851 177.424 846.662 166.875 849.979 163.365Z"
     id="path104" />
  <path
     fill="#FEFEFE"
     d="M852.653 167.325L944.388 167.43C944.377 174.238 944.528 184.412 943.862 190.967L852.009 191.324C852.107 183.559 852.043 175.002 852.653 167.325Z"
     id="path105" />
  <path
     d="M908.693 173.082C917.361 172.992 927.573 172.623 936.264 173.262C938.074 173.395 938.491 174.03 939.354 175.218C939.018 176.901 939.276 176.295 937.689 177.607C931.882 177.863 911.199 178.99 907.64 176.075C907.435 174.223 907.334 174.952 908.693 173.082Z"
     id="path106" />
  <path
     d="M914.215 182.436C918.748 182.346 934.801 181.322 938.675 183.719C939.283 184.095 939.047 184.6 939.013 185.497L937.523 186.708C933.166 186.828 914.189 188.566 912.25 184.72C912.998 182.786 912.385 183.539 914.215 182.436Z"
     id="path107" />
  <path
     d="M891.399 204.98C909.228 204.095 946.675 203.71 951.825 226.801C952.444 229.58 952.737 234.287 951.061 236.694C947.29 238.473 910.109 237.672 903.32 237.653C895.665 237.653 846.305 238.672 842.664 236.059C842.271 235.398 841.843 234.66 841.836 233.868C841.724 222.704 848.858 213.249 859.356 209.454C869.305 205.858 880.809 205.477 891.399 204.98Z"
     id="path108" />
  <path
     fill="#059669"
     d="M891.83 210.172C907.973 209.003 937.839 208.566 945.949 226.128C946.639 227.622 947.044 231.05 947.274 232.775C933.679 233.277 917.142 232.821 903.27 232.801C884.422 232.917 865.574 232.85 846.727 232.598C853.273 209.53 871.588 211.399 891.83 210.172Z"
     id="path109" />
  <path
     d="M175.884 542.079C191.005 541.54 208.081 541.888 223.355 541.888L307.415 541.87L389.26 541.773C398.079 541.748 440.249 540.78 444.951 543.353C447.969 551.895 446.926 577.155 446.927 587.533L446.941 645.427L446.973 689.433C446.977 701.085 447.496 716.199 445.07 727.371C443.037 728.136 440.856 728.635 438.745 729.182C427.423 729.965 412.139 729.448 400.41 729.428L333.506 729.409L232.935 729.536C215.27 729.532 197.491 729.649 179.831 729.324C176.846 729.269 171.786 729.224 169.346 727.601C167.522 726.616 167.297 723.949 167.097 722.039C166.199 713.475 166.496 704.501 166.501 695.902L166.551 653.264L166.585 590.247C166.594 576.865 166.442 563.451 167.118 550.086C167.461 543.305 170.029 542.654 175.884 542.079Z"
     id="path110" />
  <path
     fill="#FEFEFE"
     d="M173.018 547.668C181.796 547.234 194 547.608 202.933 547.622L260.68 547.672L440.729 547.572C441.312 556.283 441.032 567.048 441.035 575.918L441.048 622.417L441.063 682.943C441.062 689.087 441.68 720.462 439.8 723.44C374.155 724.416 307.971 723.043 242.27 723.62C219.597 723.819 195.572 724.216 172.969 723.415C172.104 718.305 172.443 705.614 172.464 700.075L172.609 658.207L172.511 589.342C172.489 576.636 172.065 560.144 173.018 547.668Z"
     id="path111" />
  <path
     d="M249.246 586.475C282.967 585.458 317.57 587.161 351.393 586.474C355.614 586.388 363.344 586.2 366.97 587.845C367.566 589.305 367.923 590.88 367.907 592.512C367.783 605.513 367.657 618.561 367.477 631.548C367.455 633.15 366.592 633.762 365.421 634.497C342.194 634.973 318.389 634.502 295.129 634.54C286.777 634.553 255.752 635.373 248.823 633.952C246.931 630.287 247.774 591.015 249.246 586.475Z"
     id="path112" />
  <path
     fill="#059669"
     d="M252.656 590.955C265.123 590.476 280.16 590.877 292.93 590.885L363.52 591.001C363.796 603.87 363.433 617.445 363.269 630.369C351.022 630.756 336.203 630.311 323.748 630.334C299.82 630.482 275.892 630.472 251.965 630.305C251.957 617.36 252.396 603.931 252.656 590.955Z"
     id="path113" />
  <path
     d="M258.516 594.504C286.788 593.714 315.583 594.879 343.907 594.461C348.762 594.389 353.911 594.517 358.752 594.842C359.045 598.936 358.882 623.979 357.728 626.437C324.23 626.785 290.729 626.904 257.229 626.795C257.104 621.639 257.091 597.996 258.516 594.504Z"
     id="path114" />
  <path
     fill="#FEFEFE"
     d="M261.905 598.603C291.46 597.84 324.737 598.539 354.492 598.56C354.53 606.471 354.405 614.381 354.116 622.287L261.358 622.471C261.432 614.513 261.614 606.556 261.905 598.603Z"
     id="path115" />
  <path
     d="M274.051 601.725C277.961 601.636 295.409 600.18 296.599 604.13C294.95 606.827 292.368 606.192 289.459 606.194C285.092 606.261 267.925 607.657 266.086 603.993L266.988 602.651C268.812 601.382 271.645 601.735 274.051 601.725Z"
     id="path116" />
  <path
     d="M267.199 610.985C272.921 610.826 291.212 609.615 294.976 611.703C295.84 613.52 295.602 612.868 295.079 615.275C290.145 615.36 269.489 616.496 266.718 614.111C266.477 611.967 266.327 612.971 267.199 610.985Z"
     id="path117" />
  <path
     d="M306.056 636.07C309.893 634.952 318.661 634.711 322.377 636.073C336.349 636.549 359.919 641.586 362.217 658.631C362.681 662.075 363.504 665.633 360.905 668.339C354.941 668.903 346.551 668.714 340.442 668.746L303.14 668.776C291.386 668.738 263.75 669.315 253.03 667.935C252.086 667.029 251.453 666.005 251.526 664.642C253.07 635.675 286.015 636.736 306.056 636.07Z"
     id="path118" />
  <path
     fill="#B8B8BD"
     d="M306.056 636.07C309.893 634.952 318.661 634.711 322.377 636.073C316.937 636.158 311.496 636.157 306.056 636.07Z"
     id="path119" />
  <path
     fill="#059669"
     d="M310.542 641.045C325.222 641.215 349.293 640.978 356.28 657.422C357.276 659.767 357.678 661.295 356.68 663.692C353.398 664.298 343.383 664.034 339.397 664.039L304.286 664.095C288.435 664.134 272.584 664.085 256.734 663.946C260.811 648.019 269.027 644.202 284.994 642.476C293.553 641.551 301.95 641.342 310.542 641.045Z"
     id="path120" />
  <path
     d="M824.048 541.591L957.15 541.361L1002.51 541.303C1009.45 541.297 1016.5 541.253 1023.36 541.321C1026.28 541.35 1031.72 541.16 1033.65 542.789C1035.95 544.741 1036.1 555.999 1036.1 558.561C1036.05 610.738 1036.33 662.934 1035.73 715.101C1035.7 717.559 1034.97 725.572 1033.44 727.174C1026.14 730.972 979.197 729.306 967.492 729.277L838.355 729.296C818.092 729.298 797.849 729.338 777.564 729.266C772.621 729.249 762.72 729.279 758.397 726.894C756.48 725.836 756.307 719.106 756.258 716.92C756.013 705.937 756.136 694.44 756.159 683.46L756.243 624.48L756.246 578.844C756.24 569.466 755.871 559.927 756.591 550.58C756.766 548.308 757.099 545.101 758.879 543.482C762.421 540.264 816.034 541.594 824.048 541.591Z"
     id="path121" />
  <path
     fill="#FEFEFE"
     d="M762.949 547.213L933.739 547.192C965.598 547.17 998.315 546.864 1030.13 547.347C1030.47 557.365 1030.17 569.338 1030.16 579.483L1030.09 640.695L1030.09 690.565C1030.08 699.76 1030.15 709.117 1029.82 718.302C1029.73 720.725 1029.77 721.53 1028.34 723.078C1016.46 723.7 1001.7 723.363 989.601 723.377L920.935 723.429L822.103 723.468C815.02 723.47 765.198 724.046 762.835 722.542C761.252 714.806 761.978 550.715 762.949 547.213Z"
     id="path122" />
  <path
     d="M840.016 634.717C838.909 633.339 838.391 633.066 838.288 631.176C837.904 624.12 838.268 616.426 838.634 609.38C838.899 604.277 837.9 591.097 839.875 587.146C845.873 585.596 882.893 586.443 891.691 586.381C910.436 586.25 931.71 586.515 950.723 586.315C952.629 586.295 954.965 586.564 956.676 587.515C959.219 592.591 956.923 610.481 957.414 617.068C957.732 621.341 958.564 631.814 955.382 634.713C945.845 636.271 924.224 634.39 913.69 635.221C913.504 635.452 913.318 635.683 913.131 635.914L913.116 636.021C905.434 635.937 897.752 635.942 890.071 636.034L890.044 635.587C886.97 633.952 847.944 636.115 840.016 634.717Z"
     id="path123" />
  <path
     fill="#E1E0E5"
     d="M840.016 634.717C856.663 633.563 885.04 634.398 902.407 634.417L936.258 634.467C941.877 634.479 949.936 634.272 955.382 634.713C945.845 636.271 924.224 634.39 913.69 635.221C913.504 635.452 913.318 635.683 913.131 635.914L913.116 636.021C905.434 635.937 897.752 635.942 890.071 636.034L890.044 635.587C886.97 633.952 847.944 636.115 840.016 634.717Z"
     id="path124" />
  <path
     fill="#059669"
     d="M843.498 590.704L953.332 590.897C953.509 595.556 953.831 628.175 952.589 630.328C916.326 630.548 878.714 630.628 842.467 630.183C842.97 616.955 842.795 604.088 843.498 590.704Z"
     id="path125" />
  <path
     d="M851.292 594.194C867.295 593.86 885.239 594.486 901.38 594.239C908.742 594.127 942.649 593.535 947.973 594.906C949.595 598.139 948.633 621.147 947.821 625.528C947.688 626.246 946.023 626.357 945.379 626.493L885.224 626.514C873.148 626.509 859.846 626.754 847.879 626.264C847.466 620.366 848.07 602.456 848.905 595.689C849.027 594.706 850.376 594.492 851.292 594.194Z"
     id="path126" />
  <path
     fill="#FEFEFE"
     d="M852.535 598.542C881.85 597.637 914.719 598.583 944.483 598.43C944.51 606.093 944.221 614.256 944.084 621.957C913.416 622.308 882.747 622.415 852.078 622.279C852.112 614.364 852.264 606.451 852.535 598.542Z"
     id="path127" />
  <path
     d="M916.112 604.019C920.754 603.94 937.391 602.53 939.365 606.463C938.55 608.316 939.186 607.599 937.268 608.573C931.786 608.646 919.704 609.368 914.382 607.706C913.564 607.45 913.66 607.012 913.327 606.039L914.091 604.603L916.112 604.019Z"
     id="path128" />
  <path
     d="M857.99 602.267C862.875 602.035 879.361 600.818 882.192 603.943C882.046 605.914 882.4 605.044 880.919 606.565C876.131 606.673 871.343 606.752 866.555 606.802C863.234 606.819 858.839 607.195 856.561 604.944C856.736 603.094 856.479 603.793 857.99 602.267Z"
     id="path129" />
  <path
     d="M914.678 614.119C919.673 613.964 935.092 612.885 938.938 615.075C939.798 616.654 939.55 616.094 939.203 618.272C933.933 618.291 919.081 619.415 915.141 617.559C914.045 615.806 914.297 616.585 914.678 614.119Z"
     id="path130" />
  <path
     d="M890.071 636.034C897.752 635.942 905.434 635.937 913.116 636.021C914.588 636.116 916.058 636.25 917.524 636.425C936.884 638.799 955.139 645.737 951.876 668.477L879.686 668.555C873.642 668.55 847.79 668.979 843.284 667.639C839.486 662.885 845.033 651.973 848.416 648.048C858.008 636.921 876.559 636.829 890.071 636.034Z"
     id="path131" />
  <path
     fill="#059669"
     d="M893.258 641.097C908.994 639.883 938.367 640.274 946.133 657.302C946.836 658.844 947.157 662.108 947.352 663.872L901.008 663.845L847.028 663.912C853.13 640.277 872.827 642.341 893.258 641.097Z"
     id="path132" />
</svg>
